<?xml version="1.0" encoding="utf-8" standalone="no"?>
<!DOCTYPE svg PUBLIC "-//W3C//DTD SVG 1.1//EN"
  "http://www.w3.org/Graphics/SVG/1.1/DTD/svg11.dtd">
<svg xmlns:xlink="http://www.w3.org/1999/xlink" width="474.680401pt" height="484.681198pt" viewBox="0 0 474.680401 484.681198" xmlns="http://www.w3.org/2000/svg" version="1.1">
 <metadata>
  <rdf:RDF xmlns:dc="http://purl.org/dc/elements/1.1/" xmlns:cc="http://creativecommons.org/ns#" xmlns:rdf="http://www.w3.org/1999/02/22-rdf-syntax-ns#">
   <cc:Work>
    <dc:type rdf:resource="http://purl.org/dc/dcmitype/StillImage"/>
    <dc:date>2023-09-11T18:00:50.857624</dc:date>
    <dc:format>image/svg+xml</dc:format>
    <dc:creator>
     <cc:Agent>
      <dc:title>Matplotlib v3.5.2, https://matplotlib.org/</dc:title>
     </cc:Agent>
    </dc:creator>
   </cc:Work>
  </rdf:RDF>
 </metadata>
 <defs>
  <style type="text/css">*{stroke-linejoin: round; stroke-linecap: butt}</style>
 </defs>
 <g id="figure_1">
  <g id="patch_1">
   <path d="M 0 484.681198 
L 474.680401 484.681198 
L 474.680401 0 
L 0 0 
z
" style="fill: #ffffff"/>
  </g>
  <g id="patch_2">
   <path d="M 7.2 467.473973 
L 467.473973 467.473973 
L 467.473973 7.2 
L 7.2 7.2 
z
" style="fill: #ffffff"/>
  </g>
  <g id="pane3d_1">
   <g id="patch_3">
    <path d="M 58.453298 373.267233 
L 197.704516 254.043262 
L 195.273405 26.778843 
L 47.791061 133.234146 
" style="fill: #f2f2f2; opacity: 0.5; stroke: #f2f2f2; stroke-linejoin: miter"/>
   </g>
  </g>
  <g id="pane3d_2">
   <g id="patch_4">
    <path d="M 197.704516 254.043262 
L 422.482403 320.579817 
L 432.425666 86.075455 
L 195.273405 26.778843 
" style="fill: #e6e6e6; opacity: 0.5; stroke: #e6e6e6; stroke-linejoin: miter"/>
   </g>
  </g>
  <g id="pane3d_3">
   <g id="patch_5">
    <path d="M 58.453298 373.267233 
L 295.6105 451.410528 
L 422.482403 320.579817 
L 197.704516 254.043262 
" style="fill: #ececec; opacity: 0.5; stroke: #ececec; stroke-linejoin: miter"/>
   </g>
  </g>
  <g id="axis3d_1">
   <g id="line2d_1">
    <path d="M 58.453298 373.267233 
L 295.6105 451.410528 
" style="fill: none; stroke: #000000; stroke-width: 0.8; stroke-linecap: square"/>
   </g>
   <g id="text_1">
    <!-- x -->
    <g transform="translate(156.491253 452.390959)scale(0.1 -0.1)">
     <defs>
      <path id="DejaVuSans-78" d="M 3513 3500 
L 2247 1797 
L 3578 0 
L 2900 0 
L 1881 1375 
L 863 0 
L 184 0 
L 1544 1831 
L 300 3500 
L 978 3500 
L 1906 2253 
L 2834 3500 
L 3513 3500 
z
" transform="scale(0.015625)"/>
     </defs>
     <use xlink:href="#DejaVuSans-78"/>
    </g>
   </g>
   <g id="Line3DCollection_1">
    <path d="M 62.976988 374.757789 
L 202.007798 255.317078 
L 199.802823 27.911361 
" style="fill: none; stroke: #b0b0b0; stroke-width: 0.8"/>
    <path d="M 106.843047 389.211654 
L 243.70476 267.659805 
L 243.712676 38.890406 
" style="fill: none; stroke: #b0b0b0; stroke-width: 0.8"/>
    <path d="M 151.519054 403.932398 
L 286.11243 280.212909 
L 288.411386 50.066695 
" style="fill: none; stroke: #b0b0b0; stroke-width: 0.8"/>
    <path d="M 197.027651 418.92748 
L 329.249134 292.981815 
L 333.920405 61.44559 
" style="fill: none; stroke: #b0b0b0; stroke-width: 0.8"/>
    <path d="M 243.392333 434.204642 
L 373.133836 305.972136 
L 380.261969 73.032651 
" style="fill: none; stroke: #b0b0b0; stroke-width: 0.8"/>
    <path d="M 290.637483 449.771919 
L 417.786161 319.189681 
L 427.459133 84.833643 
" style="fill: none; stroke: #b0b0b0; stroke-width: 0.8"/>
   </g>
   <g id="xtick_1">
    <g id="line2d_2">
     <path d="M 64.1794 373.724802 
L 60.567438 376.827822 
" style="fill: none; stroke: #000000; stroke-width: 0.8; stroke-linecap: square"/>
    </g>
    <g id="text_2">
     <!-- 0.0 -->
     <g transform="translate(48.273953 399.470859)scale(0.1 -0.1)">
      <defs>
       <path id="DejaVuSans-30" d="M 2034 4250 
Q 1547 4250 1301 3770 
Q 1056 3291 1056 2328 
Q 1056 1369 1301 889 
Q 1547 409 2034 409 
Q 2525 409 2770 889 
Q 3016 1369 3016 2328 
Q 3016 3291 2770 3770 
Q 2525 4250 2034 4250 
z
M 2034 4750 
Q 2819 4750 3233 4129 
Q 3647 3509 3647 2328 
Q 3647 1150 3233 529 
Q 2819 -91 2034 -91 
Q 1250 -91 836 529 
Q 422 1150 422 2328 
Q 422 3509 836 4129 
Q 1250 4750 2034 4750 
z
" transform="scale(0.015625)"/>
       <path id="DejaVuSans-2e" d="M 684 794 
L 1344 794 
L 1344 0 
L 684 0 
L 684 794 
z
" transform="scale(0.015625)"/>
      </defs>
      <use xlink:href="#DejaVuSans-30"/>
      <use xlink:href="#DejaVuSans-2e" x="63.623047"/>
      <use xlink:href="#DejaVuSans-30" x="95.410156"/>
     </g>
    </g>
   </g>
   <g id="xtick_2">
    <g id="line2d_3">
     <path d="M 108.027511 388.159689 
L 104.46942 391.319758 
" style="fill: none; stroke: #000000; stroke-width: 0.8; stroke-linecap: square"/>
    </g>
    <g id="text_3">
     <!-- 0.2 -->
     <g transform="translate(92.136131 414.100588)scale(0.1 -0.1)">
      <defs>
       <path id="DejaVuSans-32" d="M 1228 531 
L 3431 531 
L 3431 0 
L 469 0 
L 469 531 
Q 828 903 1448 1529 
Q 2069 2156 2228 2338 
Q 2531 2678 2651 2914 
Q 2772 3150 2772 3378 
Q 2772 3750 2511 3984 
Q 2250 4219 1831 4219 
Q 1534 4219 1204 4116 
Q 875 4013 500 3803 
L 500 4441 
Q 881 4594 1212 4672 
Q 1544 4750 1819 4750 
Q 2544 4750 2975 4387 
Q 3406 4025 3406 3419 
Q 3406 3131 3298 2873 
Q 3191 2616 2906 2266 
Q 2828 2175 2409 1742 
Q 1991 1309 1228 531 
z
" transform="scale(0.015625)"/>
      </defs>
      <use xlink:href="#DejaVuSans-30"/>
      <use xlink:href="#DejaVuSans-2e" x="63.623047"/>
      <use xlink:href="#DejaVuSans-32" x="95.410156"/>
     </g>
    </g>
   </g>
   <g id="xtick_3">
    <g id="line2d_4">
     <path d="M 152.684699 402.860926 
L 149.183097 406.079632 
" style="fill: none; stroke: #000000; stroke-width: 0.8; stroke-linecap: square"/>
    </g>
    <g id="text_4">
     <!-- 0.4 -->
     <g transform="translate(136.809265 429.000802)scale(0.1 -0.1)">
      <defs>
       <path id="DejaVuSans-34" d="M 2419 4116 
L 825 1625 
L 2419 1625 
L 2419 4116 
z
M 2253 4666 
L 3047 4666 
L 3047 1625 
L 3713 1625 
L 3713 1100 
L 3047 1100 
L 3047 0 
L 2419 0 
L 2419 1100 
L 313 1100 
L 313 1709 
L 2253 4666 
z
" transform="scale(0.015625)"/>
      </defs>
      <use xlink:href="#DejaVuSans-30"/>
      <use xlink:href="#DejaVuSans-2e" x="63.623047"/>
      <use xlink:href="#DejaVuSans-34" x="95.410156"/>
     </g>
    </g>
   </g>
   <g id="xtick_4">
    <g id="line2d_5">
     <path d="M 198.173568 417.835954 
L 194.731188 421.114944 
" style="fill: none; stroke: #000000; stroke-width: 0.8; stroke-linecap: square"/>
    </g>
    <g id="text_5">
     <!-- 0.6 -->
     <g transform="translate(182.316057 444.179073)scale(0.1 -0.1)">
      <defs>
       <path id="DejaVuSans-36" d="M 2113 2584 
Q 1688 2584 1439 2293 
Q 1191 2003 1191 1497 
Q 1191 994 1439 701 
Q 1688 409 2113 409 
Q 2538 409 2786 701 
Q 3034 994 3034 1497 
Q 3034 2003 2786 2293 
Q 2538 2584 2113 2584 
z
M 3366 4563 
L 3366 3988 
Q 3128 4100 2886 4159 
Q 2644 4219 2406 4219 
Q 1781 4219 1451 3797 
Q 1122 3375 1075 2522 
Q 1259 2794 1537 2939 
Q 1816 3084 2150 3084 
Q 2853 3084 3261 2657 
Q 3669 2231 3669 1497 
Q 3669 778 3244 343 
Q 2819 -91 2113 -91 
Q 1303 -91 875 529 
Q 447 1150 447 2328 
Q 447 3434 972 4092 
Q 1497 4750 2381 4750 
Q 2619 4750 2861 4703 
Q 3103 4656 3366 4563 
z
" transform="scale(0.015625)"/>
      </defs>
      <use xlink:href="#DejaVuSans-30"/>
      <use xlink:href="#DejaVuSans-2e" x="63.623047"/>
      <use xlink:href="#DejaVuSans-36" x="95.410156"/>
     </g>
    </g>
   </g>
   <g id="xtick_5">
    <g id="line2d_6">
     <path d="M 244.517569 433.092493 
L 241.13727 436.433477 
" style="fill: none; stroke: #000000; stroke-width: 0.8; stroke-linecap: square"/>
    </g>
    <g id="text_6">
     <!-- 0.8 -->
     <g transform="translate(228.680062 459.643257)scale(0.1 -0.1)">
      <defs>
       <path id="DejaVuSans-38" d="M 2034 2216 
Q 1584 2216 1326 1975 
Q 1069 1734 1069 1313 
Q 1069 891 1326 650 
Q 1584 409 2034 409 
Q 2484 409 2743 651 
Q 3003 894 3003 1313 
Q 3003 1734 2745 1975 
Q 2488 2216 2034 2216 
z
M 1403 2484 
Q 997 2584 770 2862 
Q 544 3141 544 3541 
Q 544 4100 942 4425 
Q 1341 4750 2034 4750 
Q 2731 4750 3128 4425 
Q 3525 4100 3525 3541 
Q 3525 3141 3298 2862 
Q 3072 2584 2669 2484 
Q 3125 2378 3379 2068 
Q 3634 1759 3634 1313 
Q 3634 634 3220 271 
Q 2806 -91 2034 -91 
Q 1263 -91 848 271 
Q 434 634 434 1313 
Q 434 1759 690 2068 
Q 947 2378 1403 2484 
z
M 1172 3481 
Q 1172 3119 1398 2916 
Q 1625 2713 2034 2713 
Q 2441 2713 2670 2916 
Q 2900 3119 2900 3481 
Q 2900 3844 2670 4047 
Q 2441 4250 2034 4250 
Q 1625 4250 1398 4047 
Q 1172 3844 1172 3481 
z
" transform="scale(0.015625)"/>
      </defs>
      <use xlink:href="#DejaVuSans-30"/>
      <use xlink:href="#DejaVuSans-2e" x="63.623047"/>
      <use xlink:href="#DejaVuSans-38" x="95.410156"/>
     </g>
    </g>
   </g>
   <g id="xtick_6">
    <g id="line2d_7">
     <path d="M 291.741044 448.638556 
L 288.425817 452.043309 
" style="fill: none; stroke: #000000; stroke-width: 0.8; stroke-linecap: square"/>
    </g>
    <g id="text_7">
     <!-- 1.0 -->
     <g transform="translate(275.92573 475.40151)scale(0.1 -0.1)">
      <defs>
       <path id="DejaVuSans-31" d="M 794 531 
L 1825 531 
L 1825 4091 
L 703 3866 
L 703 4441 
L 1819 4666 
L 2450 4666 
L 2450 531 
L 3481 531 
L 3481 0 
L 794 0 
L 794 531 
z
" transform="scale(0.015625)"/>
      </defs>
      <use xlink:href="#DejaVuSans-31"/>
      <use xlink:href="#DejaVuSans-2e" x="63.623047"/>
      <use xlink:href="#DejaVuSans-30" x="95.410156"/>
     </g>
    </g>
   </g>
  </g>
  <g id="axis3d_2">
   <g id="line2d_8">
    <path d="M 422.482403 320.579817 
L 295.6105 451.410528 
" style="fill: none; stroke: #000000; stroke-width: 0.8; stroke-linecap: square"/>
   </g>
   <g id="text_8">
    <!-- y -->
    <g transform="translate(383.217297 417.666991)scale(0.1 -0.1)">
     <defs>
      <path id="DejaVuSans-79" d="M 2059 -325 
Q 1816 -950 1584 -1140 
Q 1353 -1331 966 -1331 
L 506 -1331 
L 506 -850 
L 844 -850 
Q 1081 -850 1212 -737 
Q 1344 -625 1503 -206 
L 1606 56 
L 191 3500 
L 800 3500 
L 1894 763 
L 2988 3500 
L 3597 3500 
L 2059 -325 
z
" transform="scale(0.015625)"/>
     </defs>
     <use xlink:href="#DejaVuSans-79"/>
    </g>
   </g>
   <g id="Line3DCollection_2">
    <path d="M 50.990036 130.925071 
L 61.460935 370.692158 
L 298.360783 448.574427 
" style="fill: none; stroke: #b0b0b0; stroke-width: 0.8"/>
    <path d="M 81.147787 109.156685 
L 89.842683 346.3923 
L 324.292147 421.833922 
" style="fill: none; stroke: #b0b0b0; stroke-width: 0.8"/>
    <path d="M 110.3387 88.08618 
L 117.362505 322.830407 
L 349.398321 395.944356 
" style="fill: none; stroke: #b0b0b0; stroke-width: 0.8"/>
    <path d="M 138.608535 67.680524 
L 144.059076 299.973363 
L 373.718077 370.865746 
" style="fill: none; stroke: #b0b0b0; stroke-width: 0.8"/>
    <path d="M 166.000211 47.90874 
L 169.968793 277.790006 
L 397.287796 346.560576 
" style="fill: none; stroke: #b0b0b0; stroke-width: 0.8"/>
    <path d="M 192.55402 28.741742 
L 195.125939 256.250986 
L 420.141649 322.993611 
" style="fill: none; stroke: #b0b0b0; stroke-width: 0.8"/>
   </g>
   <g id="xtick_7">
    <g id="line2d_9">
     <path d="M 296.372714 447.920837 
L 302.341641 449.883158 
" style="fill: none; stroke: #000000; stroke-width: 0.8; stroke-linecap: square"/>
    </g>
    <g id="text_9">
     <!-- 0.0 -->
     <g transform="translate(302.180911 471.28892)scale(0.1 -0.1)">
      <use xlink:href="#DejaVuSans-30"/>
      <use xlink:href="#DejaVuSans-2e" x="63.623047"/>
      <use xlink:href="#DejaVuSans-30" x="95.410156"/>
     </g>
    </g>
   </g>
   <g id="xtick_8">
    <g id="line2d_10">
     <path d="M 322.326127 421.201293 
L 328.228778 423.100659 
" style="fill: none; stroke: #000000; stroke-width: 0.8; stroke-linecap: square"/>
    </g>
    <g id="text_10">
     <!-- 0.2 -->
     <g transform="translate(327.912663 444.313748)scale(0.1 -0.1)">
      <use xlink:href="#DejaVuSans-30"/>
      <use xlink:href="#DejaVuSans-2e" x="63.623047"/>
      <use xlink:href="#DejaVuSans-32" x="95.410156"/>
     </g>
    </g>
   </g>
   <g id="xtick_9">
    <g id="line2d_11">
     <path d="M 347.453964 395.331694 
L 353.291502 397.171088 
" style="fill: none; stroke: #000000; stroke-width: 0.8; stroke-linecap: square"/>
    </g>
    <g id="text_11">
     <!-- 0.4 -->
     <g transform="translate(352.825867 418.196676)scale(0.1 -0.1)">
      <use xlink:href="#DejaVuSans-30"/>
      <use xlink:href="#DejaVuSans-2e" x="63.623047"/>
      <use xlink:href="#DejaVuSans-34" x="95.410156"/>
     </g>
    </g>
   </g>
   <g id="xtick_10">
    <g id="line2d_12">
     <path d="M 371.795002 370.27212 
L 377.568578 372.054339 
" style="fill: none; stroke: #000000; stroke-width: 0.8; stroke-linecap: square"/>
    </g>
    <g id="text_12">
     <!-- 0.6 -->
     <g transform="translate(376.958971 392.897401)scale(0.1 -0.1)">
      <use xlink:href="#DejaVuSans-30"/>
      <use xlink:href="#DejaVuSans-2e" x="63.623047"/>
      <use xlink:href="#DejaVuSans-36" x="95.410156"/>
     </g>
    </g>
   </g>
   <g id="xtick_11">
    <g id="line2d_13">
     <path d="M 395.385625 345.985114 
L 401.096376 347.712782 
" style="fill: none; stroke: #000000; stroke-width: 0.8; stroke-linecap: square"/>
    </g>
    <g id="text_13">
     <!-- 0.8 -->
     <g transform="translate(400.34805 368.378105)scale(0.1 -0.1)">
      <use xlink:href="#DejaVuSans-30"/>
      <use xlink:href="#DejaVuSans-2e" x="63.623047"/>
      <use xlink:href="#DejaVuSans-38" x="95.410156"/>
     </g>
    </g>
   </g>
   <g id="xtick_12">
    <g id="line2d_14">
     <path d="M 418.260007 322.435491 
L 423.909059 324.111074 
" style="fill: none; stroke: #000000; stroke-width: 0.8; stroke-linecap: square"/>
    </g>
    <g id="text_14">
     <!-- 1.0 -->
     <g transform="translate(423.02699 344.603263)scale(0.1 -0.1)">
      <use xlink:href="#DejaVuSans-31"/>
      <use xlink:href="#DejaVuSans-2e" x="63.623047"/>
      <use xlink:href="#DejaVuSans-30" x="95.410156"/>
     </g>
    </g>
   </g>
  </g>
  <g id="axis3d_3">
   <g id="line2d_15">
    <path d="M 422.482403 320.579817 
L 432.425666 86.075455 
" style="fill: none; stroke: #000000; stroke-width: 0.8; stroke-linecap: square"/>
   </g>
   <g id="text_15">
    <!-- z -->
    <g transform="translate(462.231963 204.227961)scale(0.1 -0.1)">
     <defs>
      <path id="DejaVuSans-7a" d="M 353 3500 
L 3084 3500 
L 3084 2975 
L 922 459 
L 3084 459 
L 3084 0 
L 275 0 
L 275 525 
L 2438 3041 
L 353 3041 
L 353 3500 
z
" transform="scale(0.015625)"/>
     </defs>
     <use xlink:href="#DejaVuSans-7a"/>
    </g>
   </g>
   <g id="Line3DCollection_3">
    <path d="M 422.670998 316.131963 
L 197.658295 249.722481 
L 58.251448 368.723086 
" style="fill: none; stroke: #b0b0b0; stroke-width: 0.8"/>
    <path d="M 424.501938 272.950613 
L 197.20979 207.795442 
L 56.291048 324.58969 
" style="fill: none; stroke: #b0b0b0; stroke-width: 0.8"/>
    <path d="M 426.370697 228.877329 
L 196.752433 165.040924 
L 54.288726 279.512509 
" style="fill: none; stroke: #b0b0b0; stroke-width: 0.8"/>
    <path d="M 428.27846 183.884188 
L 196.28596 121.434186 
L 52.243122 233.460944 
" style="fill: none; stroke: #b0b0b0; stroke-width: 0.8"/>
    <path d="M 430.226459 137.942086 
L 195.810094 76.94949 
L 50.152817 186.403054 
" style="fill: none; stroke: #b0b0b0; stroke-width: 0.8"/>
    <path d="M 432.215982 91.020684 
L 195.324551 31.560054 
L 48.01633 138.30549 
" style="fill: none; stroke: #b0b0b0; stroke-width: 0.8"/>
   </g>
   <g id="xtick_13">
    <g id="line2d_16">
     <path d="M 420.789424 315.576642 
L 426.438269 317.243823 
" style="fill: none; stroke: #000000; stroke-width: 0.8; stroke-linecap: square"/>
    </g>
    <g id="text_16">
     <!-- 0.0 -->
     <g transform="translate(431.590028 321.295725)scale(0.1 -0.1)">
      <use xlink:href="#DejaVuSans-30"/>
      <use xlink:href="#DejaVuSans-2e" x="63.623047"/>
      <use xlink:href="#DejaVuSans-30" x="95.410156"/>
     </g>
    </g>
   </g>
   <g id="xtick_14">
    <g id="line2d_17">
     <path d="M 422.600463 272.40554 
L 428.3091 274.041968 
" style="fill: none; stroke: #000000; stroke-width: 0.8; stroke-linecap: square"/>
    </g>
    <g id="text_17">
     <!-- 0.2 -->
     <g transform="translate(433.590184 278.159333)scale(0.1 -0.1)">
      <use xlink:href="#DejaVuSans-30"/>
      <use xlink:href="#DejaVuSans-2e" x="63.623047"/>
      <use xlink:href="#DejaVuSans-32" x="95.410156"/>
     </g>
    </g>
   </g>
   <g id="xtick_15">
    <g id="line2d_18">
     <path d="M 424.448895 228.343047 
L 430.218602 229.947089 
" style="fill: none; stroke: #000000; stroke-width: 0.8; stroke-linecap: square"/>
    </g>
    <g id="text_18">
     <!-- 0.4 -->
     <g transform="translate(435.631587 234.133392)scale(0.1 -0.1)">
      <use xlink:href="#DejaVuSans-30"/>
      <use xlink:href="#DejaVuSans-2e" x="63.623047"/>
      <use xlink:href="#DejaVuSans-34" x="95.410156"/>
     </g>
    </g>
   </g>
   <g id="xtick_16">
    <g id="line2d_19">
     <path d="M 426.335892 183.361268 
L 432.167987 184.931209 
" style="fill: none; stroke: #000000; stroke-width: 0.8; stroke-linecap: square"/>
    </g>
    <g id="text_19">
     <!-- 0.6 -->
     <g transform="translate(437.715526 189.190096)scale(0.1 -0.1)">
      <use xlink:href="#DejaVuSans-30"/>
      <use xlink:href="#DejaVuSans-2e" x="63.623047"/>
      <use xlink:href="#DejaVuSans-36" x="95.410156"/>
     </g>
    </g>
   </g>
   <g id="xtick_17">
    <g id="line2d_20">
     <path d="M 428.262673 137.431131 
L 434.158519 138.965166 
" style="fill: none; stroke: #000000; stroke-width: 0.8; stroke-linecap: square"/>
    </g>
    <g id="text_20">
     <!-- 0.8 -->
     <g transform="translate(439.843345 143.300474)scale(0.1 -0.1)">
      <use xlink:href="#DejaVuSans-30"/>
      <use xlink:href="#DejaVuSans-2e" x="63.623047"/>
      <use xlink:href="#DejaVuSans-38" x="95.410156"/>
     </g>
    </g>
   </g>
   <g id="xtick_18">
    <g id="line2d_21">
     <path d="M 430.230509 90.522323 
L 436.191514 92.018557 
" style="fill: none; stroke: #000000; stroke-width: 0.8; stroke-linecap: square"/>
    </g>
    <g id="text_21">
     <!-- 1.0 -->
     <g transform="translate(442.016443 96.434317)scale(0.1 -0.1)">
      <use xlink:href="#DejaVuSans-31"/>
      <use xlink:href="#DejaVuSans-2e" x="63.623047"/>
      <use xlink:href="#DejaVuSans-30" x="95.410156"/>
     </g>
    </g>
   </g>
  </g>
  <g id="axes_1">
   <g id="line2d_22">
    <path d="M 199.388898 253.201071 
L 306.751204 176.3892 
" clip-path="url(#pe759a905c1)" style="fill: none; stroke: #2e3d7c; stroke-width: 1.5; stroke-linecap: square"/>
   </g>
   <g id="line2d_23">
    <path d="M 199.388898 253.201071 
L 198.291178 146.650072 
" clip-path="url(#pe759a905c1)" style="fill: none; stroke: #2e3d7c; stroke-width: 1.5; stroke-linecap: square"/>
   </g>
   <g id="line2d_24">
    <path d="M 199.388898 253.201071 
L 132.309763 199.002784 
" clip-path="url(#pe759a905c1)" style="fill: none; stroke: #2e3d7c; stroke-width: 1.5; stroke-linecap: square"/>
   </g>
   <g id="line2d_25">
    <path d="M 306.751204 176.3892 
L 198.291178 146.650072 
" clip-path="url(#pe759a905c1)" style="fill: none; stroke: #2e3d7c; stroke-width: 1.5; stroke-linecap: square"/>
   </g>
   <g id="line2d_26">
    <path d="M 306.751204 176.3892 
L 132.309763 199.002784 
" clip-path="url(#pe759a905c1)" style="fill: none; stroke: #2e3d7c; stroke-width: 1.5; stroke-linecap: square"/>
   </g>
   <g id="line2d_27">
    <path d="M 198.291178 146.650072 
L 132.309763 199.002784 
" clip-path="url(#pe759a905c1)" style="fill: none; stroke: #2e3d7c; stroke-width: 1.5; stroke-linecap: square"/>
   </g>
   <g id="line2d_28">
    <path d="M 65.786564 367.635657 
L 243.556905 341.980772 
" clip-path="url(#pe759a905c1)" style="fill: none; stroke: #2e3d7c; stroke-width: 1.5; stroke-linecap: square"/>
   </g>
   <g id="line2d_29">
    <path d="M 65.786564 367.635657 
L 135.109409 308.258468 
" clip-path="url(#pe759a905c1)" style="fill: none; stroke: #2e3d7c; stroke-width: 1.5; stroke-linecap: square"/>
   </g>
   <g id="line2d_30">
    <path d="M 65.786564 367.635657 
L 132.309763 199.002784 
" clip-path="url(#pe759a905c1)" style="fill: none; stroke: #2e3d7c; stroke-width: 1.5; stroke-linecap: square"/>
   </g>
   <g id="line2d_31">
    <path d="M 243.556905 341.980772 
L 135.109409 308.258468 
" clip-path="url(#pe759a905c1)" style="fill: none; stroke: #2e3d7c; stroke-width: 1.5; stroke-linecap: square"/>
   </g>
   <g id="line2d_32">
    <path d="M 243.556905 341.980772 
L 132.309763 199.002784 
" clip-path="url(#pe759a905c1)" style="fill: none; stroke: #2e3d7c; stroke-width: 1.5; stroke-linecap: square"/>
   </g>
   <g id="line2d_33">
    <path d="M 135.109409 308.258468 
L 132.309763 199.002784 
" clip-path="url(#pe759a905c1)" style="fill: none; stroke: #2e3d7c; stroke-width: 1.5; stroke-linecap: square"/>
   </g>
   <g id="line2d_34">
    <path d="M 199.388898 253.201071 
L 306.751204 176.3892 
" clip-path="url(#pe759a905c1)" style="fill: none; stroke: #2e3d7c; stroke-width: 1.5; stroke-linecap: square"/>
   </g>
   <g id="line2d_35">
    <path d="M 199.388898 253.201071 
L 243.556905 341.980772 
" clip-path="url(#pe759a905c1)" style="fill: none; stroke: #2e3d7c; stroke-width: 1.5; stroke-linecap: square"/>
   </g>
   <g id="line2d_36">
    <path d="M 199.388898 253.201071 
L 305.185831 284.489283 
" clip-path="url(#pe759a905c1)" style="fill: none; stroke: #2e3d7c; stroke-width: 1.5; stroke-linecap: square"/>
   </g>
   <g id="line2d_37">
    <path d="M 306.751204 176.3892 
L 243.556905 341.980772 
" clip-path="url(#pe759a905c1)" style="fill: none; stroke: #2e3d7c; stroke-width: 1.5; stroke-linecap: square"/>
   </g>
   <g id="line2d_38">
    <path d="M 306.751204 176.3892 
L 305.185831 284.489283 
" clip-path="url(#pe759a905c1)" style="fill: none; stroke: #2e3d7c; stroke-width: 1.5; stroke-linecap: square"/>
   </g>
   <g id="line2d_39">
    <path d="M 243.556905 341.980772 
L 305.185831 284.489283 
" clip-path="url(#pe759a905c1)" style="fill: none; stroke: #2e3d7c; stroke-width: 1.5; stroke-linecap: square"/>
   </g>
   <g id="line2d_40">
    <path d="M 243.556905 341.980772 
L 199.388898 253.201071 
" clip-path="url(#pe759a905c1)" style="fill: none; stroke: #2e3d7c; stroke-width: 1.5; stroke-linecap: square"/>
   </g>
   <g id="line2d_41">
    <path d="M 243.556905 341.980772 
L 135.109409 308.258468 
" clip-path="url(#pe759a905c1)" style="fill: none; stroke: #2e3d7c; stroke-width: 1.5; stroke-linecap: square"/>
   </g>
   <g id="line2d_42">
    <path d="M 243.556905 341.980772 
L 132.309763 199.002784 
" clip-path="url(#pe759a905c1)" style="fill: none; stroke: #2e3d7c; stroke-width: 1.5; stroke-linecap: square"/>
   </g>
   <g id="line2d_43">
    <path d="M 199.388898 253.201071 
L 135.109409 308.258468 
" clip-path="url(#pe759a905c1)" style="fill: none; stroke: #2e3d7c; stroke-width: 1.5; stroke-linecap: square"/>
   </g>
   <g id="line2d_44">
    <path d="M 199.388898 253.201071 
L 132.309763 199.002784 
" clip-path="url(#pe759a905c1)" style="fill: none; stroke: #2e3d7c; stroke-width: 1.5; stroke-linecap: square"/>
   </g>
   <g id="line2d_45">
    <path d="M 135.109409 308.258468 
L 132.309763 199.002784 
" clip-path="url(#pe759a905c1)" style="fill: none; stroke: #2e3d7c; stroke-width: 1.5; stroke-linecap: square"/>
   </g>
   <g id="line2d_46">
    <path d="M 197.137504 34.667806 
L 132.309763 199.002784 
" clip-path="url(#pe759a905c1)" style="fill: none; stroke: #2e3d7c; stroke-width: 1.5; stroke-linecap: square"/>
   </g>
   <g id="line2d_47">
    <path d="M 197.137504 34.667806 
L 198.291178 146.650072 
" clip-path="url(#pe759a905c1)" style="fill: none; stroke: #2e3d7c; stroke-width: 1.5; stroke-linecap: square"/>
   </g>
   <g id="line2d_48">
    <path d="M 197.137504 34.667806 
L 306.751204 176.3892 
" clip-path="url(#pe759a905c1)" style="fill: none; stroke: #2e3d7c; stroke-width: 1.5; stroke-linecap: square"/>
   </g>
   <g id="line2d_49">
    <path d="M 132.309763 199.002784 
L 198.291178 146.650072 
" clip-path="url(#pe759a905c1)" style="fill: none; stroke: #2e3d7c; stroke-width: 1.5; stroke-linecap: square"/>
   </g>
   <g id="line2d_50">
    <path d="M 132.309763 199.002784 
L 306.751204 176.3892 
" clip-path="url(#pe759a905c1)" style="fill: none; stroke: #2e3d7c; stroke-width: 1.5; stroke-linecap: square"/>
   </g>
   <g id="line2d_51">
    <path d="M 198.291178 146.650072 
L 306.751204 176.3892 
" clip-path="url(#pe759a905c1)" style="fill: none; stroke: #2e3d7c; stroke-width: 1.5; stroke-linecap: square"/>
   </g>
   <g id="line2d_52">
    <path d="M 415.621413 317.149322 
L 305.185831 284.489283 
" clip-path="url(#pe759a905c1)" style="fill: none; stroke: #2e3d7c; stroke-width: 1.5; stroke-linecap: square"/>
   </g>
   <g id="line2d_53">
    <path d="M 415.621413 317.149322 
L 243.556905 341.980772 
" clip-path="url(#pe759a905c1)" style="fill: none; stroke: #2e3d7c; stroke-width: 1.5; stroke-linecap: square"/>
   </g>
   <g id="line2d_54">
    <path d="M 415.621413 317.149322 
L 306.751204 176.3892 
" clip-path="url(#pe759a905c1)" style="fill: none; stroke: #2e3d7c; stroke-width: 1.5; stroke-linecap: square"/>
   </g>
   <g id="line2d_55">
    <path d="M 305.185831 284.489283 
L 243.556905 341.980772 
" clip-path="url(#pe759a905c1)" style="fill: none; stroke: #2e3d7c; stroke-width: 1.5; stroke-linecap: square"/>
   </g>
   <g id="line2d_56">
    <path d="M 305.185831 284.489283 
L 306.751204 176.3892 
" clip-path="url(#pe759a905c1)" style="fill: none; stroke: #2e3d7c; stroke-width: 1.5; stroke-linecap: square"/>
   </g>
   <g id="line2d_57">
    <path d="M 243.556905 341.980772 
L 306.751204 176.3892 
" clip-path="url(#pe759a905c1)" style="fill: none; stroke: #2e3d7c; stroke-width: 1.5; stroke-linecap: square"/>
   </g>
   <g id="line2d_58">
    <path d="M 306.751204 176.3892 
L 199.388898 253.201071 
" clip-path="url(#pe759a905c1)" style="fill: none; stroke: #2e3d7c; stroke-width: 1.5; stroke-linecap: square"/>
   </g>
   <g id="line2d_59">
    <path d="M 306.751204 176.3892 
L 243.556905 341.980772 
" clip-path="url(#pe759a905c1)" style="fill: none; stroke: #2e3d7c; stroke-width: 1.5; stroke-linecap: square"/>
   </g>
   <g id="line2d_60">
    <path d="M 306.751204 176.3892 
L 132.309763 199.002784 
" clip-path="url(#pe759a905c1)" style="fill: none; stroke: #2e3d7c; stroke-width: 1.5; stroke-linecap: square"/>
   </g>
   <g id="line2d_61">
    <path d="M 199.388898 253.201071 
L 243.556905 341.980772 
" clip-path="url(#pe759a905c1)" style="fill: none; stroke: #2e3d7c; stroke-width: 1.5; stroke-linecap: square"/>
   </g>
   <g id="line2d_62">
    <path d="M 199.388898 253.201071 
L 132.309763 199.002784 
" clip-path="url(#pe759a905c1)" style="fill: none; stroke: #2e3d7c; stroke-width: 1.5; stroke-linecap: square"/>
   </g>
   <g id="line2d_63">
    <path d="M 243.556905 341.980772 
L 132.309763 199.002784 
" clip-path="url(#pe759a905c1)" style="fill: none; stroke: #2e3d7c; stroke-width: 1.5; stroke-linecap: square"/>
   </g>
   <g id="text_22">
    <!-- 0 -->
    <g style="fill: #0000ff" transform="translate(206.135747 196.988069)scale(0.1 -0.1)">
     <use xlink:href="#DejaVuSans-30"/>
    </g>
   </g>
   <g id="text_23">
    <!-- 1 -->
    <g style="fill: #0000ff" transform="translate(141.288583 306.833467)scale(0.1 -0.1)">
     <use xlink:href="#DejaVuSans-31"/>
    </g>
   </g>
   <g id="text_24">
    <!-- 2 -->
    <g style="fill: #0000ff" transform="translate(260.110937 266.532425)scale(0.1 -0.1)">
     <use xlink:href="#DejaVuSans-32"/>
    </g>
   </g>
   <g id="text_25">
    <!-- 3 -->
    <g style="fill: #0000ff" transform="translate(174.541474 278.278808)scale(0.1 -0.1)">
     <defs>
      <path id="DejaVuSans-33" d="M 2597 2516 
Q 3050 2419 3304 2112 
Q 3559 1806 3559 1356 
Q 3559 666 3084 287 
Q 2609 -91 1734 -91 
Q 1441 -91 1130 -33 
Q 819 25 488 141 
L 488 750 
Q 750 597 1062 519 
Q 1375 441 1716 441 
Q 2309 441 2620 675 
Q 2931 909 2931 1356 
Q 2931 1769 2642 2001 
Q 2353 2234 1838 2234 
L 1294 2234 
L 1294 2753 
L 1863 2753 
Q 2328 2753 2575 2939 
Q 2822 3125 2822 3475 
Q 2822 3834 2567 4026 
Q 2313 4219 1838 4219 
Q 1578 4219 1281 4162 
Q 984 4106 628 3988 
L 628 4550 
Q 988 4650 1302 4700 
Q 1616 4750 1894 4750 
Q 2613 4750 3031 4423 
Q 3450 4097 3450 3541 
Q 3450 3153 3228 2886 
Q 3006 2619 2597 2516 
z
" transform="scale(0.015625)"/>
     </defs>
     <use xlink:href="#DejaVuSans-33"/>
    </g>
   </g>
   <g id="text_26">
    <!-- 4 -->
    <g style="fill: #0000ff" transform="translate(205.701171 141.826073)scale(0.1 -0.1)">
     <use xlink:href="#DejaVuSans-34"/>
    </g>
   </g>
   <g id="text_27">
    <!-- 5 -->
    <g style="fill: #0000ff" transform="translate(314.835557 282.625381)scale(0.1 -0.1)">
     <defs>
      <path id="DejaVuSans-35" d="M 691 4666 
L 3169 4666 
L 3169 4134 
L 1269 4134 
L 1269 2991 
Q 1406 3038 1543 3061 
Q 1681 3084 1819 3084 
Q 2600 3084 3056 2656 
Q 3513 2228 3513 1497 
Q 3513 744 3044 326 
Q 2575 -91 1722 -91 
Q 1428 -91 1123 -41 
Q 819 9 494 109 
L 494 744 
Q 775 591 1075 516 
Q 1375 441 1709 441 
Q 2250 441 2565 725 
Q 2881 1009 2881 1497 
Q 2881 1984 2565 2268 
Q 2250 2553 1709 2553 
Q 1456 2553 1204 2497 
Q 953 2441 691 2322 
L 691 4666 
z
" transform="scale(0.015625)"/>
     </defs>
     <use xlink:href="#DejaVuSans-35"/>
    </g>
   </g>
   <g id="text_28">
    <!-- 6 -->
    <g style="fill: #0000ff" transform="translate(217.351962 245.388289)scale(0.1 -0.1)">
     <use xlink:href="#DejaVuSans-36"/>
    </g>
   </g>
   <g id="text_29">
    <g id="patch_6">
     <path d="M 199.388898 261.040134 
C 201.467842 261.040134 203.461917 260.214161 204.931952 258.744125 
C 206.401987 257.27409 207.22796 255.280015 207.22796 253.201071 
C 207.22796 251.122128 206.401987 249.128052 204.931952 247.658017 
C 203.461917 246.187982 201.467842 245.362009 199.388898 245.362009 
C 197.309954 245.362009 195.315879 246.187982 193.845844 247.658017 
C 192.375808 249.128052 191.549835 251.122128 191.549835 253.201071 
C 191.549835 255.280015 192.375808 257.27409 193.845844 258.744125 
C 195.315879 260.214161 197.309954 261.040134 199.388898 261.040134 
z
" style="fill: #ffffff; opacity: 0.8; stroke: #000000; stroke-linejoin: miter"/>
    </g>
    <!-- 0 -->
    <g style="fill: #ff0000" transform="translate(196.207648 255.960446)scale(0.1 -0.1)">
     <use xlink:href="#DejaVuSans-30"/>
    </g>
   </g>
   <g id="text_30">
    <g id="patch_7">
     <path d="M 65.786564 375.47472 
C 67.865508 375.47472 69.859583 374.648747 71.329619 373.178711 
C 72.799654 371.708676 73.625627 369.714601 73.625627 367.635657 
C 73.625627 365.556713 72.799654 363.562638 71.329619 362.092603 
C 69.859583 360.622568 67.865508 359.796595 65.786564 359.796595 
C 63.707621 359.796595 61.713545 360.622568 60.24351 362.092603 
C 58.773475 363.562638 57.947502 365.556713 57.947502 367.635657 
C 57.947502 369.714601 58.773475 371.708676 60.24351 373.178711 
C 61.713545 374.648747 63.707621 375.47472 65.786564 375.47472 
z
" style="fill: #ffffff; opacity: 0.8; stroke: #000000; stroke-linejoin: miter"/>
    </g>
    <!-- 1 -->
    <g style="fill: #ff0000" transform="translate(62.605314 370.395032)scale(0.1 -0.1)">
     <use xlink:href="#DejaVuSans-31"/>
    </g>
   </g>
   <g id="text_31">
    <g id="patch_8">
     <path d="M 415.621413 324.988384 
C 417.700357 324.988384 419.694432 324.162411 421.164467 322.692376 
C 422.634503 321.222341 423.460476 319.228266 423.460476 317.149322 
C 423.460476 315.070378 422.634503 313.076303 421.164467 311.606268 
C 419.694432 310.136232 417.700357 309.310259 415.621413 309.310259 
C 413.542469 309.310259 411.548394 310.136232 410.078359 311.606268 
C 408.608324 313.076303 407.782351 315.070378 407.782351 317.149322 
C 407.782351 319.228266 408.608324 321.222341 410.078359 322.692376 
C 411.548394 324.162411 413.542469 324.988384 415.621413 324.988384 
z
" style="fill: #ffffff; opacity: 0.8; stroke: #000000; stroke-linejoin: miter"/>
    </g>
    <!-- 2 -->
    <g style="fill: #ff0000" transform="translate(412.440163 319.908697)scale(0.1 -0.1)">
     <use xlink:href="#DejaVuSans-32"/>
    </g>
   </g>
   <g id="text_32">
    <g id="patch_9">
     <path d="M 197.137504 42.506869 
C 199.216448 42.506869 201.210523 41.680896 202.680559 40.210861 
C 204.150594 38.740826 204.976567 36.74675 204.976567 34.667806 
C 204.976567 32.588863 204.150594 30.594787 202.680559 29.124752 
C 201.210523 27.654717 199.216448 26.828744 197.137504 26.828744 
C 195.058561 26.828744 193.064485 27.654717 191.59445 29.124752 
C 190.124415 30.594787 189.298442 32.588863 189.298442 34.667806 
C 189.298442 36.74675 190.124415 38.740826 191.59445 40.210861 
C 193.064485 41.680896 195.058561 42.506869 197.137504 42.506869 
z
" style="fill: #ffffff; opacity: 0.8; stroke: #000000; stroke-linejoin: miter"/>
    </g>
    <!-- 3 -->
    <g style="fill: #ff0000" transform="translate(193.956254 37.427181)scale(0.1 -0.1)">
     <use xlink:href="#DejaVuSans-33"/>
    </g>
   </g>
   <g id="text_33">
    <g id="patch_10">
     <path d="M 305.185831 292.328346 
C 307.264775 292.328346 309.25885 291.502373 310.728885 290.032338 
C 312.19892 288.562302 313.024893 286.568227 313.024893 284.489283 
C 313.024893 282.41034 312.19892 280.416264 310.728885 278.946229 
C 309.25885 277.476194 307.264775 276.650221 305.185831 276.650221 
C 303.106887 276.650221 301.112812 277.476194 299.642777 278.946229 
C 298.172741 280.416264 297.346768 282.41034 297.346768 284.489283 
C 297.346768 286.568227 298.172741 288.562302 299.642777 290.032338 
C 301.112812 291.502373 303.106887 292.328346 305.185831 292.328346 
z
" style="fill: #ffffff; opacity: 0.8; stroke: #000000; stroke-linejoin: miter"/>
    </g>
    <!-- 4 -->
    <g style="fill: #ff0000" transform="translate(302.004581 287.248658)scale(0.1 -0.1)">
     <use xlink:href="#DejaVuSans-34"/>
    </g>
   </g>
   <g id="text_34">
    <g id="patch_11">
     <path d="M 243.556905 349.819834 
C 245.635849 349.819834 247.629924 348.993861 249.099959 347.523826 
C 250.569994 346.053791 251.395967 344.059715 251.395967 341.980772 
C 251.395967 339.901828 250.569994 337.907753 249.099959 336.437717 
C 247.629924 334.967682 245.635849 334.141709 243.556905 334.141709 
C 241.477961 334.141709 239.483886 334.967682 238.013851 336.437717 
C 236.543815 337.907753 235.717842 339.901828 235.717842 341.980772 
C 235.717842 344.059715 236.543815 346.053791 238.013851 347.523826 
C 239.483886 348.993861 241.477961 349.819834 243.556905 349.819834 
z
" style="fill: #ffffff; opacity: 0.8; stroke: #000000; stroke-linejoin: miter"/>
    </g>
    <!-- 5 -->
    <g style="fill: #ff0000" transform="translate(240.375655 344.740147)scale(0.1 -0.1)">
     <use xlink:href="#DejaVuSans-35"/>
    </g>
   </g>
   <g id="text_35">
    <g id="patch_12">
     <path d="M 135.109409 316.097531 
C 137.188352 316.097531 139.182428 315.271558 140.652463 313.801523 
C 142.122498 312.331488 142.948471 310.337412 142.948471 308.258468 
C 142.948471 306.179525 142.122498 304.185449 140.652463 302.715414 
C 139.182428 301.245379 137.188352 300.419406 135.109409 300.419406 
C 133.030465 300.419406 131.036389 301.245379 129.566354 302.715414 
C 128.096319 304.185449 127.270346 306.179525 127.270346 308.258468 
C 127.270346 310.337412 128.096319 312.331488 129.566354 313.801523 
C 131.036389 315.271558 133.030465 316.097531 135.109409 316.097531 
z
" style="fill: #ffffff; opacity: 0.8; stroke: #000000; stroke-linejoin: miter"/>
    </g>
    <!-- 6 -->
    <g style="fill: #ff0000" transform="translate(131.928159 311.017843)scale(0.1 -0.1)">
     <use xlink:href="#DejaVuSans-36"/>
    </g>
   </g>
   <g id="text_36">
    <g id="patch_13">
     <path d="M 132.309763 206.841847 
C 134.388706 206.841847 136.382782 206.015873 137.852817 204.545838 
C 139.322852 203.075803 140.148825 201.081728 140.148825 199.002784 
C 140.148825 196.92384 139.322852 194.929765 137.852817 193.45973 
C 136.382782 191.989695 134.388706 191.163722 132.309763 191.163722 
C 130.230819 191.163722 128.236744 191.989695 126.766709 193.45973 
C 125.296673 194.929765 124.4707 196.92384 124.4707 199.002784 
C 124.4707 201.081728 125.296673 203.075803 126.766709 204.545838 
C 128.236744 206.015873 130.230819 206.841847 132.309763 206.841847 
z
" style="fill: #ffffff; opacity: 0.8; stroke: #000000; stroke-linejoin: miter"/>
    </g>
    <!-- 7 -->
    <g style="fill: #ff0000" transform="translate(129.128513 201.762159)scale(0.1 -0.1)">
     <defs>
      <path id="DejaVuSans-37" d="M 525 4666 
L 3525 4666 
L 3525 4397 
L 1831 0 
L 1172 0 
L 2766 4134 
L 525 4134 
L 525 4666 
z
" transform="scale(0.015625)"/>
     </defs>
     <use xlink:href="#DejaVuSans-37"/>
    </g>
   </g>
   <g id="text_37">
    <g id="patch_14">
     <path d="M 198.291178 154.489135 
C 200.370122 154.489135 202.364197 153.663162 203.834233 152.193126 
C 205.304268 150.723091 206.130241 148.729016 206.130241 146.650072 
C 206.130241 144.571129 205.304268 142.577053 203.834233 141.107018 
C 202.364197 139.636983 200.370122 138.81101 198.291178 138.81101 
C 196.212235 138.81101 194.218159 139.636983 192.748124 141.107018 
C 191.278089 142.577053 190.452116 144.571129 190.452116 146.650072 
C 190.452116 148.729016 191.278089 150.723091 192.748124 152.193126 
C 194.218159 153.663162 196.212235 154.489135 198.291178 154.489135 
z
" style="fill: #ffffff; opacity: 0.8; stroke: #000000; stroke-linejoin: miter"/>
    </g>
    <!-- 8 -->
    <g style="fill: #ff0000" transform="translate(195.109928 149.409447)scale(0.1 -0.1)">
     <use xlink:href="#DejaVuSans-38"/>
    </g>
   </g>
   <g id="text_38">
    <g id="patch_15">
     <path d="M 306.751204 184.228262 
C 308.830147 184.228262 310.824223 183.402289 312.294258 181.932254 
C 313.764293 180.462219 314.590266 178.468143 314.590266 176.3892 
C 314.590266 174.310256 313.764293 172.31618 312.294258 170.846145 
C 310.824223 169.37611 308.830147 168.550137 306.751204 168.550137 
C 304.67226 168.550137 302.678185 169.37611 301.208149 170.846145 
C 299.738114 172.31618 298.912141 174.310256 298.912141 176.3892 
C 298.912141 178.468143 299.738114 180.462219 301.208149 181.932254 
C 302.678185 183.402289 304.67226 184.228262 306.751204 184.228262 
z
" style="fill: #ffffff; opacity: 0.8; stroke: #000000; stroke-linejoin: miter"/>
    </g>
    <!-- 9 -->
    <g style="fill: #ff0000" transform="translate(303.569954 179.148575)scale(0.1 -0.1)">
     <defs>
      <path id="DejaVuSans-39" d="M 703 97 
L 703 672 
Q 941 559 1184 500 
Q 1428 441 1663 441 
Q 2288 441 2617 861 
Q 2947 1281 2994 2138 
Q 2813 1869 2534 1725 
Q 2256 1581 1919 1581 
Q 1219 1581 811 2004 
Q 403 2428 403 3163 
Q 403 3881 828 4315 
Q 1253 4750 1959 4750 
Q 2769 4750 3195 4129 
Q 3622 3509 3622 2328 
Q 3622 1225 3098 567 
Q 2575 -91 1691 -91 
Q 1453 -91 1209 -44 
Q 966 3 703 97 
z
M 1959 2075 
Q 2384 2075 2632 2365 
Q 2881 2656 2881 3163 
Q 2881 3666 2632 3958 
Q 2384 4250 1959 4250 
Q 1534 4250 1286 3958 
Q 1038 3666 1038 3163 
Q 1038 2656 1286 2365 
Q 1534 2075 1959 2075 
z
" transform="scale(0.015625)"/>
     </defs>
     <use xlink:href="#DejaVuSans-39"/>
    </g>
   </g>
   <g id="text_39">
    <!-- [1] -->
    <g transform="translate(197.188054 226.961815)scale(0.1 -0.1)">
     <defs>
      <path id="DejaVuSans-5b" d="M 550 4863 
L 1875 4863 
L 1875 4416 
L 1125 4416 
L 1125 -397 
L 1875 -397 
L 1875 -844 
L 550 -844 
L 550 4863 
z
" transform="scale(0.015625)"/>
      <path id="DejaVuSans-5d" d="M 1947 4863 
L 1947 -844 
L 622 -844 
L 622 -397 
L 1369 -397 
L 1369 4416 
L 622 4416 
L 622 4863 
L 1947 4863 
z
" transform="scale(0.015625)"/>
     </defs>
     <use xlink:href="#DejaVuSans-5b"/>
     <use xlink:href="#DejaVuSans-31" x="39.013672"/>
     <use xlink:href="#DejaVuSans-5d" x="102.636719"/>
    </g>
   </g>
   <g id="text_40">
    <!-- [1] -->
    <g transform="translate(98.38126 338.342925)scale(0.1 -0.1)">
     <use xlink:href="#DejaVuSans-5b"/>
     <use xlink:href="#DejaVuSans-31" x="39.013672"/>
     <use xlink:href="#DejaVuSans-5d" x="102.636719"/>
    </g>
   </g>
   <g id="text_41">
    <!-- [1] -->
    <g transform="translate(223.756202 261.163464)scale(0.1 -0.1)">
     <use xlink:href="#DejaVuSans-5b"/>
     <use xlink:href="#DejaVuSans-31" x="39.013672"/>
     <use xlink:href="#DejaVuSans-5d" x="102.636719"/>
    </g>
   </g>
   <g id="text_42">
    <!-- [1] -->
    <g transform="translate(203.232287 311.181669)scale(0.1 -0.1)">
     <use xlink:href="#DejaVuSans-5b"/>
     <use xlink:href="#DejaVuSans-31" x="39.013672"/>
     <use xlink:href="#DejaVuSans-5d" x="102.636719"/>
    </g>
   </g>
   <g id="text_43">
    <!-- [1] -->
    <g transform="translate(195.938987 89.731844)scale(0.1 -0.1)">
     <use xlink:href="#DejaVuSans-5b"/>
     <use xlink:href="#DejaVuSans-31" x="39.013672"/>
     <use xlink:href="#DejaVuSans-5d" x="102.636719"/>
    </g>
   </g>
   <g id="text_44">
    <!-- [1] -->
    <g transform="translate(359.721157 301.261256)scale(0.1 -0.1)">
     <use xlink:href="#DejaVuSans-5b"/>
     <use xlink:href="#DejaVuSans-31" x="39.013672"/>
     <use xlink:href="#DejaVuSans-5d" x="102.636719"/>
    </g>
   </g>
   <g id="text_45">
    <!-- [1] -->
    <g transform="translate(256.459431 212.345232)scale(0.1 -0.1)">
     <use xlink:href="#DejaVuSans-5b"/>
     <use xlink:href="#DejaVuSans-31" x="39.013672"/>
     <use xlink:href="#DejaVuSans-5d" x="102.636719"/>
    </g>
   </g>
  </g>
 </g>
 <defs>
  <clipPath id="pe759a905c1">
   <rect x="7.2" y="7.2" width="460.273973" height="460.273973"/>
  </clipPath>
 </defs>
</svg>
