<?xml version="1.0" encoding="utf-8" standalone="no"?>
<!DOCTYPE svg PUBLIC "-//W3C//DTD SVG 1.1//EN"
  "http://www.w3.org/Graphics/SVG/1.1/DTD/svg11.dtd">
<svg xmlns:xlink="http://www.w3.org/1999/xlink" width="505.52866pt" height="495.151316pt" viewBox="0 0 505.52866 495.151316" xmlns="http://www.w3.org/2000/svg" version="1.1">
 <metadata>
  <rdf:RDF xmlns:dc="http://purl.org/dc/elements/1.1/" xmlns:cc="http://creativecommons.org/ns#" xmlns:rdf="http://www.w3.org/1999/02/22-rdf-syntax-ns#">
   <cc:Work>
    <dc:type rdf:resource="http://purl.org/dc/dcmitype/StillImage"/>
    <dc:date>2023-09-11T18:00:50.845103</dc:date>
    <dc:format>image/svg+xml</dc:format>
    <dc:creator>
     <cc:Agent>
      <dc:title>Matplotlib v3.5.2, https://matplotlib.org/</dc:title>
     </cc:Agent>
    </dc:creator>
   </cc:Work>
  </rdf:RDF>
 </metadata>
 <defs>
  <style type="text/css">*{stroke-linejoin: round; stroke-linecap: butt}</style>
 </defs>
 <g id="figure_1">
  <g id="patch_1">
   <path d="M 0 495.151316 
L 505.52866 495.151316 
L 505.52866 0 
L 0 0 
z
" style="fill: #ffffff"/>
  </g>
  <g id="axes_1">
   <g id="patch_2">
    <path d="M 30.103125 471.273191 
L 490.377098 471.273191 
L 490.377098 10.999219 
L 30.103125 10.999219 
z
" style="fill: #ffffff"/>
   </g>
   <g id="patch_3">
    <path d="M 30.103125 471.273191 
L 122.15792 379.218397 
L 30.103125 241.136205 
z
" clip-path="url(#pff9fe6de12)" style="fill: #cbe4f9; stroke: #000000; stroke-linejoin: miter"/>
   </g>
   <g id="patch_4">
    <path d="M 122.15792 379.218397 
L 30.103125 471.273191 
L 490.377098 471.273191 
z
" clip-path="url(#pff9fe6de12)" style="fill: #cbe4f9; stroke: #000000; stroke-linejoin: miter"/>
   </g>
   <g id="patch_5">
    <path d="M 30.103125 241.136205 
L 122.15792 379.218397 
L 122.15792 241.136205 
z
" clip-path="url(#pff9fe6de12)" style="fill: #cbe4f9; stroke: #000000; stroke-linejoin: miter"/>
   </g>
   <g id="patch_6">
    <path d="M 30.103125 241.136205 
L 122.15792 103.054013 
L 30.103125 10.999219 
z
" clip-path="url(#pff9fe6de12)" style="fill: #cdf5f6; stroke: #000000; stroke-linejoin: miter"/>
   </g>
   <g id="patch_7">
    <path d="M 122.15792 103.054013 
L 30.103125 241.136205 
L 122.15792 241.136205 
z
" clip-path="url(#pff9fe6de12)" style="fill: #cdf5f6; stroke: #000000; stroke-linejoin: miter"/>
   </g>
   <g id="patch_8">
    <path d="M 30.103125 10.999219 
L 122.15792 103.054013 
L 490.377098 10.999219 
z
" clip-path="url(#pff9fe6de12)" style="fill: #cdf5f6; stroke: #000000; stroke-linejoin: miter"/>
   </g>
   <g id="patch_9">
    <path d="M 398.322303 241.136205 
L 398.322303 379.218397 
L 490.377098 241.136205 
z
" clip-path="url(#pff9fe6de12)" style="fill: #cbe4f9; stroke: #000000; stroke-linejoin: miter"/>
   </g>
   <g id="patch_10">
    <path d="M 490.377098 471.273191 
L 398.322303 379.218397 
L 122.15792 379.218397 
z
" clip-path="url(#pff9fe6de12)" style="fill: #cbe4f9; stroke: #000000; stroke-linejoin: miter"/>
   </g>
   <g id="patch_11">
    <path d="M 490.377098 241.136205 
L 398.322303 379.218397 
L 490.377098 471.273191 
z
" clip-path="url(#pff9fe6de12)" style="fill: #cbe4f9; stroke: #000000; stroke-linejoin: miter"/>
   </g>
   <g id="patch_12">
    <path d="M 398.322303 103.054013 
L 490.377098 241.136205 
L 490.377098 10.999219 
z
" clip-path="url(#pff9fe6de12)" style="fill: #cdf5f6; stroke: #000000; stroke-linejoin: miter"/>
   </g>
   <g id="patch_13">
    <path d="M 490.377098 241.136205 
L 398.322303 103.054013 
L 398.322303 241.136205 
z
" clip-path="url(#pff9fe6de12)" style="fill: #cdf5f6; stroke: #000000; stroke-linejoin: miter"/>
   </g>
   <g id="patch_14">
    <path d="M 398.322303 103.054013 
L 490.377098 10.999219 
L 122.15792 103.054013 
z
" clip-path="url(#pff9fe6de12)" style="fill: #cdf5f6; stroke: #000000; stroke-linejoin: miter"/>
   </g>
   <g id="matplotlib.axis_1">
    <g id="xtick_1">
     <g id="line2d_1">
      <defs>
       <path id="m3f4009ff12" d="M 0 0 
L 0 3.5 
" style="stroke: #000000; stroke-width: 0.8"/>
      </defs>
      <g>
       <use xlink:href="#m3f4009ff12" x="30.103125" y="471.273191" style="stroke: #000000; stroke-width: 0.8"/>
      </g>
     </g>
     <g id="text_1">
      <!-- 0.0 -->
      <g transform="translate(22.151563 485.871629)scale(0.1 -0.1)">
       <defs>
        <path id="DejaVuSans-30" d="M 2034 4250 
Q 1547 4250 1301 3770 
Q 1056 3291 1056 2328 
Q 1056 1369 1301 889 
Q 1547 409 2034 409 
Q 2525 409 2770 889 
Q 3016 1369 3016 2328 
Q 3016 3291 2770 3770 
Q 2525 4250 2034 4250 
z
M 2034 4750 
Q 2819 4750 3233 4129 
Q 3647 3509 3647 2328 
Q 3647 1150 3233 529 
Q 2819 -91 2034 -91 
Q 1250 -91 836 529 
Q 422 1150 422 2328 
Q 422 3509 836 4129 
Q 1250 4750 2034 4750 
z
" transform="scale(0.015625)"/>
        <path id="DejaVuSans-2e" d="M 684 794 
L 1344 794 
L 1344 0 
L 684 0 
L 684 794 
z
" transform="scale(0.015625)"/>
       </defs>
       <use xlink:href="#DejaVuSans-30"/>
       <use xlink:href="#DejaVuSans-2e" x="63.623047"/>
       <use xlink:href="#DejaVuSans-30" x="95.410156"/>
      </g>
     </g>
    </g>
    <g id="xtick_2">
     <g id="line2d_2">
      <g>
       <use xlink:href="#m3f4009ff12" x="122.15792" y="471.273191" style="stroke: #000000; stroke-width: 0.8"/>
      </g>
     </g>
     <g id="text_2">
      <!-- 0.2 -->
      <g transform="translate(114.206357 485.871629)scale(0.1 -0.1)">
       <defs>
        <path id="DejaVuSans-32" d="M 1228 531 
L 3431 531 
L 3431 0 
L 469 0 
L 469 531 
Q 828 903 1448 1529 
Q 2069 2156 2228 2338 
Q 2531 2678 2651 2914 
Q 2772 3150 2772 3378 
Q 2772 3750 2511 3984 
Q 2250 4219 1831 4219 
Q 1534 4219 1204 4116 
Q 875 4013 500 3803 
L 500 4441 
Q 881 4594 1212 4672 
Q 1544 4750 1819 4750 
Q 2544 4750 2975 4387 
Q 3406 4025 3406 3419 
Q 3406 3131 3298 2873 
Q 3191 2616 2906 2266 
Q 2828 2175 2409 1742 
Q 1991 1309 1228 531 
z
" transform="scale(0.015625)"/>
       </defs>
       <use xlink:href="#DejaVuSans-30"/>
       <use xlink:href="#DejaVuSans-2e" x="63.623047"/>
       <use xlink:href="#DejaVuSans-32" x="95.410156"/>
      </g>
     </g>
    </g>
    <g id="xtick_3">
     <g id="line2d_3">
      <g>
       <use xlink:href="#m3f4009ff12" x="214.212714" y="471.273191" style="stroke: #000000; stroke-width: 0.8"/>
      </g>
     </g>
     <g id="text_3">
      <!-- 0.4 -->
      <g transform="translate(206.261152 485.871629)scale(0.1 -0.1)">
       <defs>
        <path id="DejaVuSans-34" d="M 2419 4116 
L 825 1625 
L 2419 1625 
L 2419 4116 
z
M 2253 4666 
L 3047 4666 
L 3047 1625 
L 3713 1625 
L 3713 1100 
L 3047 1100 
L 3047 0 
L 2419 0 
L 2419 1100 
L 313 1100 
L 313 1709 
L 2253 4666 
z
" transform="scale(0.015625)"/>
       </defs>
       <use xlink:href="#DejaVuSans-30"/>
       <use xlink:href="#DejaVuSans-2e" x="63.623047"/>
       <use xlink:href="#DejaVuSans-34" x="95.410156"/>
      </g>
     </g>
    </g>
    <g id="xtick_4">
     <g id="line2d_4">
      <g>
       <use xlink:href="#m3f4009ff12" x="306.267509" y="471.273191" style="stroke: #000000; stroke-width: 0.8"/>
      </g>
     </g>
     <g id="text_4">
      <!-- 0.6 -->
      <g transform="translate(298.315946 485.871629)scale(0.1 -0.1)">
       <defs>
        <path id="DejaVuSans-36" d="M 2113 2584 
Q 1688 2584 1439 2293 
Q 1191 2003 1191 1497 
Q 1191 994 1439 701 
Q 1688 409 2113 409 
Q 2538 409 2786 701 
Q 3034 994 3034 1497 
Q 3034 2003 2786 2293 
Q 2538 2584 2113 2584 
z
M 3366 4563 
L 3366 3988 
Q 3128 4100 2886 4159 
Q 2644 4219 2406 4219 
Q 1781 4219 1451 3797 
Q 1122 3375 1075 2522 
Q 1259 2794 1537 2939 
Q 1816 3084 2150 3084 
Q 2853 3084 3261 2657 
Q 3669 2231 3669 1497 
Q 3669 778 3244 343 
Q 2819 -91 2113 -91 
Q 1303 -91 875 529 
Q 447 1150 447 2328 
Q 447 3434 972 4092 
Q 1497 4750 2381 4750 
Q 2619 4750 2861 4703 
Q 3103 4656 3366 4563 
z
" transform="scale(0.015625)"/>
       </defs>
       <use xlink:href="#DejaVuSans-30"/>
       <use xlink:href="#DejaVuSans-2e" x="63.623047"/>
       <use xlink:href="#DejaVuSans-36" x="95.410156"/>
      </g>
     </g>
    </g>
    <g id="xtick_5">
     <g id="line2d_5">
      <g>
       <use xlink:href="#m3f4009ff12" x="398.322303" y="471.273191" style="stroke: #000000; stroke-width: 0.8"/>
      </g>
     </g>
     <g id="text_5">
      <!-- 0.8 -->
      <g transform="translate(390.370741 485.871629)scale(0.1 -0.1)">
       <defs>
        <path id="DejaVuSans-38" d="M 2034 2216 
Q 1584 2216 1326 1975 
Q 1069 1734 1069 1313 
Q 1069 891 1326 650 
Q 1584 409 2034 409 
Q 2484 409 2743 651 
Q 3003 894 3003 1313 
Q 3003 1734 2745 1975 
Q 2488 2216 2034 2216 
z
M 1403 2484 
Q 997 2584 770 2862 
Q 544 3141 544 3541 
Q 544 4100 942 4425 
Q 1341 4750 2034 4750 
Q 2731 4750 3128 4425 
Q 3525 4100 3525 3541 
Q 3525 3141 3298 2862 
Q 3072 2584 2669 2484 
Q 3125 2378 3379 2068 
Q 3634 1759 3634 1313 
Q 3634 634 3220 271 
Q 2806 -91 2034 -91 
Q 1263 -91 848 271 
Q 434 634 434 1313 
Q 434 1759 690 2068 
Q 947 2378 1403 2484 
z
M 1172 3481 
Q 1172 3119 1398 2916 
Q 1625 2713 2034 2713 
Q 2441 2713 2670 2916 
Q 2900 3119 2900 3481 
Q 2900 3844 2670 4047 
Q 2441 4250 2034 4250 
Q 1625 4250 1398 4047 
Q 1172 3844 1172 3481 
z
" transform="scale(0.015625)"/>
       </defs>
       <use xlink:href="#DejaVuSans-30"/>
       <use xlink:href="#DejaVuSans-2e" x="63.623047"/>
       <use xlink:href="#DejaVuSans-38" x="95.410156"/>
      </g>
     </g>
    </g>
    <g id="xtick_6">
     <g id="line2d_6">
      <g>
       <use xlink:href="#m3f4009ff12" x="490.377098" y="471.273191" style="stroke: #000000; stroke-width: 0.8"/>
      </g>
     </g>
     <g id="text_6">
      <!-- 1.0 -->
      <g transform="translate(482.425535 485.871629)scale(0.1 -0.1)">
       <defs>
        <path id="DejaVuSans-31" d="M 794 531 
L 1825 531 
L 1825 4091 
L 703 3866 
L 703 4441 
L 1819 4666 
L 2450 4666 
L 2450 531 
L 3481 531 
L 3481 0 
L 794 0 
L 794 531 
z
" transform="scale(0.015625)"/>
       </defs>
       <use xlink:href="#DejaVuSans-31"/>
       <use xlink:href="#DejaVuSans-2e" x="63.623047"/>
       <use xlink:href="#DejaVuSans-30" x="95.410156"/>
      </g>
     </g>
    </g>
   </g>
   <g id="matplotlib.axis_2">
    <g id="ytick_1">
     <g id="line2d_7">
      <defs>
       <path id="m874704749e" d="M 0 0 
L -3.5 0 
" style="stroke: #000000; stroke-width: 0.8"/>
      </defs>
      <g>
       <use xlink:href="#m874704749e" x="30.103125" y="471.273191" style="stroke: #000000; stroke-width: 0.8"/>
      </g>
     </g>
     <g id="text_7">
      <!-- 0.0 -->
      <g transform="translate(7.2 475.07241)scale(0.1 -0.1)">
       <use xlink:href="#DejaVuSans-30"/>
       <use xlink:href="#DejaVuSans-2e" x="63.623047"/>
       <use xlink:href="#DejaVuSans-30" x="95.410156"/>
      </g>
     </g>
    </g>
    <g id="ytick_2">
     <g id="line2d_8">
      <g>
       <use xlink:href="#m874704749e" x="30.103125" y="379.218397" style="stroke: #000000; stroke-width: 0.8"/>
      </g>
     </g>
     <g id="text_8">
      <!-- 0.2 -->
      <g transform="translate(7.2 383.017616)scale(0.1 -0.1)">
       <use xlink:href="#DejaVuSans-30"/>
       <use xlink:href="#DejaVuSans-2e" x="63.623047"/>
       <use xlink:href="#DejaVuSans-32" x="95.410156"/>
      </g>
     </g>
    </g>
    <g id="ytick_3">
     <g id="line2d_9">
      <g>
       <use xlink:href="#m874704749e" x="30.103125" y="287.163602" style="stroke: #000000; stroke-width: 0.8"/>
      </g>
     </g>
     <g id="text_9">
      <!-- 0.4 -->
      <g transform="translate(7.2 290.962821)scale(0.1 -0.1)">
       <use xlink:href="#DejaVuSans-30"/>
       <use xlink:href="#DejaVuSans-2e" x="63.623047"/>
       <use xlink:href="#DejaVuSans-34" x="95.410156"/>
      </g>
     </g>
    </g>
    <g id="ytick_4">
     <g id="line2d_10">
      <g>
       <use xlink:href="#m874704749e" x="30.103125" y="195.108808" style="stroke: #000000; stroke-width: 0.8"/>
      </g>
     </g>
     <g id="text_10">
      <!-- 0.6 -->
      <g transform="translate(7.2 198.908027)scale(0.1 -0.1)">
       <use xlink:href="#DejaVuSans-30"/>
       <use xlink:href="#DejaVuSans-2e" x="63.623047"/>
       <use xlink:href="#DejaVuSans-36" x="95.410156"/>
      </g>
     </g>
    </g>
    <g id="ytick_5">
     <g id="line2d_11">
      <g>
       <use xlink:href="#m874704749e" x="30.103125" y="103.054013" style="stroke: #000000; stroke-width: 0.8"/>
      </g>
     </g>
     <g id="text_11">
      <!-- 0.8 -->
      <g transform="translate(7.2 106.853232)scale(0.1 -0.1)">
       <use xlink:href="#DejaVuSans-30"/>
       <use xlink:href="#DejaVuSans-2e" x="63.623047"/>
       <use xlink:href="#DejaVuSans-38" x="95.410156"/>
      </g>
     </g>
    </g>
    <g id="ytick_6">
     <g id="line2d_12">
      <g>
       <use xlink:href="#m874704749e" x="30.103125" y="10.999219" style="stroke: #000000; stroke-width: 0.8"/>
      </g>
     </g>
     <g id="text_12">
      <!-- 1.0 -->
      <g transform="translate(7.2 14.798437)scale(0.1 -0.1)">
       <use xlink:href="#DejaVuSans-31"/>
       <use xlink:href="#DejaVuSans-2e" x="63.623047"/>
       <use xlink:href="#DejaVuSans-30" x="95.410156"/>
      </g>
     </g>
    </g>
   </g>
   <g id="patch_15">
    <path d="M 30.103125 471.273191 
L 30.103125 10.999219 
" style="fill: none; stroke: #000000; stroke-width: 0.8; stroke-linejoin: miter; stroke-linecap: square"/>
   </g>
   <g id="patch_16">
    <path d="M 490.377098 471.273191 
L 490.377098 10.999219 
" style="fill: none; stroke: #000000; stroke-width: 0.8; stroke-linejoin: miter; stroke-linecap: square"/>
   </g>
   <g id="patch_17">
    <path d="M 30.103125 471.273191 
L 490.377098 471.273191 
" style="fill: none; stroke: #000000; stroke-width: 0.8; stroke-linejoin: miter; stroke-linecap: square"/>
   </g>
   <g id="patch_18">
    <path d="M 30.103125 10.999219 
L 490.377098 10.999219 
" style="fill: none; stroke: #000000; stroke-width: 0.8; stroke-linejoin: miter; stroke-linecap: square"/>
   </g>
   <g id="text_13">
    <!-- 0 -->
    <g style="fill: #0000ff" transform="translate(57.606807 366.635306)scale(0.1 -0.1)">
     <use xlink:href="#DejaVuSans-30"/>
    </g>
   </g>
   <g id="text_14">
    <!-- 1 -->
    <g style="fill: #0000ff" transform="translate(211.031464 443.347635)scale(0.1 -0.1)">
     <use xlink:href="#DejaVuSans-31"/>
    </g>
   </g>
   <g id="text_15">
    <!-- 2 -->
    <g style="fill: #0000ff" transform="translate(88.291738 289.922977)scale(0.1 -0.1)">
     <use xlink:href="#DejaVuSans-32"/>
    </g>
   </g>
   <g id="text_16">
    <!-- 3 -->
    <g style="fill: #0000ff" transform="translate(57.606807 121.155854)scale(0.1 -0.1)">
     <defs>
      <path id="DejaVuSans-33" d="M 2597 2516 
Q 3050 2419 3304 2112 
Q 3559 1806 3559 1356 
Q 3559 666 3084 287 
Q 2609 -91 1734 -91 
Q 1441 -91 1130 -33 
Q 819 25 488 141 
L 488 750 
Q 750 597 1062 519 
Q 1375 441 1716 441 
Q 2309 441 2620 675 
Q 2931 909 2931 1356 
Q 2931 1769 2642 2001 
Q 2353 2234 1838 2234 
L 1294 2234 
L 1294 2753 
L 1863 2753 
Q 2328 2753 2575 2939 
Q 2822 3125 2822 3475 
Q 2822 3834 2567 4026 
Q 2313 4219 1838 4219 
Q 1578 4219 1281 4162 
Q 984 4106 628 3988 
L 628 4550 
Q 988 4650 1302 4700 
Q 1616 4750 1894 4750 
Q 2613 4750 3031 4423 
Q 3450 4097 3450 3541 
Q 3450 3153 3228 2886 
Q 3006 2619 2597 2516 
z
" transform="scale(0.015625)"/>
     </defs>
     <use xlink:href="#DejaVuSans-33"/>
    </g>
   </g>
   <g id="text_17">
    <!-- 4 -->
    <g style="fill: #0000ff" transform="translate(88.291738 197.868183)scale(0.1 -0.1)">
     <use xlink:href="#DejaVuSans-34"/>
    </g>
   </g>
   <g id="text_18">
    <!-- 5 -->
    <g style="fill: #0000ff" transform="translate(211.031464 44.443525)scale(0.1 -0.1)">
     <defs>
      <path id="DejaVuSans-35" d="M 691 4666 
L 3169 4666 
L 3169 4134 
L 1269 4134 
L 1269 2991 
Q 1406 3038 1543 3061 
Q 1681 3084 1819 3084 
Q 2600 3084 3056 2656 
Q 3513 2228 3513 1497 
Q 3513 744 3044 326 
Q 2575 -91 1722 -91 
Q 1428 -91 1123 -41 
Q 819 9 494 109 
L 494 744 
Q 775 591 1075 516 
Q 1375 441 1709 441 
Q 2250 441 2565 725 
Q 2881 1009 2881 1497 
Q 2881 1984 2565 2268 
Q 2250 2553 1709 2553 
Q 1456 2553 1204 2497 
Q 953 2441 691 2322 
L 691 4666 
z
" transform="scale(0.015625)"/>
     </defs>
     <use xlink:href="#DejaVuSans-35"/>
    </g>
   </g>
   <g id="text_19">
    <!-- 6 -->
    <g style="fill: #0000ff" transform="translate(425.825985 289.922977)scale(0.1 -0.1)">
     <use xlink:href="#DejaVuSans-36"/>
    </g>
   </g>
   <g id="text_20">
    <!-- 7 -->
    <g style="fill: #0000ff" transform="translate(333.77119 412.662703)scale(0.1 -0.1)">
     <defs>
      <path id="DejaVuSans-37" d="M 525 4666 
L 3525 4666 
L 3525 4397 
L 1831 0 
L 1172 0 
L 2766 4134 
L 525 4134 
L 525 4666 
z
" transform="scale(0.015625)"/>
     </defs>
     <use xlink:href="#DejaVuSans-37"/>
    </g>
   </g>
   <g id="text_21">
    <!-- 8 -->
    <g style="fill: #0000ff" transform="translate(456.510916 366.635306)scale(0.1 -0.1)">
     <use xlink:href="#DejaVuSans-38"/>
    </g>
   </g>
   <g id="text_22">
    <!-- 9 -->
    <g style="fill: #0000ff" transform="translate(456.510916 121.155854)scale(0.1 -0.1)">
     <defs>
      <path id="DejaVuSans-39" d="M 703 97 
L 703 672 
Q 941 559 1184 500 
Q 1428 441 1663 441 
Q 2288 441 2617 861 
Q 2947 1281 2994 2138 
Q 2813 1869 2534 1725 
Q 2256 1581 1919 1581 
Q 1219 1581 811 2004 
Q 403 2428 403 3163 
Q 403 3881 828 4315 
Q 1253 4750 1959 4750 
Q 2769 4750 3195 4129 
Q 3622 3509 3622 2328 
Q 3622 1225 3098 567 
Q 2575 -91 1691 -91 
Q 1453 -91 1209 -44 
Q 966 3 703 97 
z
M 1959 2075 
Q 2384 2075 2632 2365 
Q 2881 2656 2881 3163 
Q 2881 3666 2632 3958 
Q 2384 4250 1959 4250 
Q 1534 4250 1286 3958 
Q 1038 3666 1038 3163 
Q 1038 2656 1286 2365 
Q 1534 2075 1959 2075 
z
" transform="scale(0.015625)"/>
     </defs>
     <use xlink:href="#DejaVuSans-39"/>
    </g>
   </g>
   <g id="text_23">
    <!-- 10 -->
    <g style="fill: #0000ff" transform="translate(422.644735 197.868183)scale(0.1 -0.1)">
     <use xlink:href="#DejaVuSans-31"/>
     <use xlink:href="#DejaVuSans-30" x="63.623047"/>
    </g>
   </g>
   <g id="text_24">
    <!-- 11 -->
    <g style="fill: #0000ff" transform="translate(330.58994 75.128457)scale(0.1 -0.1)">
     <use xlink:href="#DejaVuSans-31"/>
     <use xlink:href="#DejaVuSans-31" x="63.623047"/>
    </g>
   </g>
   <g id="text_25">
    <g id="patch_19">
     <path d="M 30.103125 479.112254 
C 32.182069 479.112254 34.176144 478.286281 35.646179 476.816246 
C 37.116214 475.34621 37.942188 473.352135 37.942188 471.273191 
C 37.942188 469.194248 37.116214 467.200172 35.646179 465.730137 
C 34.176144 464.260102 32.182069 463.434129 30.103125 463.434129 
C 28.024181 463.434129 26.030106 464.260102 24.560071 465.730137 
C 23.090036 467.200172 22.264063 469.194248 22.264063 471.273191 
C 22.264063 473.352135 23.090036 475.34621 24.560071 476.816246 
C 26.030106 478.286281 28.024181 479.112254 30.103125 479.112254 
z
" style="fill: #ffffff; opacity: 0.8; stroke: #000000; stroke-linejoin: miter"/>
    </g>
    <!-- 0 -->
    <g style="fill: #ff0000" transform="translate(26.921875 474.032566)scale(0.1 -0.1)">
     <use xlink:href="#DejaVuSans-30"/>
    </g>
   </g>
   <g id="text_26">
    <g id="patch_20">
     <path d="M 490.377098 479.112254 
C 492.456041 479.112254 494.450117 478.286281 495.920152 476.816246 
C 497.390187 475.34621 498.21616 473.352135 498.21616 471.273191 
C 498.21616 469.194248 497.390187 467.200172 495.920152 465.730137 
C 494.450117 464.260102 492.456041 463.434129 490.377098 463.434129 
C 488.298154 463.434129 486.304079 464.260102 484.834043 465.730137 
C 483.364008 467.200172 482.538035 469.194248 482.538035 471.273191 
C 482.538035 473.352135 483.364008 475.34621 484.834043 476.816246 
C 486.304079 478.286281 488.298154 479.112254 490.377098 479.112254 
z
" style="fill: #ffffff; opacity: 0.8; stroke: #000000; stroke-linejoin: miter"/>
    </g>
    <!-- 1 -->
    <g style="fill: #ff0000" transform="translate(487.195848 474.032566)scale(0.1 -0.1)">
     <use xlink:href="#DejaVuSans-31"/>
    </g>
   </g>
   <g id="text_27">
    <g id="patch_21">
     <path d="M 490.377098 18.838281 
C 492.456041 18.838281 494.450117 18.012308 495.920152 16.542273 
C 497.390187 15.072238 498.21616 13.078162 498.21616 10.999219 
C 498.21616 8.920275 497.390187 6.9262 495.920152 5.456164 
C 494.450117 3.986129 492.456041 3.160156 490.377098 3.160156 
C 488.298154 3.160156 486.304079 3.986129 484.834043 5.456164 
C 483.364008 6.9262 482.538035 8.920275 482.538035 10.999219 
C 482.538035 13.078162 483.364008 15.072238 484.834043 16.542273 
C 486.304079 18.012308 488.298154 18.838281 490.377098 18.838281 
z
" style="fill: #ffffff; opacity: 0.8; stroke: #000000; stroke-linejoin: miter"/>
    </g>
    <!-- 2 -->
    <g style="fill: #ff0000" transform="translate(487.195848 13.758594)scale(0.1 -0.1)">
     <use xlink:href="#DejaVuSans-32"/>
    </g>
   </g>
   <g id="text_28">
    <g id="patch_22">
     <path d="M 30.103125 18.838281 
C 32.182069 18.838281 34.176144 18.012308 35.646179 16.542273 
C 37.116214 15.072238 37.942188 13.078162 37.942188 10.999219 
C 37.942188 8.920275 37.116214 6.9262 35.646179 5.456164 
C 34.176144 3.986129 32.182069 3.160156 30.103125 3.160156 
C 28.024181 3.160156 26.030106 3.986129 24.560071 5.456164 
C 23.090036 6.9262 22.264063 8.920275 22.264063 10.999219 
C 22.264063 13.078162 23.090036 15.072238 24.560071 16.542273 
C 26.030106 18.012308 28.024181 18.838281 30.103125 18.838281 
z
" style="fill: #ffffff; opacity: 0.8; stroke: #000000; stroke-linejoin: miter"/>
    </g>
    <!-- 3 -->
    <g style="fill: #ff0000" transform="translate(26.921875 13.758594)scale(0.1 -0.1)">
     <use xlink:href="#DejaVuSans-33"/>
    </g>
   </g>
   <g id="text_29">
    <g id="patch_23">
     <path d="M 122.15792 387.057459 
C 124.236863 387.057459 126.230939 386.231486 127.700974 384.761451 
C 129.171009 383.291416 129.996982 381.297341 129.996982 379.218397 
C 129.996982 377.139453 129.171009 375.145378 127.700974 373.675343 
C 126.230939 372.205307 124.236863 371.379334 122.15792 371.379334 
C 120.078976 371.379334 118.0849 372.205307 116.614865 373.675343 
C 115.14483 375.145378 114.318857 377.139453 114.318857 379.218397 
C 114.318857 381.297341 115.14483 383.291416 116.614865 384.761451 
C 118.0849 386.231486 120.078976 387.057459 122.15792 387.057459 
z
" style="fill: #ffffff; opacity: 0.8; stroke: #000000; stroke-linejoin: miter"/>
    </g>
    <!-- 4 -->
    <g style="fill: #ff0000" transform="translate(118.97667 381.977772)scale(0.1 -0.1)">
     <use xlink:href="#DejaVuSans-34"/>
    </g>
   </g>
   <g id="text_30">
    <g id="patch_24">
     <path d="M 398.322303 387.057459 
C 400.401247 387.057459 402.395322 386.231486 403.865357 384.761451 
C 405.335393 383.291416 406.161366 381.297341 406.161366 379.218397 
C 406.161366 377.139453 405.335393 375.145378 403.865357 373.675343 
C 402.395322 372.205307 400.401247 371.379334 398.322303 371.379334 
C 396.243359 371.379334 394.249284 372.205307 392.779249 373.675343 
C 391.309214 375.145378 390.483241 377.139453 390.483241 379.218397 
C 390.483241 381.297341 391.309214 383.291416 392.779249 384.761451 
C 394.249284 386.231486 396.243359 387.057459 398.322303 387.057459 
z
" style="fill: #ffffff; opacity: 0.8; stroke: #000000; stroke-linejoin: miter"/>
    </g>
    <!-- 5 -->
    <g style="fill: #ff0000" transform="translate(395.141053 381.977772)scale(0.1 -0.1)">
     <use xlink:href="#DejaVuSans-35"/>
    </g>
   </g>
   <g id="text_31">
    <g id="patch_25">
     <path d="M 398.322303 110.893076 
C 400.401247 110.893076 402.395322 110.067103 403.865357 108.597068 
C 405.335393 107.127032 406.161366 105.132957 406.161366 103.054013 
C 406.161366 100.97507 405.335393 98.980994 403.865357 97.510959 
C 402.395322 96.040924 400.401247 95.214951 398.322303 95.214951 
C 396.243359 95.214951 394.249284 96.040924 392.779249 97.510959 
C 391.309214 98.980994 390.483241 100.97507 390.483241 103.054013 
C 390.483241 105.132957 391.309214 107.127032 392.779249 108.597068 
C 394.249284 110.067103 396.243359 110.893076 398.322303 110.893076 
z
" style="fill: #ffffff; opacity: 0.8; stroke: #000000; stroke-linejoin: miter"/>
    </g>
    <!-- 6 -->
    <g style="fill: #ff0000" transform="translate(395.141053 105.813388)scale(0.1 -0.1)">
     <use xlink:href="#DejaVuSans-36"/>
    </g>
   </g>
   <g id="text_32">
    <g id="patch_26">
     <path d="M 122.15792 110.893076 
C 124.236863 110.893076 126.230939 110.067103 127.700974 108.597068 
C 129.171009 107.127032 129.996982 105.132957 129.996982 103.054013 
C 129.996982 100.97507 129.171009 98.980994 127.700974 97.510959 
C 126.230939 96.040924 124.236863 95.214951 122.15792 95.214951 
C 120.078976 95.214951 118.0849 96.040924 116.614865 97.510959 
C 115.14483 98.980994 114.318857 100.97507 114.318857 103.054013 
C 114.318857 105.132957 115.14483 107.127032 116.614865 108.597068 
C 118.0849 110.067103 120.078976 110.893076 122.15792 110.893076 
z
" style="fill: #ffffff; opacity: 0.8; stroke: #000000; stroke-linejoin: miter"/>
    </g>
    <!-- 7 -->
    <g style="fill: #ff0000" transform="translate(118.97667 105.813388)scale(0.1 -0.1)">
     <use xlink:href="#DejaVuSans-37"/>
    </g>
   </g>
   <g id="text_33">
    <g id="patch_27">
     <path d="M 30.103125 248.975268 
C 32.182069 248.975268 34.176144 248.149294 35.646179 246.679259 
C 37.116214 245.209224 37.942188 243.215149 37.942188 241.136205 
C 37.942188 239.057261 37.116214 237.063186 35.646179 235.593151 
C 34.176144 234.123116 32.182069 233.297143 30.103125 233.297143 
C 28.024181 233.297143 26.030106 234.123116 24.560071 235.593151 
C 23.090036 237.063186 22.264063 239.057261 22.264063 241.136205 
C 22.264063 243.215149 23.090036 245.209224 24.560071 246.679259 
C 26.030106 248.149294 28.024181 248.975268 30.103125 248.975268 
z
" style="fill: #ffffff; opacity: 0.8; stroke: #000000; stroke-linejoin: miter"/>
    </g>
    <!-- 8 -->
    <g style="fill: #ff0000" transform="translate(26.921875 243.89558)scale(0.1 -0.1)">
     <use xlink:href="#DejaVuSans-38"/>
    </g>
   </g>
   <g id="text_34">
    <g id="patch_28">
     <path d="M 122.15792 248.975268 
C 124.236863 248.975268 126.230939 248.149294 127.700974 246.679259 
C 129.171009 245.209224 129.996982 243.215149 129.996982 241.136205 
C 129.996982 239.057261 129.171009 237.063186 127.700974 235.593151 
C 126.230939 234.123116 124.236863 233.297143 122.15792 233.297143 
C 120.078976 233.297143 118.0849 234.123116 116.614865 235.593151 
C 115.14483 237.063186 114.318857 239.057261 114.318857 241.136205 
C 114.318857 243.215149 115.14483 245.209224 116.614865 246.679259 
C 118.0849 248.149294 120.078976 248.975268 122.15792 248.975268 
z
" style="fill: #ffffff; opacity: 0.8; stroke: #000000; stroke-linejoin: miter"/>
    </g>
    <!-- 9 -->
    <g style="fill: #ff0000" transform="translate(118.97667 243.89558)scale(0.1 -0.1)">
     <use xlink:href="#DejaVuSans-39"/>
    </g>
   </g>
   <g id="text_35">
    <g id="patch_29">
     <path d="M 398.322303 250.498705 
C 400.805267 250.498705 403.18687 249.512213 404.94259 247.756492 
C 406.698311 246.000772 407.684803 243.619169 407.684803 241.136205 
C 407.684803 238.653241 406.698311 236.271639 404.94259 234.515918 
C 403.18687 232.760197 400.805267 231.773705 398.322303 231.773705 
C 395.839339 231.773705 393.457737 232.760197 391.702016 234.515918 
C 389.946295 236.271639 388.959803 238.653241 388.959803 241.136205 
C 388.959803 243.619169 389.946295 246.000772 391.702016 247.756492 
C 393.457737 249.512213 395.839339 250.498705 398.322303 250.498705 
z
" style="fill: #ffffff; opacity: 0.8; stroke: #000000; stroke-linejoin: miter"/>
    </g>
    <!-- 10 -->
    <g style="fill: #ff0000" transform="translate(391.959803 243.89558)scale(0.1 -0.1)">
     <use xlink:href="#DejaVuSans-31"/>
     <use xlink:href="#DejaVuSans-30" x="63.623047"/>
    </g>
   </g>
   <g id="text_36">
    <g id="patch_30">
     <path d="M 490.377098 250.498705 
C 492.860062 250.498705 495.241664 249.512213 496.997385 247.756492 
C 498.753106 246.000772 499.739598 243.619169 499.739598 241.136205 
C 499.739598 238.653241 498.753106 236.271639 496.997385 234.515918 
C 495.241664 232.760197 492.860062 231.773705 490.377098 231.773705 
C 487.894134 231.773705 485.512531 232.760197 483.75681 234.515918 
C 482.00109 236.271639 481.014598 238.653241 481.014598 241.136205 
C 481.014598 243.619169 482.00109 246.000772 483.75681 247.756492 
C 485.512531 249.512213 487.894134 250.498705 490.377098 250.498705 
z
" style="fill: #ffffff; opacity: 0.8; stroke: #000000; stroke-linejoin: miter"/>
    </g>
    <!-- 11 -->
    <g style="fill: #ff0000" transform="translate(484.014598 243.89558)scale(0.1 -0.1)">
     <use xlink:href="#DejaVuSans-31"/>
     <use xlink:href="#DejaVuSans-31" x="63.623047"/>
    </g>
   </g>
   <g id="text_37">
    <g id="patch_31">
     <path d="M 76.130522 434.608294 
C 78.613486 434.608294 80.995089 433.621802 82.750809 431.866081 
C 84.50653 430.110361 85.493022 427.728758 85.493022 425.245794 
C 85.493022 422.76283 84.50653 420.381228 82.750809 418.625507 
C 80.995089 416.869786 78.613486 415.883294 76.130522 415.883294 
C 73.647558 415.883294 71.265956 416.869786 69.510235 418.625507 
C 67.754514 420.381228 66.768022 422.76283 66.768022 425.245794 
C 66.768022 427.728758 67.754514 430.110361 69.510235 431.866081 
C 71.265956 433.621802 73.647558 434.608294 76.130522 434.608294 
z
" style="fill: #ffffff; opacity: 0.8; stroke: #000000; stroke-linejoin: miter"/>
    </g>
    <!-- 12 -->
    <g style="fill: #ff0000" transform="translate(69.768022 428.005169)scale(0.1 -0.1)">
     <use xlink:href="#DejaVuSans-31"/>
     <use xlink:href="#DejaVuSans-32" x="63.623047"/>
    </g>
   </g>
   <g id="text_38">
    <g id="patch_32">
     <path d="M 76.130522 319.539801 
C 78.613486 319.539801 80.995089 318.553309 82.750809 316.797588 
C 84.50653 315.041867 85.493022 312.660265 85.493022 310.177301 
C 85.493022 307.694337 84.50653 305.312734 82.750809 303.557014 
C 80.995089 301.801293 78.613486 300.814801 76.130522 300.814801 
C 73.647558 300.814801 71.265956 301.801293 69.510235 303.557014 
C 67.754514 305.312734 66.768022 307.694337 66.768022 310.177301 
C 66.768022 312.660265 67.754514 315.041867 69.510235 316.797588 
C 71.265956 318.553309 73.647558 319.539801 76.130522 319.539801 
z
" style="fill: #ffffff; opacity: 0.8; stroke: #000000; stroke-linejoin: miter"/>
    </g>
    <!-- 13 -->
    <g style="fill: #ff0000" transform="translate(69.768022 312.936676)scale(0.1 -0.1)">
     <use xlink:href="#DejaVuSans-31"/>
     <use xlink:href="#DejaVuSans-33" x="63.623047"/>
    </g>
   </g>
   <g id="text_39">
    <g id="patch_33">
     <path d="M 30.103125 365.567198 
C 32.586089 365.567198 34.967692 364.580706 36.723412 362.824985 
C 38.479133 361.069265 39.465625 358.687662 39.465625 356.204698 
C 39.465625 353.721734 38.479133 351.340132 36.723412 349.584411 
C 34.967692 347.82869 32.586089 346.842198 30.103125 346.842198 
C 27.620161 346.842198 25.238558 347.82869 23.482838 349.584411 
C 21.727117 351.340132 20.740625 353.721734 20.740625 356.204698 
C 20.740625 358.687662 21.727117 361.069265 23.482838 362.824985 
C 25.238558 364.580706 27.620161 365.567198 30.103125 365.567198 
z
" style="fill: #ffffff; opacity: 0.8; stroke: #000000; stroke-linejoin: miter"/>
    </g>
    <!-- 14 -->
    <g style="fill: #ff0000" transform="translate(23.740625 358.964073)scale(0.1 -0.1)">
     <use xlink:href="#DejaVuSans-31"/>
     <use xlink:href="#DejaVuSans-34" x="63.623047"/>
    </g>
   </g>
   <g id="text_40">
    <g id="patch_34">
     <path d="M 260.240111 480.635691 
C 262.723075 480.635691 265.104678 479.649199 266.860399 477.893479 
C 268.616119 476.137758 269.602611 473.756155 269.602611 471.273191 
C 269.602611 468.790227 268.616119 466.408625 266.860399 464.652904 
C 265.104678 462.897183 262.723075 461.910691 260.240111 461.910691 
C 257.757147 461.910691 255.375545 462.897183 253.619824 464.652904 
C 251.864103 466.408625 250.877611 468.790227 250.877611 471.273191 
C 250.877611 473.756155 251.864103 476.137758 253.619824 477.893479 
C 255.375545 479.649199 257.757147 480.635691 260.240111 480.635691 
z
" style="fill: #ffffff; opacity: 0.8; stroke: #000000; stroke-linejoin: miter"/>
    </g>
    <!-- 15 -->
    <g style="fill: #ff0000" transform="translate(253.877611 474.032566)scale(0.1 -0.1)">
     <use xlink:href="#DejaVuSans-31"/>
     <use xlink:href="#DejaVuSans-35" x="63.623047"/>
    </g>
   </g>
   <g id="text_41">
    <g id="patch_35">
     <path d="M 306.267509 434.608294 
C 308.750473 434.608294 311.132075 433.621802 312.887796 431.866081 
C 314.643516 430.110361 315.630009 427.728758 315.630009 425.245794 
C 315.630009 422.76283 314.643516 420.381228 312.887796 418.625507 
C 311.132075 416.869786 308.750473 415.883294 306.267509 415.883294 
C 303.784545 415.883294 301.402942 416.869786 299.647221 418.625507 
C 297.891501 420.381228 296.905009 422.76283 296.905009 425.245794 
C 296.905009 427.728758 297.891501 430.110361 299.647221 431.866081 
C 301.402942 433.621802 303.784545 434.608294 306.267509 434.608294 
z
" style="fill: #ffffff; opacity: 0.8; stroke: #000000; stroke-linejoin: miter"/>
    </g>
    <!-- 16 -->
    <g style="fill: #ff0000" transform="translate(299.905009 428.005169)scale(0.1 -0.1)">
     <use xlink:href="#DejaVuSans-31"/>
     <use xlink:href="#DejaVuSans-36" x="63.623047"/>
    </g>
   </g>
   <g id="text_42">
    <g id="patch_36">
     <path d="M 122.15792 319.539801 
C 124.640884 319.539801 127.022486 318.553309 128.778207 316.797588 
C 130.533927 315.041867 131.52042 312.660265 131.52042 310.177301 
C 131.52042 307.694337 130.533927 305.312734 128.778207 303.557014 
C 127.022486 301.801293 124.640884 300.814801 122.15792 300.814801 
C 119.674955 300.814801 117.293353 301.801293 115.537632 303.557014 
C 113.781912 305.312734 112.79542 307.694337 112.79542 310.177301 
C 112.79542 312.660265 113.781912 315.041867 115.537632 316.797588 
C 117.293353 318.553309 119.674955 319.539801 122.15792 319.539801 
z
" style="fill: #ffffff; opacity: 0.8; stroke: #000000; stroke-linejoin: miter"/>
    </g>
    <!-- 17 -->
    <g style="fill: #ff0000" transform="translate(115.79542 312.936676)scale(0.1 -0.1)">
     <use xlink:href="#DejaVuSans-31"/>
     <use xlink:href="#DejaVuSans-37" x="63.623047"/>
    </g>
   </g>
   <g id="text_43">
    <g id="patch_37">
     <path d="M 76.130522 250.498705 
C 78.613486 250.498705 80.995089 249.512213 82.750809 247.756492 
C 84.50653 246.000772 85.493022 243.619169 85.493022 241.136205 
C 85.493022 238.653241 84.50653 236.271639 82.750809 234.515918 
C 80.995089 232.760197 78.613486 231.773705 76.130522 231.773705 
C 73.647558 231.773705 71.265956 232.760197 69.510235 234.515918 
C 67.754514 236.271639 66.768022 238.653241 66.768022 241.136205 
C 66.768022 243.619169 67.754514 246.000772 69.510235 247.756492 
C 71.265956 249.512213 73.647558 250.498705 76.130522 250.498705 
z
" style="fill: #ffffff; opacity: 0.8; stroke: #000000; stroke-linejoin: miter"/>
    </g>
    <!-- 18 -->
    <g style="fill: #ff0000" transform="translate(69.768022 243.89558)scale(0.1 -0.1)">
     <use xlink:href="#DejaVuSans-31"/>
     <use xlink:href="#DejaVuSans-38" x="63.623047"/>
    </g>
   </g>
   <g id="text_44">
    <g id="patch_38">
     <path d="M 76.130522 181.457609 
C 78.613486 181.457609 80.995089 180.471117 82.750809 178.715396 
C 84.50653 176.959676 85.493022 174.578073 85.493022 172.095109 
C 85.493022 169.612145 84.50653 167.230543 82.750809 165.474822 
C 80.995089 163.719101 78.613486 162.732609 76.130522 162.732609 
C 73.647558 162.732609 71.265956 163.719101 69.510235 165.474822 
C 67.754514 167.230543 66.768022 169.612145 66.768022 172.095109 
C 66.768022 174.578073 67.754514 176.959676 69.510235 178.715396 
C 71.265956 180.471117 73.647558 181.457609 76.130522 181.457609 
z
" style="fill: #ffffff; opacity: 0.8; stroke: #000000; stroke-linejoin: miter"/>
    </g>
    <!-- 19 -->
    <g style="fill: #ff0000" transform="translate(69.768022 174.854484)scale(0.1 -0.1)">
     <use xlink:href="#DejaVuSans-31"/>
     <use xlink:href="#DejaVuSans-39" x="63.623047"/>
    </g>
   </g>
   <g id="text_45">
    <g id="patch_39">
     <path d="M 76.130522 66.389116 
C 78.613486 66.389116 80.995089 65.402624 82.750809 63.646903 
C 84.50653 61.891183 85.493022 59.50958 85.493022 57.026616 
C 85.493022 54.543652 84.50653 52.162049 82.750809 50.406329 
C 80.995089 48.650608 78.613486 47.664116 76.130522 47.664116 
C 73.647558 47.664116 71.265956 48.650608 69.510235 50.406329 
C 67.754514 52.162049 66.768022 54.543652 66.768022 57.026616 
C 66.768022 59.50958 67.754514 61.891183 69.510235 63.646903 
C 71.265956 65.402624 73.647558 66.389116 76.130522 66.389116 
z
" style="fill: #ffffff; opacity: 0.8; stroke: #000000; stroke-linejoin: miter"/>
    </g>
    <!-- 20 -->
    <g style="fill: #ff0000" transform="translate(69.768022 59.785991)scale(0.1 -0.1)">
     <use xlink:href="#DejaVuSans-32"/>
     <use xlink:href="#DejaVuSans-30" x="63.623047"/>
    </g>
   </g>
   <g id="text_46">
    <g id="patch_40">
     <path d="M 30.103125 135.430212 
C 32.586089 135.430212 34.967692 134.44372 36.723412 132.687999 
C 38.479133 130.932278 39.465625 128.550676 39.465625 126.067712 
C 39.465625 123.584748 38.479133 121.203145 36.723412 119.447425 
C 34.967692 117.691704 32.586089 116.705212 30.103125 116.705212 
C 27.620161 116.705212 25.238558 117.691704 23.482838 119.447425 
C 21.727117 121.203145 20.740625 123.584748 20.740625 126.067712 
C 20.740625 128.550676 21.727117 130.932278 23.482838 132.687999 
C 25.238558 134.44372 27.620161 135.430212 30.103125 135.430212 
z
" style="fill: #ffffff; opacity: 0.8; stroke: #000000; stroke-linejoin: miter"/>
    </g>
    <!-- 21 -->
    <g style="fill: #ff0000" transform="translate(23.740625 128.827087)scale(0.1 -0.1)">
     <use xlink:href="#DejaVuSans-32"/>
     <use xlink:href="#DejaVuSans-31" x="63.623047"/>
    </g>
   </g>
   <g id="text_47">
    <g id="patch_41">
     <path d="M 122.15792 181.457609 
C 124.640884 181.457609 127.022486 180.471117 128.778207 178.715396 
C 130.533927 176.959676 131.52042 174.578073 131.52042 172.095109 
C 131.52042 169.612145 130.533927 167.230543 128.778207 165.474822 
C 127.022486 163.719101 124.640884 162.732609 122.15792 162.732609 
C 119.674955 162.732609 117.293353 163.719101 115.537632 165.474822 
C 113.781912 167.230543 112.79542 169.612145 112.79542 172.095109 
C 112.79542 174.578073 113.781912 176.959676 115.537632 178.715396 
C 117.293353 180.471117 119.674955 181.457609 122.15792 181.457609 
z
" style="fill: #ffffff; opacity: 0.8; stroke: #000000; stroke-linejoin: miter"/>
    </g>
    <!-- 22 -->
    <g style="fill: #ff0000" transform="translate(115.79542 174.854484)scale(0.1 -0.1)">
     <use xlink:href="#DejaVuSans-32"/>
     <use xlink:href="#DejaVuSans-32" x="63.623047"/>
    </g>
   </g>
   <g id="text_48">
    <g id="patch_42">
     <path d="M 306.267509 66.389116 
C 308.750473 66.389116 311.132075 65.402624 312.887796 63.646903 
C 314.643516 61.891183 315.630009 59.50958 315.630009 57.026616 
C 315.630009 54.543652 314.643516 52.162049 312.887796 50.406329 
C 311.132075 48.650608 308.750473 47.664116 306.267509 47.664116 
C 303.784545 47.664116 301.402942 48.650608 299.647221 50.406329 
C 297.891501 52.162049 296.905009 54.543652 296.905009 57.026616 
C 296.905009 59.50958 297.891501 61.891183 299.647221 63.646903 
C 301.402942 65.402624 303.784545 66.389116 306.267509 66.389116 
z
" style="fill: #ffffff; opacity: 0.8; stroke: #000000; stroke-linejoin: miter"/>
    </g>
    <!-- 23 -->
    <g style="fill: #ff0000" transform="translate(299.905009 59.785991)scale(0.1 -0.1)">
     <use xlink:href="#DejaVuSans-32"/>
     <use xlink:href="#DejaVuSans-33" x="63.623047"/>
    </g>
   </g>
   <g id="text_49">
    <g id="patch_43">
     <path d="M 260.240111 20.361719 
C 262.723075 20.361719 265.104678 19.375227 266.860399 17.619506 
C 268.616119 15.863785 269.602611 13.482183 269.602611 10.999219 
C 269.602611 8.516255 268.616119 6.134652 266.860399 4.378932 
C 265.104678 2.623211 262.723075 1.636719 260.240111 1.636719 
C 257.757147 1.636719 255.375545 2.623211 253.619824 4.378932 
C 251.864103 6.134652 250.877611 8.516255 250.877611 10.999219 
C 250.877611 13.482183 251.864103 15.863785 253.619824 17.619506 
C 255.375545 19.375227 257.757147 20.361719 260.240111 20.361719 
z
" style="fill: #ffffff; opacity: 0.8; stroke: #000000; stroke-linejoin: miter"/>
    </g>
    <!-- 24 -->
    <g style="fill: #ff0000" transform="translate(253.877611 13.758594)scale(0.1 -0.1)">
     <use xlink:href="#DejaVuSans-32"/>
     <use xlink:href="#DejaVuSans-34" x="63.623047"/>
    </g>
   </g>
   <g id="text_50">
    <g id="patch_44">
     <path d="M 398.322303 319.539801 
C 400.805267 319.539801 403.18687 318.553309 404.94259 316.797588 
C 406.698311 315.041867 407.684803 312.660265 407.684803 310.177301 
C 407.684803 307.694337 406.698311 305.312734 404.94259 303.557014 
C 403.18687 301.801293 400.805267 300.814801 398.322303 300.814801 
C 395.839339 300.814801 393.457737 301.801293 391.702016 303.557014 
C 389.946295 305.312734 388.959803 307.694337 388.959803 310.177301 
C 388.959803 312.660265 389.946295 315.041867 391.702016 316.797588 
C 393.457737 318.553309 395.839339 319.539801 398.322303 319.539801 
z
" style="fill: #ffffff; opacity: 0.8; stroke: #000000; stroke-linejoin: miter"/>
    </g>
    <!-- 25 -->
    <g style="fill: #ff0000" transform="translate(391.959803 312.936676)scale(0.1 -0.1)">
     <use xlink:href="#DejaVuSans-32"/>
     <use xlink:href="#DejaVuSans-35" x="63.623047"/>
    </g>
   </g>
   <g id="text_51">
    <g id="patch_45">
     <path d="M 444.3497 319.539801 
C 446.832664 319.539801 449.214267 318.553309 450.969988 316.797588 
C 452.725708 315.041867 453.7122 312.660265 453.7122 310.177301 
C 453.7122 307.694337 452.725708 305.312734 450.969988 303.557014 
C 449.214267 301.801293 446.832664 300.814801 444.3497 300.814801 
C 441.866736 300.814801 439.485134 301.801293 437.729413 303.557014 
C 435.973692 305.312734 434.9872 307.694337 434.9872 310.177301 
C 434.9872 312.660265 435.973692 315.041867 437.729413 316.797588 
C 439.485134 318.553309 441.866736 319.539801 444.3497 319.539801 
z
" style="fill: #ffffff; opacity: 0.8; stroke: #000000; stroke-linejoin: miter"/>
    </g>
    <!-- 26 -->
    <g style="fill: #ff0000" transform="translate(437.9872 312.936676)scale(0.1 -0.1)">
     <use xlink:href="#DejaVuSans-32"/>
     <use xlink:href="#DejaVuSans-36" x="63.623047"/>
    </g>
   </g>
   <g id="text_52">
    <g id="patch_46">
     <path d="M 444.3497 250.498705 
C 446.832664 250.498705 449.214267 249.512213 450.969988 247.756492 
C 452.725708 246.000772 453.7122 243.619169 453.7122 241.136205 
C 453.7122 238.653241 452.725708 236.271639 450.969988 234.515918 
C 449.214267 232.760197 446.832664 231.773705 444.3497 231.773705 
C 441.866736 231.773705 439.485134 232.760197 437.729413 234.515918 
C 435.973692 236.271639 434.9872 238.653241 434.9872 241.136205 
C 434.9872 243.619169 435.973692 246.000772 437.729413 247.756492 
C 439.485134 249.512213 441.866736 250.498705 444.3497 250.498705 
z
" style="fill: #ffffff; opacity: 0.8; stroke: #000000; stroke-linejoin: miter"/>
    </g>
    <!-- 27 -->
    <g style="fill: #ff0000" transform="translate(437.9872 243.89558)scale(0.1 -0.1)">
     <use xlink:href="#DejaVuSans-32"/>
     <use xlink:href="#DejaVuSans-37" x="63.623047"/>
    </g>
   </g>
   <g id="text_53">
    <g id="patch_47">
     <path d="M 444.3497 434.608294 
C 446.832664 434.608294 449.214267 433.621802 450.969988 431.866081 
C 452.725708 430.110361 453.7122 427.728758 453.7122 425.245794 
C 453.7122 422.76283 452.725708 420.381228 450.969988 418.625507 
C 449.214267 416.869786 446.832664 415.883294 444.3497 415.883294 
C 441.866736 415.883294 439.485134 416.869786 437.729413 418.625507 
C 435.973692 420.381228 434.9872 422.76283 434.9872 425.245794 
C 434.9872 427.728758 435.973692 430.110361 437.729413 431.866081 
C 439.485134 433.621802 441.866736 434.608294 444.3497 434.608294 
z
" style="fill: #ffffff; opacity: 0.8; stroke: #000000; stroke-linejoin: miter"/>
    </g>
    <!-- 28 -->
    <g style="fill: #ff0000" transform="translate(437.9872 428.005169)scale(0.1 -0.1)">
     <use xlink:href="#DejaVuSans-32"/>
     <use xlink:href="#DejaVuSans-38" x="63.623047"/>
    </g>
   </g>
   <g id="text_54">
    <g id="patch_48">
     <path d="M 260.240111 388.580897 
C 262.723075 388.580897 265.104678 387.594405 266.860399 385.838684 
C 268.616119 384.082963 269.602611 381.701361 269.602611 379.218397 
C 269.602611 376.735433 268.616119 374.35383 266.860399 372.59811 
C 265.104678 370.842389 262.723075 369.855897 260.240111 369.855897 
C 257.757147 369.855897 255.375545 370.842389 253.619824 372.59811 
C 251.864103 374.35383 250.877611 376.735433 250.877611 379.218397 
C 250.877611 381.701361 251.864103 384.082963 253.619824 385.838684 
C 255.375545 387.594405 257.757147 388.580897 260.240111 388.580897 
z
" style="fill: #ffffff; opacity: 0.8; stroke: #000000; stroke-linejoin: miter"/>
    </g>
    <!-- 29 -->
    <g style="fill: #ff0000" transform="translate(253.877611 381.977772)scale(0.1 -0.1)">
     <use xlink:href="#DejaVuSans-32"/>
     <use xlink:href="#DejaVuSans-39" x="63.623047"/>
    </g>
   </g>
   <g id="text_55">
    <g id="patch_49">
     <path d="M 490.377098 365.567198 
C 492.860062 365.567198 495.241664 364.580706 496.997385 362.824985 
C 498.753106 361.069265 499.739598 358.687662 499.739598 356.204698 
C 499.739598 353.721734 498.753106 351.340132 496.997385 349.584411 
C 495.241664 347.82869 492.860062 346.842198 490.377098 346.842198 
C 487.894134 346.842198 485.512531 347.82869 483.75681 349.584411 
C 482.00109 351.340132 481.014598 353.721734 481.014598 356.204698 
C 481.014598 358.687662 482.00109 361.069265 483.75681 362.824985 
C 485.512531 364.580706 487.894134 365.567198 490.377098 365.567198 
z
" style="fill: #ffffff; opacity: 0.8; stroke: #000000; stroke-linejoin: miter"/>
    </g>
    <!-- 30 -->
    <g style="fill: #ff0000" transform="translate(484.014598 358.964073)scale(0.1 -0.1)">
     <use xlink:href="#DejaVuSans-33"/>
     <use xlink:href="#DejaVuSans-30" x="63.623047"/>
    </g>
   </g>
   <g id="text_56">
    <g id="patch_50">
     <path d="M 444.3497 181.457609 
C 446.832664 181.457609 449.214267 180.471117 450.969988 178.715396 
C 452.725708 176.959676 453.7122 174.578073 453.7122 172.095109 
C 453.7122 169.612145 452.725708 167.230543 450.969988 165.474822 
C 449.214267 163.719101 446.832664 162.732609 444.3497 162.732609 
C 441.866736 162.732609 439.485134 163.719101 437.729413 165.474822 
C 435.973692 167.230543 434.9872 169.612145 434.9872 172.095109 
C 434.9872 174.578073 435.973692 176.959676 437.729413 178.715396 
C 439.485134 180.471117 441.866736 181.457609 444.3497 181.457609 
z
" style="fill: #ffffff; opacity: 0.8; stroke: #000000; stroke-linejoin: miter"/>
    </g>
    <!-- 31 -->
    <g style="fill: #ff0000" transform="translate(437.9872 174.854484)scale(0.1 -0.1)">
     <use xlink:href="#DejaVuSans-33"/>
     <use xlink:href="#DejaVuSans-31" x="63.623047"/>
    </g>
   </g>
   <g id="text_57">
    <g id="patch_51">
     <path d="M 490.377098 135.430212 
C 492.860062 135.430212 495.241664 134.44372 496.997385 132.687999 
C 498.753106 130.932278 499.739598 128.550676 499.739598 126.067712 
C 499.739598 123.584748 498.753106 121.203145 496.997385 119.447425 
C 495.241664 117.691704 492.860062 116.705212 490.377098 116.705212 
C 487.894134 116.705212 485.512531 117.691704 483.75681 119.447425 
C 482.00109 121.203145 481.014598 123.584748 481.014598 126.067712 
C 481.014598 128.550676 482.00109 130.932278 483.75681 132.687999 
C 485.512531 134.44372 487.894134 135.430212 490.377098 135.430212 
z
" style="fill: #ffffff; opacity: 0.8; stroke: #000000; stroke-linejoin: miter"/>
    </g>
    <!-- 32 -->
    <g style="fill: #ff0000" transform="translate(484.014598 128.827087)scale(0.1 -0.1)">
     <use xlink:href="#DejaVuSans-33"/>
     <use xlink:href="#DejaVuSans-32" x="63.623047"/>
    </g>
   </g>
   <g id="text_58">
    <g id="patch_52">
     <path d="M 444.3497 66.389116 
C 446.832664 66.389116 449.214267 65.402624 450.969988 63.646903 
C 452.725708 61.891183 453.7122 59.50958 453.7122 57.026616 
C 453.7122 54.543652 452.725708 52.162049 450.969988 50.406329 
C 449.214267 48.650608 446.832664 47.664116 444.3497 47.664116 
C 441.866736 47.664116 439.485134 48.650608 437.729413 50.406329 
C 435.973692 52.162049 434.9872 54.543652 434.9872 57.026616 
C 434.9872 59.50958 435.973692 61.891183 437.729413 63.646903 
C 439.485134 65.402624 441.866736 66.389116 444.3497 66.389116 
z
" style="fill: #ffffff; opacity: 0.8; stroke: #000000; stroke-linejoin: miter"/>
    </g>
    <!-- 33 -->
    <g style="fill: #ff0000" transform="translate(437.9872 59.785991)scale(0.1 -0.1)">
     <use xlink:href="#DejaVuSans-33"/>
     <use xlink:href="#DejaVuSans-33" x="63.623047"/>
    </g>
   </g>
   <g id="text_59">
    <g id="patch_53">
     <path d="M 398.322303 181.457609 
C 400.805267 181.457609 403.18687 180.471117 404.94259 178.715396 
C 406.698311 176.959676 407.684803 174.578073 407.684803 172.095109 
C 407.684803 169.612145 406.698311 167.230543 404.94259 165.474822 
C 403.18687 163.719101 400.805267 162.732609 398.322303 162.732609 
C 395.839339 162.732609 393.457737 163.719101 391.702016 165.474822 
C 389.946295 167.230543 388.959803 169.612145 388.959803 172.095109 
C 388.959803 174.578073 389.946295 176.959676 391.702016 178.715396 
C 393.457737 180.471117 395.839339 181.457609 398.322303 181.457609 
z
" style="fill: #ffffff; opacity: 0.8; stroke: #000000; stroke-linejoin: miter"/>
    </g>
    <!-- 34 -->
    <g style="fill: #ff0000" transform="translate(391.959803 174.854484)scale(0.1 -0.1)">
     <use xlink:href="#DejaVuSans-33"/>
     <use xlink:href="#DejaVuSans-34" x="63.623047"/>
    </g>
   </g>
   <g id="text_60">
    <g id="patch_54">
     <path d="M 260.240111 112.416513 
C 262.723075 112.416513 265.104678 111.430021 266.860399 109.674301 
C 268.616119 107.91858 269.602611 105.536977 269.602611 103.054013 
C 269.602611 100.571049 268.616119 98.189447 266.860399 96.433726 
C 265.104678 94.678005 262.723075 93.691513 260.240111 93.691513 
C 257.757147 93.691513 255.375545 94.678005 253.619824 96.433726 
C 251.864103 98.189447 250.877611 100.571049 250.877611 103.054013 
C 250.877611 105.536977 251.864103 107.91858 253.619824 109.674301 
C 255.375545 111.430021 257.757147 112.416513 260.240111 112.416513 
z
" style="fill: #ffffff; opacity: 0.8; stroke: #000000; stroke-linejoin: miter"/>
    </g>
    <!-- 35 -->
    <g style="fill: #ff0000" transform="translate(253.877611 105.813388)scale(0.1 -0.1)">
     <use xlink:href="#DejaVuSans-33"/>
     <use xlink:href="#DejaVuSans-35" x="63.623047"/>
    </g>
   </g>
   <g id="text_61">
    <!-- [1] -->
    <g transform="translate(38.362778 420.333936)scale(0.1 -0.1)">
     <defs>
      <path id="DejaVuSans-5b" d="M 550 4863 
L 1875 4863 
L 1875 4416 
L 1125 4416 
L 1125 -397 
L 1875 -397 
L 1875 -844 
L 550 -844 
L 550 4863 
z
" transform="scale(0.015625)"/>
      <path id="DejaVuSans-5d" d="M 1947 4863 
L 1947 -844 
L 622 -844 
L 622 -397 
L 1369 -397 
L 1369 4416 
L 622 4416 
L 622 4863 
L 1947 4863 
z
" transform="scale(0.015625)"/>
     </defs>
     <use xlink:href="#DejaVuSans-5b"/>
     <use xlink:href="#DejaVuSans-31" x="39.013672"/>
     <use xlink:href="#DejaVuSans-5d" x="102.636719"/>
    </g>
   </g>
   <g id="text_62">
    <!-- [1] -->
    <g transform="translate(161.102504 412.662703)scale(0.1 -0.1)">
     <use xlink:href="#DejaVuSans-5b"/>
     <use xlink:href="#DejaVuSans-31" x="39.013672"/>
     <use xlink:href="#DejaVuSans-5d" x="102.636719"/>
    </g>
   </g>
   <g id="text_63">
    <!-- [1] -->
    <g transform="translate(53.705244 266.909279)scale(0.1 -0.1)">
     <use xlink:href="#DejaVuSans-5b"/>
     <use xlink:href="#DejaVuSans-31" x="39.013672"/>
     <use xlink:href="#DejaVuSans-5d" x="102.636719"/>
    </g>
   </g>
   <g id="text_64">
    <!-- [2] -->
    <g transform="translate(38.362778 182.525717)scale(0.1 -0.1)">
     <use xlink:href="#DejaVuSans-5b"/>
     <use xlink:href="#DejaVuSans-32" x="39.013672"/>
     <use xlink:href="#DejaVuSans-5d" x="102.636719"/>
    </g>
   </g>
   <g id="text_65">
    <!-- [2] -->
    <g transform="translate(99.732641 151.840786)scale(0.1 -0.1)">
     <use xlink:href="#DejaVuSans-5b"/>
     <use xlink:href="#DejaVuSans-32" x="39.013672"/>
     <use xlink:href="#DejaVuSans-5d" x="102.636719"/>
    </g>
   </g>
   <g id="text_66">
    <!-- [2] -->
    <g transform="translate(115.075107 29.10106)scale(0.1 -0.1)">
     <use xlink:href="#DejaVuSans-5b"/>
     <use xlink:href="#DejaVuSans-32" x="39.013672"/>
     <use xlink:href="#DejaVuSans-5d" x="102.636719"/>
    </g>
   </g>
   <g id="text_67">
    <!-- [1] -->
    <g transform="translate(406.581956 266.909279)scale(0.1 -0.1)">
     <use xlink:href="#DejaVuSans-5b"/>
     <use xlink:href="#DejaVuSans-31" x="39.013672"/>
     <use xlink:href="#DejaVuSans-5d" x="102.636719"/>
    </g>
   </g>
   <g id="text_68">
    <!-- [1] -->
    <g transform="translate(406.581956 443.347635)scale(0.1 -0.1)">
     <use xlink:href="#DejaVuSans-5b"/>
     <use xlink:href="#DejaVuSans-31" x="39.013672"/>
     <use xlink:href="#DejaVuSans-5d" x="102.636719"/>
    </g>
   </g>
   <g id="text_69">
    <!-- [1] -->
    <g transform="translate(467.951819 305.265443)scale(0.1 -0.1)">
     <use xlink:href="#DejaVuSans-5b"/>
     <use xlink:href="#DejaVuSans-31" x="39.013672"/>
     <use xlink:href="#DejaVuSans-5d" x="102.636719"/>
    </g>
   </g>
   <g id="text_70">
    <!-- [2] -->
    <g transform="translate(421.924422 113.484621)scale(0.1 -0.1)">
     <use xlink:href="#DejaVuSans-5b"/>
     <use xlink:href="#DejaVuSans-32" x="39.013672"/>
     <use xlink:href="#DejaVuSans-5d" x="102.636719"/>
    </g>
   </g>
   <g id="text_71">
    <!-- [2] -->
    <g transform="translate(452.609354 220.881881)scale(0.1 -0.1)">
     <use xlink:href="#DejaVuSans-5b"/>
     <use xlink:href="#DejaVuSans-32" x="39.013672"/>
     <use xlink:href="#DejaVuSans-5d" x="102.636719"/>
    </g>
   </g>
   <g id="text_72">
    <!-- [2] -->
    <g transform="translate(360.554559 90.470923)scale(0.1 -0.1)">
     <use xlink:href="#DejaVuSans-5b"/>
     <use xlink:href="#DejaVuSans-32" x="39.013672"/>
     <use xlink:href="#DejaVuSans-5d" x="102.636719"/>
    </g>
   </g>
  </g>
 </g>
 <defs>
  <clipPath id="pff9fe6de12">
   <rect x="30.103125" y="10.999219" width="460.273973" height="460.273973"/>
  </clipPath>
 </defs>
</svg>
