<?xml version="1.0" encoding="utf-8" standalone="no"?>
<!DOCTYPE svg PUBLIC "-//W3C//DTD SVG 1.1//EN"
  "http://www.w3.org/Graphics/SVG/1.1/DTD/svg11.dtd">
<svg xmlns:xlink="http://www.w3.org/1999/xlink" width="523.452098pt" height="495.151316pt" viewBox="0 0 523.452098 495.151316" xmlns="http://www.w3.org/2000/svg" version="1.1">
 <metadata>
  <rdf:RDF xmlns:dc="http://purl.org/dc/elements/1.1/" xmlns:cc="http://creativecommons.org/ns#" xmlns:rdf="http://www.w3.org/1999/02/22-rdf-syntax-ns#">
   <cc:Work>
    <dc:type rdf:resource="http://purl.org/dc/dcmitype/StillImage"/>
    <dc:date>2023-09-11T18:03:59.733501</dc:date>
    <dc:format>image/svg+xml</dc:format>
    <dc:creator>
     <cc:Agent>
      <dc:title>Matplotlib v3.5.2, https://matplotlib.org/</dc:title>
     </cc:Agent>
    </dc:creator>
   </cc:Work>
  </rdf:RDF>
 </metadata>
 <defs>
  <style type="text/css">*{stroke-linejoin: round; stroke-linecap: butt}</style>
 </defs>
 <g id="figure_1">
  <g id="patch_1">
   <path d="M 0 495.151316 
L 523.452098 495.151316 
L 523.452098 0 
L 0 0 
z
" style="fill: #ffffff"/>
  </g>
  <g id="axes_1">
   <g id="patch_2">
    <path d="M 44.845313 471.273191 
L 505.119285 471.273191 
L 505.119285 10.999219 
L 44.845313 10.999219 
z
" style="fill: #ffffff"/>
   </g>
   <g id="patch_3">
    <path d="M 101.92704 319.706891 
L 106.549338 317.703268 
M 101.92704 319.706891 
L -514.258244 282.795853 
M 101.92704 319.706891 
L 101.002797 481.107394 
M 101.002797 481.107394 
L -514.258244 1507.392938 
M 101.002797 481.107394 
L 137.948761 433.83607 
M 166.097112 388.858674 
L 160.326277 347.837313 
M 166.097112 388.858674 
L 137.948761 433.83607 
M 166.097112 388.858674 
L 211.321653 377.854242 
M 160.326277 347.837313 
L 168.853364 330.530482 
M 160.326277 347.837313 
L 106.549338 317.703268 
M 233.523291 342.149561 
L 168.853364 330.530482 
M 233.523291 342.149561 
L 234.557331 344.557971 
M 233.523291 342.149561 
L 222.651741 307.848356 
M 137.948761 433.83607 
L 253.922486 421.222582 
M 211.321653 377.854242 
L 254.744664 415.342184 
M 211.321653 377.854242 
L 231.01926 355.234892 
M 213.841063 298.562604 
L 213.276526 293.598076 
M 213.841063 298.562604 
L 168.979823 330.202699 
M 213.841063 298.562604 
L 222.450752 307.313989 
M 168.853364 330.530482 
L 168.979823 330.202699 
M 125.0441 275.80901 
L -38.784425 138.646156 
M 125.0441 275.80901 
L 126.134348 277.757143 
M 125.0441 275.80901 
L 101.119202 171.741128 
M 123.263854 280.606517 
L 126.134348 277.757143 
M 123.263854 280.606517 
L -514.258244 153.344129 
M 123.263854 280.606517 
L 106.549338 317.703268 
M -38.784425 138.646156 
L 101.119202 171.741128 
M -38.784425 138.646156 
L -514.258244 -0.145238 
M 148.779249 273.82166 
L 126.134348 277.757143 
M 148.779249 273.82166 
L 168.979823 330.202699 
M 148.779249 273.82166 
L 167.223892 257.573763 
M 206.083656 279.535629 
L 207.334649 278.489023 
M 206.083656 279.535629 
L 184.730062 257.204563 
M 206.083656 279.535629 
L 213.276526 293.598076 
M 184.730062 257.204563 
L 206.77721 225.076267 
M 184.730062 257.204563 
L 167.223892 257.573763 
M 254.744664 415.342184 
L 253.922486 421.222582 
M 254.744664 415.342184 
L 272.452863 400.383913 
M 222.651741 307.848356 
L 222.450752 307.313989 
M 222.651741 307.848356 
L 259.747594 317.681965 
M 213.276526 293.598076 
L 236.61311 280.887174 
M 234.557331 344.557971 
L 231.01926 355.234892 
M 234.557331 344.557971 
L 245.765145 341.866944 
M 222.450752 307.313989 
L 272.408429 297.376399 
M 259.747594 317.681965 
L 245.765145 341.866944 
M 259.747594 317.681965 
L 275.036191 302.555181 
M 245.765145 341.866944 
L 301.448901 341.100474 
M 275.036191 302.555181 
L 272.408429 297.376399 
M 275.036191 302.555181 
L 300.461077 330.857353 
M 272.258736 291.226909 
L 269.693152 287.875276 
M 272.258736 291.226909 
L 272.829063 292.505896 
M 272.258736 291.226909 
L 277.94424 277.198459 
M 283.201416 386.591594 
L 231.01926 355.234892 
M 283.201416 386.591594 
L 272.452863 400.383913 
M 283.201416 386.591594 
L 293.285452 380.850138 
M 272.408429 297.376399 
L 272.829063 292.505896 
M 243.035178 251.575418 
L 244.126622 246.938292 
M 243.035178 251.575418 
L 207.334649 278.489023 
M 243.035178 251.575418 
L 248.049622 267.968962 
M 207.334649 278.489023 
L 234.775058 240.051513 
M 236.61311 280.887174 
L 248.049622 267.968962 
M 236.61311 280.887174 
L 269.693152 287.875276 
M 248.049622 267.968962 
L 262.870887 272.201646 
M 267.980638 259.110443 
L 264.852657 254.762196 
M 267.980638 259.110443 
L 268.008345 259.399344 
M 267.980638 259.110443 
L 276.847368 252.84084 
M 262.870887 272.201646 
L 268.008345 259.399344 
M 262.870887 272.201646 
L 269.693152 287.875276 
M 264.852657 254.762196 
L 267.334299 247.208336 
M 264.852657 254.762196 
L 244.126622 246.938292 
M 277.326907 246.810181 
L 279.780554 245.200994 
M 277.326907 246.810181 
L 275.651121 245.125641 
M 277.326907 246.810181 
L 277.075946 247.682824 
M 277.075946 247.682824 
L 267.334299 247.208336 
M 277.075946 247.682824 
L 276.847368 252.84084 
M 244.126622 246.938292 
L 243.297111 243.512259 
M 234.775058 240.051513 
L 243.297111 243.512259 
M 234.775058 240.051513 
L 206.77721 225.076267 
M 301.448901 341.100474 
L 312.139237 358.822987 
M 301.448901 341.100474 
L 300.461077 330.857353 
M 253.922486 421.222582 
L 1219.119925 7996.742742 
M 267.334299 247.208336 
L 267.375829 246.906354 
M 124.10075 176.920201 
L 167.223892 257.573763 
M 124.10075 176.920201 
L 206.827729 224.630937 
M 124.10075 176.920201 
L 121.384499 173.277899 
M 206.77721 225.076267 
L 206.827729 224.630937 
M 206.827729 224.630937 
L 217.928913 200.222467 
M 121.384499 173.277899 
L 101.119202 171.741128 
M 121.384499 173.277899 
L 133.923626 167.273389 
M 226.984508 191.833599 
L 225.129555 145.745391 
M 226.984508 191.833599 
L 217.928913 200.222467 
M 226.984508 191.833599 
L 239.951431 196.852588 
M 217.928913 200.222467 
L 133.923626 167.273389 
M 252.871457 228.101726 
L 239.951431 196.852588 
M 252.871457 228.101726 
L 252.794751 229.32681 
M 252.871457 228.101726 
L 257.025715 225.646115 
M 239.951431 196.852588 
L 261.43748 195.402412 
M 133.923626 167.273389 
L 198.233731 118.223501 
M 194.655583 106.220669 
L 198.233731 118.223501 
M 194.655583 106.220669 
L 171.318614 -53.292354 
M 194.655583 106.220669 
L -514.258244 -0.145238 
M 198.233731 118.223501 
L 201.048927 119.488084 
M 171.318614 -53.292354 
L 219.73095 5.876996 
M 257.468559 93.633984 
L 201.048927 119.488084 
M 257.468559 93.633984 
L 285.69307 91.940966 
M 257.468559 93.633984 
L 219.73095 5.876996 
M 201.048927 119.488084 
L 225.129555 145.745391 
M 247.53538 146.312883 
L 289.008188 123.372524 
M 247.53538 146.312883 
L 225.129555 145.745391 
M 247.53538 146.312883 
L 271.302166 165.883587 
M 285.69307 91.940966 
L 265.176388 49.358743 
M 285.69307 91.940966 
L 303.088201 99.215577 
M 219.73095 5.876996 
L 265.176388 49.358743 
M 261.43748 195.402412 
L 268.343645 211.205515 
M 261.43748 195.402412 
L 274.275204 188.247682 
M 266.895169 243.106286 
L 248.169511 237.74333 
M 266.895169 243.106286 
L 267.375829 246.906354 
M 266.895169 243.106286 
L 269.533961 238.615617 
M 267.375829 246.906354 
L 273.992168 244.553504 
M 273.303126 243.355283 
L 269.533961 238.615617 
M 273.303126 243.355283 
L 273.992168 244.553504 
M 273.303126 243.355283 
L 274.483278 241.835713 
M 269.533961 238.615617 
L 269.975464 237.184684 
M 275.664776 242.507799 
L 275.651121 245.125641 
M 275.664776 242.507799 
L 276.05545 241.656181 
M 275.664776 242.507799 
L 274.483278 241.835713 
M 273.992168 244.553504 
L 275.651121 245.125641 
M 276.05545 241.656181 
L 276.551791 240.852087 
M 276.05545 241.656181 
L 273.716336 240.878755 
M 274.483278 241.835713 
L 273.716336 240.878755 
M 273.716336 240.878755 
L 269.975464 237.184684 
M 257.025715 225.646115 
L 274.469977 221.272372 
M 257.025715 225.646115 
L 268.343645 211.205515 
M 270.077196 234.258747 
L 252.794751 229.32681 
M 270.077196 234.258747 
L 270.001347 237.050198 
M 270.077196 234.258747 
L 277.880221 228.773527 
M 274.465132 217.786766 
L 268.343645 211.205515 
M 274.465132 217.786766 
L 274.469977 221.272372 
M 274.465132 217.786766 
L 284.328497 211.775876 
M 252.794751 229.32681 
L 248.169511 237.74333 
M 274.469977 221.272372 
L 277.880221 228.773527 
M 276.551791 240.852087 
L 270.001347 237.050198 
M 276.551791 240.852087 
L 277.944027 240.401142 
M 271.302166 165.883587 
L 274.275204 188.247682 
M 271.302166 165.883587 
L 272.666407 165.29537 
M 274.275204 188.247682 
L 282.278407 190.267685 
M 277.880221 228.773527 
L 282.716487 230.599102 
M 270.001347 237.050198 
L 269.975464 237.184684 
M 277.944027 240.401142 
L 282.716487 230.599102 
M 277.944027 240.401142 
L 279.780554 245.200994 
M 248.169511 237.74333 
L 243.297111 243.512259 
M 289.008188 123.372524 
L 298.996894 117.681984 
M 289.008188 123.372524 
L 272.666407 165.29537 
M 268.008345 259.399344 
L 279.205483 263.676581 
M 284.062673 270.104466 
L 277.94424 277.198459 
M 284.062673 270.104466 
L 292.57684 269.455131 
M 284.062673 270.104466 
L 283.150031 266.216997 
M 277.94424 277.198459 
L 279.205483 263.676581 
M 292.57684 269.455131 
L 290.789244 265.18933 
M 292.57684 269.455131 
L 299.767191 277.91897 
M 283.150031 266.216997 
L 290.789244 265.18933 
M 283.150031 266.216997 
L 279.481754 263.620548 
M 293.285452 380.850138 
L 312.139237 358.822987 
M 293.285452 380.850138 
L 329.927741 462.831448 
M 329.927741 462.831448 
L 272.452863 400.383913 
M 329.927741 462.831448 
L 336.084883 473.453776 
M 306.826963 277.77555 
L 313.555579 267.634028 
M 306.826963 277.77555 
L 299.767191 277.91897 
M 306.826963 277.77555 
L 317.088086 303.372833 
M 272.829063 292.505896 
L 299.767191 277.91897 
M 279.205483 263.676581 
L 279.481754 263.620548 
M 282.434391 253.833194 
L 287.132708 256.744909 
M 282.434391 253.833194 
L 283.225836 248.390265 
M 282.434391 253.833194 
L 276.847368 252.84084 
M 287.132708 256.744909 
L 279.481754 263.620548 
M 287.132708 256.744909 
L 290.156912 256.743994 
M 283.225836 248.390265 
L 296.786784 247.542844 
M 283.225836 248.390265 
L 281.57883 244.900187 
M 279.780554 245.200994 
L 281.57883 244.900187 
M 296.573815 251.468837 
L 313.555579 267.634028 
M 296.573815 251.468837 
L 296.786784 247.542844 
M 296.573815 251.468837 
L 290.156912 256.743994 
M 290.789244 265.18933 
L 290.156912 256.743994 
M 313.555579 267.634028 
L 315.122183 266.828956 
M 296.786784 247.542844 
L 298.08822 238.841439 
M 312.139237 358.822987 
L 330.959915 362.411201 
M 340.469198 413.493623 
L 336.084883 473.453776 
M 340.469198 413.493623 
L 389.508727 393.117933 
M 340.469198 413.493623 
L 330.959915 362.411201 
M 336.084883 473.453776 
L 388.450627 740.399031 
M 389.508727 393.117933 
L 388.450627 740.399031 
M 389.508727 393.117933 
L 391.36189 383.382409 
M 330.959915 362.411201 
L 360.649309 354.300947 
M 387.176396 375.513559 
L 391.36189 383.382409 
M 387.176396 375.513559 
L 438.95237 333.393176 
M 387.176396 375.513559 
L 360.649309 354.300947 
M 391.36189 383.382409 
L 684.492254 430.920733 
M 684.492254 430.920733 
L 1219.119925 603.040947 
M 684.492254 430.920733 
L 444.603929 330.476884 
M 438.95237 333.393176 
L 444.603929 330.476884 
M 438.95237 333.393176 
L 367.298091 336.826846 
M 388.450627 740.399031 
L 1219.119925 7996.742742 
M 360.649309 354.300947 
L 367.298091 336.826846 
M 326.620366 264.054967 
L 332.553926 259.657268 
M 326.620366 264.054967 
L 315.122183 266.828956 
M 326.620366 264.054967 
L 335.788077 297.103988 
M 315.122183 266.828956 
L 310.894584 240.771185 
M 317.088086 303.372833 
L 300.461077 330.857353 
M 317.088086 303.372833 
L 335.788077 297.103988 
M 335.788077 297.103988 
L 373.707663 298.969204 
M 413.198447 287.53888 
L 444.603929 330.476884 
M 413.198447 287.53888 
L 1219.119925 190.113721 
M 413.198447 287.53888 
L 395.149969 270.997595 
M 332.553926 259.657268 
L 339.163027 258.527371 
M 332.553926 259.657268 
L 320.799051 239.696466 
M 394.471353 271.400897 
L 395.101554 270.987956 
M 394.471353 271.400897 
L 339.163027 258.527371 
M 394.471353 271.400897 
L 373.707663 298.969204 
M 373.707663 298.969204 
L 367.298091 336.826846 
M 395.149969 270.997595 
L 599.245975 164.223225 
M 395.149969 270.997595 
L 395.101554 270.987956 
M 310.894584 240.771185 
L 320.799051 239.696466 
M 310.894584 240.771185 
L 308.260642 239.933985 
M 294.158606 232.439843 
L 282.716487 230.599102 
M 294.158606 232.439843 
L 294.763848 234.009002 
M 294.158606 232.439843 
L 296.939646 224.769002 
M 281.57883 244.900187 
L 294.763848 234.009002 
M 294.763848 234.009002 
L 298.08822 238.841439 
M 284.328497 211.775876 
L 295.264688 218.677515 
M 284.328497 211.775876 
L 282.278407 190.267685 
M 305.488258 222.257939 
L 296.939646 224.769002 
M 305.488258 222.257939 
L 314.21882 223.731783 
M 305.488258 222.257939 
L 317.156096 200.829932 
M 296.939646 224.769002 
L 295.264688 218.677515 
M 314.21882 223.731783 
L 314.993067 224.845581 
M 314.21882 223.731783 
L 327.044831 203.527319 
M 317.156096 200.829932 
L 320.953486 198.353833 
M 317.156096 200.829932 
L 299.799096 207.117576 
M 298.08822 238.841439 
L 308.260642 239.933985 
M 295.264688 218.677515 
L 299.799096 207.117576 
M 265.176388 49.358743 
L 335.831298 42.477175 
M 303.088201 99.215577 
L 298.996894 117.681984 
M 303.088201 99.215577 
L 315.836081 91.449673 
M 313.484489 174.491323 
L 313.934122 174.743457 
M 313.484489 174.491323 
L 310.345473 168.246987 
M 313.484489 174.491323 
L 283.090706 190.165695 
M 298.996894 117.681984 
L 299.074442 117.943261 
M 283.090706 190.165695 
L 282.278407 190.267685 
M 283.090706 190.165695 
L 299.799096 207.117576 
M 272.666407 165.29537 
L 301.463924 153.72549 
M 301.463924 153.72549 
L 299.074442 117.943261 
M 301.463924 153.72549 
L 310.345473 168.246987 
M 335.831298 42.477175 
L 331.116216 69.137556 
M 335.831298 42.477175 
L 367.820137 -53.292354 
M 320.953486 198.353833 
L 313.934122 174.743457 
M 320.953486 198.353833 
L 327.044831 203.527319 
M 325.069136 232.047179 
L 320.799051 239.696466 
M 325.069136 232.047179 
L 338.701322 224.216915 
M 325.069136 232.047179 
L 314.993067 224.845581 
M 308.260642 239.933985 
L 314.993067 224.845581 
M 338.701322 224.216915 
L 339.163027 258.527371 
M 338.701322 224.216915 
L 346.52295 213.106977 
M 327.044831 203.527319 
L 346.52295 213.106977 
M 380.159652 207.829993 
L 346.52295 213.106977 
M 380.159652 207.829993 
L 395.101554 270.987956 
M 380.159652 207.829993 
L 381.871287 203.556094 
M 381.871287 203.556094 
L 398.178215 180.84571 
M 381.871287 203.556094 
L 331.83554 169.253037 
M 313.934122 174.743457 
L 331.83554 169.253037 
M 330.966936 142.902908 
L 310.345473 168.246987 
M 330.966936 142.902908 
L 346.217848 150.044441 
M 330.966936 142.902908 
L 299.074442 117.943261 
M 346.217848 150.044441 
L 331.83554 169.253037 
M 346.217848 150.044441 
L 368.478903 139.414562 
M 315.836081 91.449673 
L 331.116216 69.137556 
M 315.836081 91.449673 
L 368.478903 139.414562 
M 378.745775 141.039355 
L 398.178215 180.84571 
M 378.745775 141.039355 
L 398.481096 103.396964 
M 378.745775 141.039355 
L 368.478903 139.414562 
M 398.178215 180.84571 
L 599.245975 164.223225 
M 331.116216 69.137556 
L 398.481096 103.396964 
M 398.481096 103.396964 
L 656.454968 -53.292354 
M 599.245975 164.223225 
L 1219.119925 9.027815 
" clip-path="url(#p24f748bee9)" style="fill: #1f77b4; stroke: #427ce5; stroke-linejoin: miter"/>
   </g>
   <g id="matplotlib.axis_1">
    <g id="xtick_1">
     <g id="line2d_1">
      <defs>
       <path id="mdcc60617e8" d="M 0 0 
L 0 3.5 
" style="stroke: #000000; stroke-width: 0.8"/>
      </defs>
      <g>
       <use xlink:href="#mdcc60617e8" x="44.845312" y="471.273191" style="stroke: #000000; stroke-width: 0.8"/>
      </g>
     </g>
     <g id="text_1">
      <!-- −1.00 -->
      <g transform="translate(29.522656 485.871629)scale(0.1 -0.1)">
       <defs>
        <path id="DejaVuSans-2212" d="M 678 2272 
L 4684 2272 
L 4684 1741 
L 678 1741 
L 678 2272 
z
" transform="scale(0.015625)"/>
        <path id="DejaVuSans-31" d="M 794 531 
L 1825 531 
L 1825 4091 
L 703 3866 
L 703 4441 
L 1819 4666 
L 2450 4666 
L 2450 531 
L 3481 531 
L 3481 0 
L 794 0 
L 794 531 
z
" transform="scale(0.015625)"/>
        <path id="DejaVuSans-2e" d="M 684 794 
L 1344 794 
L 1344 0 
L 684 0 
L 684 794 
z
" transform="scale(0.015625)"/>
        <path id="DejaVuSans-30" d="M 2034 4250 
Q 1547 4250 1301 3770 
Q 1056 3291 1056 2328 
Q 1056 1369 1301 889 
Q 1547 409 2034 409 
Q 2525 409 2770 889 
Q 3016 1369 3016 2328 
Q 3016 3291 2770 3770 
Q 2525 4250 2034 4250 
z
M 2034 4750 
Q 2819 4750 3233 4129 
Q 3647 3509 3647 2328 
Q 3647 1150 3233 529 
Q 2819 -91 2034 -91 
Q 1250 -91 836 529 
Q 422 1150 422 2328 
Q 422 3509 836 4129 
Q 1250 4750 2034 4750 
z
" transform="scale(0.015625)"/>
       </defs>
       <use xlink:href="#DejaVuSans-2212"/>
       <use xlink:href="#DejaVuSans-31" x="83.789062"/>
       <use xlink:href="#DejaVuSans-2e" x="147.412109"/>
       <use xlink:href="#DejaVuSans-30" x="179.199219"/>
       <use xlink:href="#DejaVuSans-30" x="242.822266"/>
      </g>
     </g>
    </g>
    <g id="xtick_2">
     <g id="line2d_2">
      <g>
       <use xlink:href="#mdcc60617e8" x="102.379559" y="471.273191" style="stroke: #000000; stroke-width: 0.8"/>
      </g>
     </g>
     <g id="text_2">
      <!-- −0.75 -->
      <g transform="translate(87.056903 485.871629)scale(0.1 -0.1)">
       <defs>
        <path id="DejaVuSans-37" d="M 525 4666 
L 3525 4666 
L 3525 4397 
L 1831 0 
L 1172 0 
L 2766 4134 
L 525 4134 
L 525 4666 
z
" transform="scale(0.015625)"/>
        <path id="DejaVuSans-35" d="M 691 4666 
L 3169 4666 
L 3169 4134 
L 1269 4134 
L 1269 2991 
Q 1406 3038 1543 3061 
Q 1681 3084 1819 3084 
Q 2600 3084 3056 2656 
Q 3513 2228 3513 1497 
Q 3513 744 3044 326 
Q 2575 -91 1722 -91 
Q 1428 -91 1123 -41 
Q 819 9 494 109 
L 494 744 
Q 775 591 1075 516 
Q 1375 441 1709 441 
Q 2250 441 2565 725 
Q 2881 1009 2881 1497 
Q 2881 1984 2565 2268 
Q 2250 2553 1709 2553 
Q 1456 2553 1204 2497 
Q 953 2441 691 2322 
L 691 4666 
z
" transform="scale(0.015625)"/>
       </defs>
       <use xlink:href="#DejaVuSans-2212"/>
       <use xlink:href="#DejaVuSans-30" x="83.789062"/>
       <use xlink:href="#DejaVuSans-2e" x="147.412109"/>
       <use xlink:href="#DejaVuSans-37" x="179.199219"/>
       <use xlink:href="#DejaVuSans-35" x="242.822266"/>
      </g>
     </g>
    </g>
    <g id="xtick_3">
     <g id="line2d_3">
      <g>
       <use xlink:href="#mdcc60617e8" x="159.913806" y="471.273191" style="stroke: #000000; stroke-width: 0.8"/>
      </g>
     </g>
     <g id="text_3">
      <!-- −0.50 -->
      <g transform="translate(144.591149 485.871629)scale(0.1 -0.1)">
       <use xlink:href="#DejaVuSans-2212"/>
       <use xlink:href="#DejaVuSans-30" x="83.789062"/>
       <use xlink:href="#DejaVuSans-2e" x="147.412109"/>
       <use xlink:href="#DejaVuSans-35" x="179.199219"/>
       <use xlink:href="#DejaVuSans-30" x="242.822266"/>
      </g>
     </g>
    </g>
    <g id="xtick_4">
     <g id="line2d_4">
      <g>
       <use xlink:href="#mdcc60617e8" x="217.448052" y="471.273191" style="stroke: #000000; stroke-width: 0.8"/>
      </g>
     </g>
     <g id="text_4">
      <!-- −0.25 -->
      <g transform="translate(202.125396 485.871629)scale(0.1 -0.1)">
       <defs>
        <path id="DejaVuSans-32" d="M 1228 531 
L 3431 531 
L 3431 0 
L 469 0 
L 469 531 
Q 828 903 1448 1529 
Q 2069 2156 2228 2338 
Q 2531 2678 2651 2914 
Q 2772 3150 2772 3378 
Q 2772 3750 2511 3984 
Q 2250 4219 1831 4219 
Q 1534 4219 1204 4116 
Q 875 4013 500 3803 
L 500 4441 
Q 881 4594 1212 4672 
Q 1544 4750 1819 4750 
Q 2544 4750 2975 4387 
Q 3406 4025 3406 3419 
Q 3406 3131 3298 2873 
Q 3191 2616 2906 2266 
Q 2828 2175 2409 1742 
Q 1991 1309 1228 531 
z
" transform="scale(0.015625)"/>
       </defs>
       <use xlink:href="#DejaVuSans-2212"/>
       <use xlink:href="#DejaVuSans-30" x="83.789062"/>
       <use xlink:href="#DejaVuSans-2e" x="147.412109"/>
       <use xlink:href="#DejaVuSans-32" x="179.199219"/>
       <use xlink:href="#DejaVuSans-35" x="242.822266"/>
      </g>
     </g>
    </g>
    <g id="xtick_5">
     <g id="line2d_5">
      <g>
       <use xlink:href="#mdcc60617e8" x="274.982299" y="471.273191" style="stroke: #000000; stroke-width: 0.8"/>
      </g>
     </g>
     <g id="text_5">
      <!-- 0.00 -->
      <g transform="translate(263.849486 485.871629)scale(0.1 -0.1)">
       <use xlink:href="#DejaVuSans-30"/>
       <use xlink:href="#DejaVuSans-2e" x="63.623047"/>
       <use xlink:href="#DejaVuSans-30" x="95.410156"/>
       <use xlink:href="#DejaVuSans-30" x="159.033203"/>
      </g>
     </g>
    </g>
    <g id="xtick_6">
     <g id="line2d_6">
      <g>
       <use xlink:href="#mdcc60617e8" x="332.516545" y="471.273191" style="stroke: #000000; stroke-width: 0.8"/>
      </g>
     </g>
     <g id="text_6">
      <!-- 0.25 -->
      <g transform="translate(321.383733 485.871629)scale(0.1 -0.1)">
       <use xlink:href="#DejaVuSans-30"/>
       <use xlink:href="#DejaVuSans-2e" x="63.623047"/>
       <use xlink:href="#DejaVuSans-32" x="95.410156"/>
       <use xlink:href="#DejaVuSans-35" x="159.033203"/>
      </g>
     </g>
    </g>
    <g id="xtick_7">
     <g id="line2d_7">
      <g>
       <use xlink:href="#mdcc60617e8" x="390.050792" y="471.273191" style="stroke: #000000; stroke-width: 0.8"/>
      </g>
     </g>
     <g id="text_7">
      <!-- 0.50 -->
      <g transform="translate(378.917979 485.871629)scale(0.1 -0.1)">
       <use xlink:href="#DejaVuSans-30"/>
       <use xlink:href="#DejaVuSans-2e" x="63.623047"/>
       <use xlink:href="#DejaVuSans-35" x="95.410156"/>
       <use xlink:href="#DejaVuSans-30" x="159.033203"/>
      </g>
     </g>
    </g>
    <g id="xtick_8">
     <g id="line2d_8">
      <g>
       <use xlink:href="#mdcc60617e8" x="447.585039" y="471.273191" style="stroke: #000000; stroke-width: 0.8"/>
      </g>
     </g>
     <g id="text_8">
      <!-- 0.75 -->
      <g transform="translate(436.452226 485.871629)scale(0.1 -0.1)">
       <use xlink:href="#DejaVuSans-30"/>
       <use xlink:href="#DejaVuSans-2e" x="63.623047"/>
       <use xlink:href="#DejaVuSans-37" x="95.410156"/>
       <use xlink:href="#DejaVuSans-35" x="159.033203"/>
      </g>
     </g>
    </g>
    <g id="xtick_9">
     <g id="line2d_9">
      <g>
       <use xlink:href="#mdcc60617e8" x="505.119285" y="471.273191" style="stroke: #000000; stroke-width: 0.8"/>
      </g>
     </g>
     <g id="text_9">
      <!-- 1.00 -->
      <g transform="translate(493.986473 485.871629)scale(0.1 -0.1)">
       <use xlink:href="#DejaVuSans-31"/>
       <use xlink:href="#DejaVuSans-2e" x="63.623047"/>
       <use xlink:href="#DejaVuSans-30" x="95.410156"/>
       <use xlink:href="#DejaVuSans-30" x="159.033203"/>
      </g>
     </g>
    </g>
   </g>
   <g id="matplotlib.axis_2">
    <g id="ytick_1">
     <g id="line2d_10">
      <defs>
       <path id="m51fa2dad30" d="M 0 0 
L -3.5 0 
" style="stroke: #000000; stroke-width: 0.8"/>
      </defs>
      <g>
       <use xlink:href="#m51fa2dad30" x="44.845313" y="471.273191" style="stroke: #000000; stroke-width: 0.8"/>
      </g>
     </g>
     <g id="text_10">
      <!-- −1.00 -->
      <g transform="translate(7.2 475.07241)scale(0.1 -0.1)">
       <use xlink:href="#DejaVuSans-2212"/>
       <use xlink:href="#DejaVuSans-31" x="83.789062"/>
       <use xlink:href="#DejaVuSans-2e" x="147.412109"/>
       <use xlink:href="#DejaVuSans-30" x="179.199219"/>
       <use xlink:href="#DejaVuSans-30" x="242.822266"/>
      </g>
     </g>
    </g>
    <g id="ytick_2">
     <g id="line2d_11">
      <g>
       <use xlink:href="#m51fa2dad30" x="44.845313" y="413.738945" style="stroke: #000000; stroke-width: 0.8"/>
      </g>
     </g>
     <g id="text_11">
      <!-- −0.75 -->
      <g transform="translate(7.2 417.538164)scale(0.1 -0.1)">
       <use xlink:href="#DejaVuSans-2212"/>
       <use xlink:href="#DejaVuSans-30" x="83.789062"/>
       <use xlink:href="#DejaVuSans-2e" x="147.412109"/>
       <use xlink:href="#DejaVuSans-37" x="179.199219"/>
       <use xlink:href="#DejaVuSans-35" x="242.822266"/>
      </g>
     </g>
    </g>
    <g id="ytick_3">
     <g id="line2d_12">
      <g>
       <use xlink:href="#m51fa2dad30" x="44.845313" y="356.204698" style="stroke: #000000; stroke-width: 0.8"/>
      </g>
     </g>
     <g id="text_12">
      <!-- −0.50 -->
      <g transform="translate(7.2 360.003917)scale(0.1 -0.1)">
       <use xlink:href="#DejaVuSans-2212"/>
       <use xlink:href="#DejaVuSans-30" x="83.789062"/>
       <use xlink:href="#DejaVuSans-2e" x="147.412109"/>
       <use xlink:href="#DejaVuSans-35" x="179.199219"/>
       <use xlink:href="#DejaVuSans-30" x="242.822266"/>
      </g>
     </g>
    </g>
    <g id="ytick_4">
     <g id="line2d_13">
      <g>
       <use xlink:href="#m51fa2dad30" x="44.845313" y="298.670452" style="stroke: #000000; stroke-width: 0.8"/>
      </g>
     </g>
     <g id="text_13">
      <!-- −0.25 -->
      <g transform="translate(7.2 302.46967)scale(0.1 -0.1)">
       <use xlink:href="#DejaVuSans-2212"/>
       <use xlink:href="#DejaVuSans-30" x="83.789062"/>
       <use xlink:href="#DejaVuSans-2e" x="147.412109"/>
       <use xlink:href="#DejaVuSans-32" x="179.199219"/>
       <use xlink:href="#DejaVuSans-35" x="242.822266"/>
      </g>
     </g>
    </g>
    <g id="ytick_5">
     <g id="line2d_14">
      <g>
       <use xlink:href="#m51fa2dad30" x="44.845313" y="241.136205" style="stroke: #000000; stroke-width: 0.8"/>
      </g>
     </g>
     <g id="text_14">
      <!-- 0.00 -->
      <g transform="translate(15.579688 244.935424)scale(0.1 -0.1)">
       <use xlink:href="#DejaVuSans-30"/>
       <use xlink:href="#DejaVuSans-2e" x="63.623047"/>
       <use xlink:href="#DejaVuSans-30" x="95.410156"/>
       <use xlink:href="#DejaVuSans-30" x="159.033203"/>
      </g>
     </g>
    </g>
    <g id="ytick_6">
     <g id="line2d_15">
      <g>
       <use xlink:href="#m51fa2dad30" x="44.845313" y="183.601958" style="stroke: #000000; stroke-width: 0.8"/>
      </g>
     </g>
     <g id="text_15">
      <!-- 0.25 -->
      <g transform="translate(15.579688 187.401177)scale(0.1 -0.1)">
       <use xlink:href="#DejaVuSans-30"/>
       <use xlink:href="#DejaVuSans-2e" x="63.623047"/>
       <use xlink:href="#DejaVuSans-32" x="95.410156"/>
       <use xlink:href="#DejaVuSans-35" x="159.033203"/>
      </g>
     </g>
    </g>
    <g id="ytick_7">
     <g id="line2d_16">
      <g>
       <use xlink:href="#m51fa2dad30" x="44.845313" y="126.067712" style="stroke: #000000; stroke-width: 0.8"/>
      </g>
     </g>
     <g id="text_16">
      <!-- 0.50 -->
      <g transform="translate(15.579688 129.866931)scale(0.1 -0.1)">
       <use xlink:href="#DejaVuSans-30"/>
       <use xlink:href="#DejaVuSans-2e" x="63.623047"/>
       <use xlink:href="#DejaVuSans-35" x="95.410156"/>
       <use xlink:href="#DejaVuSans-30" x="159.033203"/>
      </g>
     </g>
    </g>
    <g id="ytick_8">
     <g id="line2d_17">
      <g>
       <use xlink:href="#m51fa2dad30" x="44.845313" y="68.533465" style="stroke: #000000; stroke-width: 0.8"/>
      </g>
     </g>
     <g id="text_17">
      <!-- 0.75 -->
      <g transform="translate(15.579688 72.332684)scale(0.1 -0.1)">
       <use xlink:href="#DejaVuSans-30"/>
       <use xlink:href="#DejaVuSans-2e" x="63.623047"/>
       <use xlink:href="#DejaVuSans-37" x="95.410156"/>
       <use xlink:href="#DejaVuSans-35" x="159.033203"/>
      </g>
     </g>
    </g>
    <g id="ytick_9">
     <g id="line2d_18">
      <g>
       <use xlink:href="#m51fa2dad30" x="44.845313" y="10.999219" style="stroke: #000000; stroke-width: 0.8"/>
      </g>
     </g>
     <g id="text_18">
      <!-- 1.00 -->
      <g transform="translate(15.579688 14.798437)scale(0.1 -0.1)">
       <use xlink:href="#DejaVuSans-31"/>
       <use xlink:href="#DejaVuSans-2e" x="63.623047"/>
       <use xlink:href="#DejaVuSans-30" x="95.410156"/>
       <use xlink:href="#DejaVuSans-30" x="159.033203"/>
      </g>
     </g>
    </g>
   </g>
   <g id="line2d_19">
    <path d="M 285.952791 54.91672 
" style="fill: none; stroke: #1f77b4; stroke-width: 1.5; stroke-linecap: square"/>
    <defs>
     <path id="mfc018c7298" d="M 0 3 
C 0.795609 3 1.55874 2.683901 2.12132 2.12132 
C 2.683901 1.55874 3 0.795609 3 0 
C 3 -0.795609 2.683901 -1.55874 2.12132 -2.12132 
C 1.55874 -2.683901 0.795609 -3 0 -3 
C -0.795609 -3 -1.55874 -2.683901 -2.12132 -2.12132 
C -2.683901 -1.55874 -3 -0.795609 -3 0 
C -3 0.795609 -2.683901 1.55874 -2.12132 2.12132 
C -1.55874 2.683901 -0.795609 3 0 3 
z
" style="stroke: #ffd700"/>
    </defs>
    <g>
     <use xlink:href="#mfc018c7298" x="285.952791" y="54.91672" style="fill: #ffd700; stroke: #ffd700"/>
    </g>
   </g>
   <g id="line2d_20">
    <path d="M 265.477986 219.639408 
" style="fill: none; stroke: #ff7f0e; stroke-width: 1.5; stroke-linecap: square"/>
    <g>
     <use xlink:href="#mfc018c7298" x="265.477986" y="219.639408" style="fill: #ffd700; stroke: #ffd700"/>
    </g>
   </g>
   <g id="line2d_21">
    <path d="M 452.446452 274.630572 
" style="fill: none; stroke: #2ca02c; stroke-width: 1.5; stroke-linecap: square"/>
    <g>
     <use xlink:href="#mfc018c7298" x="452.446452" y="274.630572" style="fill: #ffd700; stroke: #ffd700"/>
    </g>
   </g>
   <g id="line2d_22">
    <path d="M 274.324307 242.383709 
" style="fill: none; stroke: #d62728; stroke-width: 1.5; stroke-linecap: square"/>
    <g>
     <use xlink:href="#mfc018c7298" x="274.324307" y="242.383709" style="fill: #ffd700; stroke: #ffd700"/>
    </g>
   </g>
   <g id="line2d_23">
    <path d="M 277.779246 151.140906 
" style="fill: none; stroke: #9467bd; stroke-width: 1.5; stroke-linecap: square"/>
    <g>
     <use xlink:href="#mfc018c7298" x="277.779246" y="151.140906" style="fill: #ffd700; stroke: #ffd700"/>
    </g>
   </g>
   <g id="line2d_24">
    <path d="M 318.537334 407.122046 
" style="fill: none; stroke: #8c564b; stroke-width: 1.5; stroke-linecap: square"/>
    <g>
     <use xlink:href="#mfc018c7298" x="318.537334" y="407.122046" style="fill: #ffd700; stroke: #ffd700"/>
    </g>
   </g>
   <g id="line2d_25">
    <path d="M 275.780761 268.107569 
" style="fill: none; stroke: #e377c2; stroke-width: 1.5; stroke-linecap: square"/>
    <g>
     <use xlink:href="#mfc018c7298" x="275.780761" y="268.107569" style="fill: #ffd700; stroke: #ffd700"/>
    </g>
   </g>
   <g id="line2d_26">
    <path d="M 262.159848 244.987501 
" style="fill: none; stroke: #7f7f7f; stroke-width: 1.5; stroke-linecap: square"/>
    <g>
     <use xlink:href="#mfc018c7298" x="262.159848" y="244.987501" style="fill: #ffd700; stroke: #ffd700"/>
    </g>
   </g>
   <g id="line2d_27">
    <path d="M 296.017372 417.187548 
" style="fill: none; stroke: #bcbd22; stroke-width: 1.5; stroke-linecap: square"/>
    <g>
     <use xlink:href="#mfc018c7298" x="296.017372" y="417.187548" style="fill: #ffd700; stroke: #ffd700"/>
    </g>
   </g>
   <g id="line2d_28">
    <path d="M 106.415011 247.956982 
" style="fill: none; stroke: #17becf; stroke-width: 1.5; stroke-linecap: square"/>
    <g>
     <use xlink:href="#mfc018c7298" x="106.415011" y="247.956982" style="fill: #ffd700; stroke: #ffd700"/>
    </g>
   </g>
   <g id="line2d_29">
    <path d="M 417.741104 136.012161 
" style="fill: none; stroke: #1f77b4; stroke-width: 1.5; stroke-linecap: square"/>
    <g>
     <use xlink:href="#mfc018c7298" x="417.741104" y="136.012161" style="fill: #ffd700; stroke: #ffd700"/>
    </g>
   </g>
   <g id="line2d_30">
    <path d="M 272.916154 246.466753 
" style="fill: none; stroke: #ff7f0e; stroke-width: 1.5; stroke-linecap: square"/>
    <g>
     <use xlink:href="#mfc018c7298" x="272.916154" y="246.466753" style="fill: #ffd700; stroke: #ffd700"/>
    </g>
   </g>
   <g id="line2d_31">
    <path d="M 415.817159 410.540731 
" style="fill: none; stroke: #2ca02c; stroke-width: 1.5; stroke-linecap: square"/>
    <g>
     <use xlink:href="#mfc018c7298" x="415.817159" y="410.540731" style="fill: #ffd700; stroke: #ffd700"/>
    </g>
   </g>
   <g id="line2d_32">
    <path d="M 140.001433 105.975832 
" style="fill: none; stroke: #d62728; stroke-width: 1.5; stroke-linecap: square"/>
    <g>
     <use xlink:href="#mfc018c7298" x="140.001433" y="105.975832" style="fill: #ffd700; stroke: #ffd700"/>
    </g>
   </g>
   <g id="line2d_33">
    <path d="M 284.989 249.406615 
" style="fill: none; stroke: #9467bd; stroke-width: 1.5; stroke-linecap: square"/>
    <g>
     <use xlink:href="#mfc018c7298" x="284.989" y="249.406615" style="fill: #ffd700; stroke: #ffd700"/>
    </g>
   </g>
   <g id="line2d_34">
    <path d="M 220.768008 415.963679 
" style="fill: none; stroke: #8c564b; stroke-width: 1.5; stroke-linecap: square"/>
    <g>
     <use xlink:href="#mfc018c7298" x="220.768008" y="415.963679" style="fill: #ffd700; stroke: #ffd700"/>
    </g>
   </g>
   <g id="line2d_35">
    <path d="M 203.296469 333.575789 
" style="fill: none; stroke: #e377c2; stroke-width: 1.5; stroke-linecap: square"/>
    <g>
     <use xlink:href="#mfc018c7298" x="203.296469" y="333.575789" style="fill: #ffd700; stroke: #ffd700"/>
    </g>
   </g>
   <g id="line2d_36">
    <path d="M 277.006466 242.397699 
" style="fill: none; stroke: #7f7f7f; stroke-width: 1.5; stroke-linecap: square"/>
    <g>
     <use xlink:href="#mfc018c7298" x="277.006466" y="242.397699" style="fill: #ffd700; stroke: #ffd700"/>
    </g>
   </g>
   <g id="line2d_37">
    <path d="M 324.295362 281.770802 
" style="fill: none; stroke: #bcbd22; stroke-width: 1.5; stroke-linecap: square"/>
    <g>
     <use xlink:href="#mfc018c7298" x="324.295362" y="281.770802" style="fill: #ffd700; stroke: #ffd700"/>
    </g>
   </g>
   <g id="line2d_38">
    <path d="M 142.336173 90.41512 
" style="fill: none; stroke: #17becf; stroke-width: 1.5; stroke-linecap: square"/>
    <g>
     <use xlink:href="#mfc018c7298" x="142.336173" y="90.41512" style="fill: #ffd700; stroke: #ffd700"/>
    </g>
   </g>
   <g id="line2d_39">
    <path d="M 350.796096 168.692994 
" style="fill: none; stroke: #1f77b4; stroke-width: 1.5; stroke-linecap: square"/>
    <g>
     <use xlink:href="#mfc018c7298" x="350.796096" y="168.692994" style="fill: #ffd700; stroke: #ffd700"/>
    </g>
   </g>
   <g id="line2d_40">
    <path d="M 281.246236 248.862387 
" style="fill: none; stroke: #ff7f0e; stroke-width: 1.5; stroke-linecap: square"/>
    <g>
     <use xlink:href="#mfc018c7298" x="281.246236" y="248.862387" style="fill: #ffd700; stroke: #ffd700"/>
    </g>
   </g>
   <g id="line2d_41">
    <path d="M 424.838069 221.857975 
" style="fill: none; stroke: #2ca02c; stroke-width: 1.5; stroke-linecap: square"/>
    <g>
     <use xlink:href="#mfc018c7298" x="424.838069" y="221.857975" style="fill: #ffd700; stroke: #ffd700"/>
    </g>
   </g>
   <g id="line2d_42">
    <path d="M 276.013945 239.333413 
" style="fill: none; stroke: #d62728; stroke-width: 1.5; stroke-linecap: square"/>
    <g>
     <use xlink:href="#mfc018c7298" x="276.013945" y="239.333413" style="fill: #ffd700; stroke: #ffd700"/>
    </g>
   </g>
   <g id="line2d_43">
    <path d="M 360.700732 106.10678 
" style="fill: none; stroke: #9467bd; stroke-width: 1.5; stroke-linecap: square"/>
    <g>
     <use xlink:href="#mfc018c7298" x="360.700732" y="106.10678" style="fill: #ffd700; stroke: #ffd700"/>
    </g>
   </g>
   <g id="line2d_44">
    <path d="M 279.607109 258.090788 
" style="fill: none; stroke: #8c564b; stroke-width: 1.5; stroke-linecap: square"/>
    <g>
     <use xlink:href="#mfc018c7298" x="279.607109" y="258.090788" style="fill: #ffd700; stroke: #ffd700"/>
    </g>
   </g>
   <g id="line2d_45">
    <path d="M 259.518152 118.127526 
" style="fill: none; stroke: #e377c2; stroke-width: 1.5; stroke-linecap: square"/>
    <g>
     <use xlink:href="#mfc018c7298" x="259.518152" y="118.127526" style="fill: #ffd700; stroke: #ffd700"/>
    </g>
   </g>
   <g id="line2d_46">
    <path d="M 312.671603 217.13798 
" style="fill: none; stroke: #7f7f7f; stroke-width: 1.5; stroke-linecap: square"/>
    <g>
     <use xlink:href="#mfc018c7298" x="312.671603" y="217.13798" style="fill: #ffd700; stroke: #ffd700"/>
    </g>
   </g>
   <g id="line2d_47">
    <path d="M 273.991688 242.125384 
" style="fill: none; stroke: #bcbd22; stroke-width: 1.5; stroke-linecap: square"/>
    <g>
     <use xlink:href="#mfc018c7298" x="273.991688" y="242.125384" style="fill: #ffd700; stroke: #ffd700"/>
    </g>
   </g>
   <g id="line2d_48">
    <path d="M 291.029199 207.616293 
" style="fill: none; stroke: #17becf; stroke-width: 1.5; stroke-linecap: square"/>
    <g>
     <use xlink:href="#mfc018c7298" x="291.029199" y="207.616293" style="fill: #ffd700; stroke: #ffd700"/>
    </g>
   </g>
   <g id="line2d_49">
    <path d="M 263.431401 359.955011 
" style="fill: none; stroke: #1f77b4; stroke-width: 1.5; stroke-linecap: square"/>
    <g>
     <use xlink:href="#mfc018c7298" x="263.431401" y="359.955011" style="fill: #ffd700; stroke: #ffd700"/>
    </g>
   </g>
   <g id="line2d_50">
    <path d="M 296.955134 292.730616 
" style="fill: none; stroke: #ff7f0e; stroke-width: 1.5; stroke-linecap: square"/>
    <g>
     <use xlink:href="#mfc018c7298" x="296.955134" y="292.730616" style="fill: #ffd700; stroke: #ffd700"/>
    </g>
   </g>
   <g id="line2d_51">
    <path d="M 271.949761 243.749203 
" style="fill: none; stroke: #2ca02c; stroke-width: 1.5; stroke-linecap: square"/>
    <g>
     <use xlink:href="#mfc018c7298" x="271.949761" y="243.749203" style="fill: #ffd700; stroke: #ffd700"/>
    </g>
   </g>
   <g id="line2d_52">
    <path d="M 308.313729 250.671885 
" style="fill: none; stroke: #d62728; stroke-width: 1.5; stroke-linecap: square"/>
    <g>
     <use xlink:href="#mfc018c7298" x="308.313729" y="250.671885" style="fill: #ffd700; stroke: #ffd700"/>
    </g>
   </g>
   <g id="line2d_53">
    <path d="M 236.871614 266.283964 
" style="fill: none; stroke: #9467bd; stroke-width: 1.5; stroke-linecap: square"/>
    <g>
     <use xlink:href="#mfc018c7298" x="236.871614" y="266.283964" style="fill: #ffd700; stroke: #ffd700"/>
    </g>
   </g>
   <g id="line2d_54">
    <path d="M 281.751663 268.664501 
" style="fill: none; stroke: #8c564b; stroke-width: 1.5; stroke-linecap: square"/>
    <g>
     <use xlink:href="#mfc018c7298" x="281.751663" y="268.664501" style="fill: #ffd700; stroke: #ffd700"/>
    </g>
   </g>
   <g id="line2d_55">
    <path d="M 185.489389 200.967635 
" style="fill: none; stroke: #e377c2; stroke-width: 1.5; stroke-linecap: square"/>
    <g>
     <use xlink:href="#mfc018c7298" x="185.489389" y="200.967635" style="fill: #ffd700; stroke: #ffd700"/>
    </g>
   </g>
   <g id="line2d_56">
    <path d="M 279.974868 241.261924 
" style="fill: none; stroke: #7f7f7f; stroke-width: 1.5; stroke-linecap: square"/>
    <g>
     <use xlink:href="#mfc018c7298" x="279.974868" y="241.261924" style="fill: #ffd700; stroke: #ffd700"/>
    </g>
   </g>
   <g id="line2d_57">
    <path d="M 378.417597 71.269794 
" style="fill: none; stroke: #bcbd22; stroke-width: 1.5; stroke-linecap: square"/>
    <g>
     <use xlink:href="#mfc018c7298" x="378.417597" y="71.269794" style="fill: #ffd700; stroke: #ffd700"/>
    </g>
   </g>
   <g id="line2d_58">
    <path d="M 403.752918 327.760917 
" style="fill: none; stroke: #17becf; stroke-width: 1.5; stroke-linecap: square"/>
    <g>
     <use xlink:href="#mfc018c7298" x="403.752918" y="327.760917" style="fill: #ffd700; stroke: #ffd700"/>
    </g>
   </g>
   <g id="line2d_59">
    <path d="M 89.563691 286.347537 
" style="fill: none; stroke: #1f77b4; stroke-width: 1.5; stroke-linecap: square"/>
    <g>
     <use xlink:href="#mfc018c7298" x="89.563691" y="286.347537" style="fill: #ffd700; stroke: #ffd700"/>
    </g>
   </g>
   <g id="line2d_60">
    <path d="M 262.926849 323.299482 
" style="fill: none; stroke: #ff7f0e; stroke-width: 1.5; stroke-linecap: square"/>
    <g>
     <use xlink:href="#mfc018c7298" x="262.926849" y="323.299482" style="fill: #ffd700; stroke: #ffd700"/>
    </g>
   </g>
   <g id="line2d_61">
    <path d="M 285.826446 272.178923 
" style="fill: none; stroke: #2ca02c; stroke-width: 1.5; stroke-linecap: square"/>
    <g>
     <use xlink:href="#mfc018c7298" x="285.826446" y="272.178923" style="fill: #ffd700; stroke: #ffd700"/>
    </g>
   </g>
   <g id="line2d_62">
    <path d="M 284.848755 247.162319 
" style="fill: none; stroke: #d62728; stroke-width: 1.5; stroke-linecap: square"/>
    <g>
     <use xlink:href="#mfc018c7298" x="284.848755" y="247.162319" style="fill: #ffd700; stroke: #ffd700"/>
    </g>
   </g>
   <g id="line2d_63">
    <path d="M 283.457392 219.614415 
" style="fill: none; stroke: #9467bd; stroke-width: 1.5; stroke-linecap: square"/>
    <g>
     <use xlink:href="#mfc018c7298" x="283.457392" y="219.614415" style="fill: #ffd700; stroke: #ffd700"/>
    </g>
   </g>
   <g id="line2d_64">
    <path d="M 454.3918 290.722901 
" style="fill: none; stroke: #8c564b; stroke-width: 1.5; stroke-linecap: square"/>
    <g>
     <use xlink:href="#mfc018c7298" x="454.3918" y="290.722901" style="fill: #ffd700; stroke: #ffd700"/>
    </g>
   </g>
   <g id="line2d_65">
    <path d="M 117.82083 351.535909 
" style="fill: none; stroke: #e377c2; stroke-width: 1.5; stroke-linecap: square"/>
    <g>
     <use xlink:href="#mfc018c7298" x="117.82083" y="351.535909" style="fill: #ffd700; stroke: #ffd700"/>
    </g>
   </g>
   <g id="line2d_66">
    <path d="M 334.593071 134.760676 
" style="fill: none; stroke: #7f7f7f; stroke-width: 1.5; stroke-linecap: square"/>
    <g>
     <use xlink:href="#mfc018c7298" x="334.593071" y="134.760676" style="fill: #ffd700; stroke: #ffd700"/>
    </g>
   </g>
   <g id="line2d_67">
    <path d="M 300.424633 198.355811 
" style="fill: none; stroke: #bcbd22; stroke-width: 1.5; stroke-linecap: square"/>
    <g>
     <use xlink:href="#mfc018c7298" x="300.424633" y="198.355811" style="fill: #ffd700; stroke: #ffd700"/>
    </g>
   </g>
   <g id="line2d_68">
    <path d="M 323.934737 148.379493 
" style="fill: none; stroke: #17becf; stroke-width: 1.5; stroke-linecap: square"/>
    <g>
     <use xlink:href="#mfc018c7298" x="323.934737" y="148.379493" style="fill: #ffd700; stroke: #ffd700"/>
    </g>
   </g>
   <g id="line2d_69">
    <path d="M 346.503121 240.390446 
" style="fill: none; stroke: #1f77b4; stroke-width: 1.5; stroke-linecap: square"/>
    <g>
     <use xlink:href="#mfc018c7298" x="346.503121" y="240.390446" style="fill: #ffd700; stroke: #ffd700"/>
    </g>
   </g>
   <g id="line2d_70">
    <path d="M 256.575551 69.071065 
" style="fill: none; stroke: #ff7f0e; stroke-width: 1.5; stroke-linecap: square"/>
    <g>
     <use xlink:href="#mfc018c7298" x="256.575551" y="69.071065" style="fill: #ffd700; stroke: #ffd700"/>
    </g>
   </g>
   <g id="line2d_71">
    <path d="M 175.659318 218.012271 
" style="fill: none; stroke: #2ca02c; stroke-width: 1.5; stroke-linecap: square"/>
    <g>
     <use xlink:href="#mfc018c7298" x="175.659318" y="218.012271" style="fill: #ffd700; stroke: #ffd700"/>
    </g>
   </g>
   <g id="line2d_72">
    <path d="M 227.198266 253.4524 
" style="fill: none; stroke: #d62728; stroke-width: 1.5; stroke-linecap: square"/>
    <g>
     <use xlink:href="#mfc018c7298" x="227.198266" y="253.4524" style="fill: #ffd700; stroke: #ffd700"/>
    </g>
   </g>
   <g id="line2d_73">
    <path d="M 251.07728 278.86026 
" style="fill: none; stroke: #9467bd; stroke-width: 1.5; stroke-linecap: square"/>
    <g>
     <use xlink:href="#mfc018c7298" x="251.07728" y="278.86026" style="fill: #ffd700; stroke: #ffd700"/>
    </g>
   </g>
   <g id="line2d_74">
    <path d="M 256.372294 260.319112 
" style="fill: none; stroke: #8c564b; stroke-width: 1.5; stroke-linecap: square"/>
    <g>
     <use xlink:href="#mfc018c7298" x="256.372294" y="260.319112" style="fill: #ffd700; stroke: #ffd700"/>
    </g>
   </g>
   <g id="line2d_75">
    <path d="M 263.873632 239.003537 
" style="fill: none; stroke: #e377c2; stroke-width: 1.5; stroke-linecap: square"/>
    <g>
     <use xlink:href="#mfc018c7298" x="263.873632" y="239.003537" style="fill: #ffd700; stroke: #ffd700"/>
    </g>
   </g>
   <g id="line2d_76">
    <path d="M 249.021696 288.590912 
" style="fill: none; stroke: #7f7f7f; stroke-width: 1.5; stroke-linecap: square"/>
    <g>
     <use xlink:href="#mfc018c7298" x="249.021696" y="288.590912" style="fill: #ffd700; stroke: #ffd700"/>
    </g>
   </g>
   <g id="line2d_77">
    <path d="M 296.355903 263.233751 
" style="fill: none; stroke: #bcbd22; stroke-width: 1.5; stroke-linecap: square"/>
    <g>
     <use xlink:href="#mfc018c7298" x="296.355903" y="263.233751" style="fill: #ffd700; stroke: #ffd700"/>
    </g>
   </g>
   <g id="line2d_78">
    <path d="M 129.639515 242.617737 
" style="fill: none; stroke: #17becf; stroke-width: 1.5; stroke-linecap: square"/>
    <g>
     <use xlink:href="#mfc018c7298" x="129.639515" y="242.617737" style="fill: #ffd700; stroke: #ffd700"/>
    </g>
   </g>
   <g id="line2d_79">
    <path d="M 222.673773 433.486079 
" style="fill: none; stroke: #1f77b4; stroke-width: 1.5; stroke-linecap: square"/>
    <g>
     <use xlink:href="#mfc018c7298" x="222.673773" y="433.486079" style="fill: #ffd700; stroke: #ffd700"/>
    </g>
   </g>
   <g id="line2d_80">
    <path d="M 267.312086 226.954543 
" style="fill: none; stroke: #ff7f0e; stroke-width: 1.5; stroke-linecap: square"/>
    <g>
     <use xlink:href="#mfc018c7298" x="267.312086" y="226.954543" style="fill: #ffd700; stroke: #ffd700"/>
    </g>
   </g>
   <g id="line2d_81">
    <path d="M 253.292992 317.729706 
" style="fill: none; stroke: #2ca02c; stroke-width: 1.5; stroke-linecap: square"/>
    <g>
     <use xlink:href="#mfc018c7298" x="253.292992" y="317.729706" style="fill: #ffd700; stroke: #ffd700"/>
    </g>
   </g>
   <g id="line2d_82">
    <path d="M 320.844228 222.326051 
" style="fill: none; stroke: #d62728; stroke-width: 1.5; stroke-linecap: square"/>
    <g>
     <use xlink:href="#mfc018c7298" x="320.844228" y="222.326051" style="fill: #ffd700; stroke: #ffd700"/>
    </g>
   </g>
   <g id="line2d_83">
    <path d="M 284.489833 39.896139 
" style="fill: none; stroke: #9467bd; stroke-width: 1.5; stroke-linecap: square"/>
    <g>
     <use xlink:href="#mfc018c7298" x="284.489833" y="39.896139" style="fill: #ffd700; stroke: #ffd700"/>
    </g>
   </g>
   <g id="line2d_84">
    <path d="M 274.966333 241.138391 
" style="fill: none; stroke: #8c564b; stroke-width: 1.5; stroke-linecap: square"/>
    <g>
     <use xlink:href="#mfc018c7298" x="274.966333" y="241.138391" style="fill: #ffd700; stroke: #ffd700"/>
    </g>
   </g>
   <g id="line2d_85">
    <path d="M 177.319756 296.744435 
" style="fill: none; stroke: #e377c2; stroke-width: 1.5; stroke-linecap: square"/>
    <g>
     <use xlink:href="#mfc018c7298" x="177.319756" y="296.744435" style="fill: #ffd700; stroke: #ffd700"/>
    </g>
   </g>
   <g id="line2d_86">
    <path d="M 404.452765 342.365411 
" style="fill: none; stroke: #7f7f7f; stroke-width: 1.5; stroke-linecap: square"/>
    <g>
     <use xlink:href="#mfc018c7298" x="404.452765" y="342.365411" style="fill: #ffd700; stroke: #ffd700"/>
    </g>
   </g>
   <g id="line2d_87">
    <path d="M 338.149148 187.140315 
" style="fill: none; stroke: #bcbd22; stroke-width: 1.5; stroke-linecap: square"/>
    <g>
     <use xlink:href="#mfc018c7298" x="338.149148" y="187.140315" style="fill: #ffd700; stroke: #ffd700"/>
    </g>
   </g>
   <g id="line2d_88">
    <path d="M 286.468712 171.294232 
" style="fill: none; stroke: #17becf; stroke-width: 1.5; stroke-linecap: square"/>
    <g>
     <use xlink:href="#mfc018c7298" x="286.468712" y="171.294232" style="fill: #ffd700; stroke: #ffd700"/>
    </g>
   </g>
   <g id="line2d_89">
    <path d="M 276.962639 208.957071 
" style="fill: none; stroke: #1f77b4; stroke-width: 1.5; stroke-linecap: square"/>
    <g>
     <use xlink:href="#mfc018c7298" x="276.962639" y="208.957071" style="fill: #ffd700; stroke: #ffd700"/>
    </g>
   </g>
   <g id="line2d_90">
    <path d="M 250.401597 381.638517 
" style="fill: none; stroke: #ff7f0e; stroke-width: 1.5; stroke-linecap: square"/>
    <g>
     <use xlink:href="#mfc018c7298" x="250.401597" y="381.638517" style="fill: #ffd700; stroke: #ffd700"/>
    </g>
   </g>
   <g id="line2d_91">
    <path d="M 224.561817 251.570248 
" style="fill: none; stroke: #2ca02c; stroke-width: 1.5; stroke-linecap: square"/>
    <g>
     <use xlink:href="#mfc018c7298" x="224.561817" y="251.570248" style="fill: #ffd700; stroke: #ffd700"/>
    </g>
   </g>
   <g id="line2d_92">
    <path d="M 194.64631 177.621619 
" style="fill: none; stroke: #d62728; stroke-width: 1.5; stroke-linecap: square"/>
    <g>
     <use xlink:href="#mfc018c7298" x="194.64631" y="177.621619" style="fill: #ffd700; stroke: #ffd700"/>
    </g>
   </g>
   <g id="line2d_93">
    <path d="M 363.094617 410.380095 
" style="fill: none; stroke: #9467bd; stroke-width: 1.5; stroke-linecap: square"/>
    <g>
     <use xlink:href="#mfc018c7298" x="363.094617" y="410.380095" style="fill: #ffd700; stroke: #ffd700"/>
    </g>
   </g>
   <g id="line2d_94">
    <path d="M 260.838793 216.003405 
" style="fill: none; stroke: #8c564b; stroke-width: 1.5; stroke-linecap: square"/>
    <g>
     <use xlink:href="#mfc018c7298" x="260.838793" y="216.003405" style="fill: #ffd700; stroke: #ffd700"/>
    </g>
   </g>
   <g id="line2d_95">
    <path d="M 85.669773 351.3518 
" style="fill: none; stroke: #e377c2; stroke-width: 1.5; stroke-linecap: square"/>
    <g>
     <use xlink:href="#mfc018c7298" x="85.669773" y="351.3518" style="fill: #ffd700; stroke: #ffd700"/>
    </g>
   </g>
   <g id="line2d_96">
    <path d="M 285.491458 267.786528 
" style="fill: none; stroke: #7f7f7f; stroke-width: 1.5; stroke-linecap: square"/>
    <g>
     <use xlink:href="#mfc018c7298" x="285.491458" y="267.786528" style="fill: #ffd700; stroke: #ffd700"/>
    </g>
   </g>
   <g id="line2d_97">
    <path d="M 331.337554 240.594525 
" style="fill: none; stroke: #bcbd22; stroke-width: 1.5; stroke-linecap: square"/>
    <g>
     <use xlink:href="#mfc018c7298" x="331.337554" y="240.594525" style="fill: #ffd700; stroke: #ffd700"/>
    </g>
   </g>
   <g id="line2d_98">
    <path d="M 337.739504 278.041432 
" style="fill: none; stroke: #17becf; stroke-width: 1.5; stroke-linecap: square"/>
    <g>
     <use xlink:href="#mfc018c7298" x="337.739504" y="278.041432" style="fill: #ffd700; stroke: #ffd700"/>
    </g>
   </g>
   <g id="line2d_99">
    <path d="M 423.146792 365.344819 
" style="fill: none; stroke: #1f77b4; stroke-width: 1.5; stroke-linecap: square"/>
    <g>
     <use xlink:href="#mfc018c7298" x="423.146792" y="365.344819" style="fill: #ffd700; stroke: #ffd700"/>
    </g>
   </g>
   <g id="line2d_100">
    <path d="M 274.873065 241.419016 
" style="fill: none; stroke: #ff7f0e; stroke-width: 1.5; stroke-linecap: square"/>
    <g>
     <use xlink:href="#mfc018c7298" x="274.873065" y="241.419016" style="fill: #ffd700; stroke: #ffd700"/>
    </g>
   </g>
   <g id="line2d_101">
    <path d="M 202.202397 339.665213 
" style="fill: none; stroke: #2ca02c; stroke-width: 1.5; stroke-linecap: square"/>
    <g>
     <use xlink:href="#mfc018c7298" x="202.202397" y="339.665213" style="fill: #ffd700; stroke: #ffd700"/>
    </g>
   </g>
   <g id="line2d_102">
    <path d="M 316.473236 249.348091 
" style="fill: none; stroke: #d62728; stroke-width: 1.5; stroke-linecap: square"/>
    <g>
     <use xlink:href="#mfc018c7298" x="316.473236" y="249.348091" style="fill: #ffd700; stroke: #ffd700"/>
    </g>
   </g>
   <g id="line2d_103">
    <path d="M 305.891077 213.445893 
" style="fill: none; stroke: #9467bd; stroke-width: 1.5; stroke-linecap: square"/>
    <g>
     <use xlink:href="#mfc018c7298" x="305.891077" y="213.445893" style="fill: #ffd700; stroke: #ffd700"/>
    </g>
   </g>
   <g id="line2d_104">
    <path d="M 141.28974 309.653509 
" style="fill: none; stroke: #8c564b; stroke-width: 1.5; stroke-linecap: square"/>
    <g>
     <use xlink:href="#mfc018c7298" x="141.28974" y="309.653509" style="fill: #ffd700; stroke: #ffd700"/>
    </g>
   </g>
   <g id="line2d_105">
    <path d="M 258.075952 175.068709 
" style="fill: none; stroke: #e377c2; stroke-width: 1.5; stroke-linecap: square"/>
    <g>
     <use xlink:href="#mfc018c7298" x="258.075952" y="175.068709" style="fill: #ffd700; stroke: #ffd700"/>
    </g>
   </g>
   <g id="line2d_106">
    <path d="M 278.481808 151.414769 
" style="fill: none; stroke: #7f7f7f; stroke-width: 1.5; stroke-linecap: square"/>
    <g>
     <use xlink:href="#mfc018c7298" x="278.481808" y="151.414769" style="fill: #ffd700; stroke: #ffd700"/>
    </g>
   </g>
   <g id="line2d_107">
    <path d="M 254.164222 314.44312 
" style="fill: none; stroke: #bcbd22; stroke-width: 1.5; stroke-linecap: square"/>
    <g>
     <use xlink:href="#mfc018c7298" x="254.164222" y="314.44312" style="fill: #ffd700; stroke: #ffd700"/>
    </g>
   </g>
   <g id="line2d_108">
    <path d="M 238.686704 225.162236 
" style="fill: none; stroke: #17becf; stroke-width: 1.5; stroke-linecap: square"/>
    <g>
     <use xlink:href="#mfc018c7298" x="238.686704" y="225.162236" style="fill: #ffd700; stroke: #ffd700"/>
    </g>
   </g>
   <g id="line2d_109">
    <path d="M 272.817663 248.488875 
" style="fill: none; stroke: #1f77b4; stroke-width: 1.5; stroke-linecap: square"/>
    <g>
     <use xlink:href="#mfc018c7298" x="272.817663" y="248.488875" style="fill: #ffd700; stroke: #ffd700"/>
    </g>
   </g>
   <g id="line2d_110">
    <path d="M 94.35077 262.366618 
" style="fill: none; stroke: #ff7f0e; stroke-width: 1.5; stroke-linecap: square"/>
    <g>
     <use xlink:href="#mfc018c7298" x="94.35077" y="262.366618" style="fill: #ffd700; stroke: #ffd700"/>
    </g>
   </g>
   <g id="line2d_111">
    <path d="M 284.993442 264.084499 
" style="fill: none; stroke: #2ca02c; stroke-width: 1.5; stroke-linecap: square"/>
    <g>
     <use xlink:href="#mfc018c7298" x="284.993442" y="264.084499" style="fill: #ffd700; stroke: #ffd700"/>
    </g>
   </g>
   <g id="line2d_112">
    <path d="M 358.639165 399.656863 
" style="fill: none; stroke: #d62728; stroke-width: 1.5; stroke-linecap: square"/>
    <g>
     <use xlink:href="#mfc018c7298" x="358.639165" y="399.656863" style="fill: #ffd700; stroke: #ffd700"/>
    </g>
   </g>
   <g id="line2d_113">
    <path d="M 327.034682 150.901794 
" style="fill: none; stroke: #9467bd; stroke-width: 1.5; stroke-linecap: square"/>
    <g>
     <use xlink:href="#mfc018c7298" x="327.034682" y="150.901794" style="fill: #ffd700; stroke: #ffd700"/>
    </g>
   </g>
   <g id="line2d_114">
    <path d="M 335.859285 316.266035 
" style="fill: none; stroke: #8c564b; stroke-width: 1.5; stroke-linecap: square"/>
    <g>
     <use xlink:href="#mfc018c7298" x="335.859285" y="316.266035" style="fill: #ffd700; stroke: #ffd700"/>
    </g>
   </g>
   <g id="line2d_115">
    <path d="M 310.592776 229.452265 
" style="fill: none; stroke: #e377c2; stroke-width: 1.5; stroke-linecap: square"/>
    <g>
     <use xlink:href="#mfc018c7298" x="310.592776" y="229.452265" style="fill: #ffd700; stroke: #ffd700"/>
    </g>
   </g>
   <g id="line2d_116">
    <path d="M 240.254397 76.089553 
" style="fill: none; stroke: #7f7f7f; stroke-width: 1.5; stroke-linecap: square"/>
    <g>
     <use xlink:href="#mfc018c7298" x="240.254397" y="76.089553" style="fill: #ffd700; stroke: #ffd700"/>
    </g>
   </g>
   <g id="line2d_117">
    <path d="M 287.247933 425.258682 
" style="fill: none; stroke: #bcbd22; stroke-width: 1.5; stroke-linecap: square"/>
    <g>
     <use xlink:href="#mfc018c7298" x="287.247933" y="425.258682" style="fill: #ffd700; stroke: #ffd700"/>
    </g>
   </g>
   <g id="line2d_118">
    <path d="M 314.503723 231.197325 
" style="fill: none; stroke: #17becf; stroke-width: 1.5; stroke-linecap: square"/>
    <g>
     <use xlink:href="#mfc018c7298" x="314.503723" y="231.197325" style="fill: #ffd700; stroke: #ffd700"/>
    </g>
   </g>
   <g id="patch_4">
    <path d="M 44.845313 471.273191 
L 44.845313 10.999219 
" style="fill: none; stroke: #000000; stroke-width: 0.8; stroke-linejoin: miter; stroke-linecap: square"/>
   </g>
   <g id="patch_5">
    <path d="M 505.119285 471.273191 
L 505.119285 10.999219 
" style="fill: none; stroke: #000000; stroke-width: 0.8; stroke-linejoin: miter; stroke-linecap: square"/>
   </g>
   <g id="patch_6">
    <path d="M 44.845312 471.273191 
L 505.119285 471.273191 
" style="fill: none; stroke: #000000; stroke-width: 0.8; stroke-linejoin: miter; stroke-linecap: square"/>
   </g>
   <g id="patch_7">
    <path d="M 44.845312 10.999219 
L 505.119285 10.999219 
" style="fill: none; stroke: #000000; stroke-width: 0.8; stroke-linejoin: miter; stroke-linecap: square"/>
   </g>
  </g>
 </g>
 <defs>
  <clipPath id="p24f748bee9">
   <rect x="44.845313" y="10.999219" width="460.273973" height="460.273973"/>
  </clipPath>
 </defs>
</svg>
