<?xml version="1.0" encoding="utf-8" standalone="no"?>
<!DOCTYPE svg PUBLIC "-//W3C//DTD SVG 1.1//EN"
  "http://www.w3.org/Graphics/SVG/1.1/DTD/svg11.dtd">
<svg xmlns:xlink="http://www.w3.org/1999/xlink" width="518.68491pt" height="495.151316pt" viewBox="0 0 518.68491 495.151316" xmlns="http://www.w3.org/2000/svg" version="1.1">
 <metadata>
  <rdf:RDF xmlns:dc="http://purl.org/dc/elements/1.1/" xmlns:cc="http://creativecommons.org/ns#" xmlns:rdf="http://www.w3.org/1999/02/22-rdf-syntax-ns#">
   <cc:Work>
    <dc:type rdf:resource="http://purl.org/dc/dcmitype/StillImage"/>
    <dc:date>2023-09-11T18:03:58.740766</dc:date>
    <dc:format>image/svg+xml</dc:format>
    <dc:creator>
     <cc:Agent>
      <dc:title>Matplotlib v3.5.2, https://matplotlib.org/</dc:title>
     </cc:Agent>
    </dc:creator>
   </cc:Work>
  </rdf:RDF>
 </metadata>
 <defs>
  <style type="text/css">*{stroke-linejoin: round; stroke-linecap: butt}</style>
 </defs>
 <g id="figure_1">
  <g id="patch_1">
   <path d="M 0 495.151316 
L 518.68491 495.151316 
L 518.68491 0 
L 0 0 
z
" style="fill: #ffffff"/>
  </g>
  <g id="axes_1">
   <g id="patch_2">
    <path d="M 41.667187 471.273191 
L 501.94116 471.273191 
L 501.94116 10.999219 
L 41.667187 10.999219 
z
" style="fill: #ffffff"/>
   </g>
   <g id="patch_3">
    <path d="M 41.667187 356.204698 
L 87.694585 356.204698 
L 87.694585 241.136205 
z
" clip-path="url(#p199cbd29bd)" style="fill: #cbe4f9; stroke: #000000; stroke-linejoin: miter"/>
   </g>
   <g id="patch_4">
    <path d="M 271.804174 448.259493 
L 179.749379 402.232095 
L 214.269927 442.506068 
z
" clip-path="url(#p199cbd29bd)" style="fill: #cbe4f9; stroke: #000000; stroke-linejoin: miter"/>
   </g>
   <g id="patch_5">
    <path d="M 87.694585 241.136205 
L 87.694585 356.204698 
L 179.749379 310.177301 
z
" clip-path="url(#p199cbd29bd)" style="fill: #cbe4f9; stroke: #000000; stroke-linejoin: miter"/>
   </g>
   <g id="patch_6">
    <path d="M 386.872667 413.738945 
L 409.886366 379.218397 
L 363.858968 402.232095 
z
" clip-path="url(#p199cbd29bd)" style="fill: #cbe4f9; stroke: #000000; stroke-linejoin: miter"/>
   </g>
   <g id="patch_7">
    <path d="M 179.749379 310.177301 
L 225.776777 287.163602 
L 191.256229 275.656753 
z
" clip-path="url(#p199cbd29bd)" style="fill: #cbe4f9; stroke: #000000; stroke-linejoin: miter"/>
   </g>
   <g id="patch_8">
    <path d="M 99.201434 384.971821 
L 133.721982 379.218397 
L 87.694585 356.204698 
z
" clip-path="url(#p199cbd29bd)" style="fill: #cbe4f9; stroke: #000000; stroke-linejoin: miter"/>
   </g>
   <g id="patch_9">
    <path d="M 386.872667 413.738945 
L 363.858968 402.232095 
L 329.33842 442.506068 
z
" clip-path="url(#p199cbd29bd)" style="fill: #cbe4f9; stroke: #000000; stroke-linejoin: miter"/>
   </g>
   <g id="patch_10">
    <path d="M 248.790475 183.601958 
L 225.776777 264.149904 
L 271.804174 264.149904 
z
" clip-path="url(#p199cbd29bd)" style="fill: #cbe4f9; stroke: #000000; stroke-linejoin: miter"/>
   </g>
   <g id="patch_11">
    <path d="M 444.406914 384.971821 
L 455.913763 356.204698 
L 409.886366 379.218397 
z
" clip-path="url(#p199cbd29bd)" style="fill: #cbe4f9; stroke: #000000; stroke-linejoin: miter"/>
   </g>
   <g id="patch_12">
    <path d="M 179.749379 310.177301 
L 156.735681 241.136205 
L 87.694585 241.136205 
z
" clip-path="url(#p199cbd29bd)" style="fill: #cbe4f9; stroke: #000000; stroke-linejoin: miter"/>
   </g>
   <g id="patch_13">
    <path d="M 41.667187 126.067712 
L 133.721982 172.095109 
L 110.708283 126.067712 
z
" clip-path="url(#p199cbd29bd)" style="fill: #cbe4f9; stroke: #000000; stroke-linejoin: miter"/>
   </g>
   <g id="patch_14">
    <path d="M 41.667187 126.067712 
L 87.694585 241.136205 
L 133.721982 172.095109 
z
" clip-path="url(#p199cbd29bd)" style="fill: #cbe4f9; stroke: #000000; stroke-linejoin: miter"/>
   </g>
   <g id="patch_15">
    <path d="M 317.831571 287.163602 
L 363.858968 310.177301 
L 352.352119 275.656753 
z
" clip-path="url(#p199cbd29bd)" style="fill: #cbe4f9; stroke: #000000; stroke-linejoin: miter"/>
   </g>
   <g id="patch_16">
    <path d="M 156.735681 68.533465 
L 41.667187 126.067712 
L 110.708283 126.067712 
z
" clip-path="url(#p199cbd29bd)" style="fill: #cbe4f9; stroke: #000000; stroke-linejoin: miter"/>
   </g>
   <g id="patch_17">
    <path d="M 248.790475 114.560863 
L 133.721982 172.095109 
L 248.790475 183.601958 
z
" clip-path="url(#p199cbd29bd)" style="fill: #cbe4f9; stroke: #000000; stroke-linejoin: miter"/>
   </g>
   <g id="patch_18">
    <path d="M 248.790475 183.601958 
L 156.735681 241.136205 
L 225.776777 264.149904 
z
" clip-path="url(#p199cbd29bd)" style="fill: #cbe4f9; stroke: #000000; stroke-linejoin: miter"/>
   </g>
   <g id="patch_19">
    <path d="M 248.790475 114.560863 
L 271.804174 10.999219 
L 156.735681 68.533465 
z
" clip-path="url(#p199cbd29bd)" style="fill: #cbe4f9; stroke: #000000; stroke-linejoin: miter"/>
   </g>
   <g id="patch_20">
    <path d="M 179.749379 114.560863 
L 156.735681 68.533465 
L 110.708283 126.067712 
z
" clip-path="url(#p199cbd29bd)" style="fill: #cbe4f9; stroke: #000000; stroke-linejoin: miter"/>
   </g>
   <g id="patch_21">
    <path d="M 248.790475 114.560863 
L 248.790475 183.601958 
L 294.817872 183.601958 
z
" clip-path="url(#p199cbd29bd)" style="fill: #cbe4f9; stroke: #000000; stroke-linejoin: miter"/>
   </g>
   <g id="patch_22">
    <path d="M 248.790475 183.601958 
L 133.721982 172.095109 
L 156.735681 241.136205 
z
" clip-path="url(#p199cbd29bd)" style="fill: #cbe4f9; stroke: #000000; stroke-linejoin: miter"/>
   </g>
   <g id="patch_23">
    <path d="M 87.694585 241.136205 
L 156.735681 241.136205 
L 133.721982 172.095109 
z
" clip-path="url(#p199cbd29bd)" style="fill: #cbe4f9; stroke: #000000; stroke-linejoin: miter"/>
   </g>
   <g id="patch_24">
    <path d="M 179.749379 114.560863 
L 248.790475 114.560863 
L 156.735681 68.533465 
z
" clip-path="url(#p199cbd29bd)" style="fill: #cbe4f9; stroke: #000000; stroke-linejoin: miter"/>
   </g>
   <g id="patch_25">
    <path d="M 225.776777 264.149904 
L 225.776777 287.163602 
L 271.804174 264.149904 
z
" clip-path="url(#p199cbd29bd)" style="fill: #cbe4f9; stroke: #000000; stroke-linejoin: miter"/>
   </g>
   <g id="patch_26">
    <path d="M 271.804174 448.259493 
L 214.269927 442.506068 
L 271.804174 471.273191 
z
" clip-path="url(#p199cbd29bd)" style="fill: #cbe4f9; stroke: #000000; stroke-linejoin: miter"/>
   </g>
   <g id="patch_27">
    <path d="M 294.817872 183.601958 
L 271.804174 264.149904 
L 317.831571 264.149904 
z
" clip-path="url(#p199cbd29bd)" style="fill: #cbe4f9; stroke: #000000; stroke-linejoin: miter"/>
   </g>
   <g id="patch_28">
    <path d="M 156.735681 413.738945 
L 179.749379 402.232095 
L 133.721982 379.218397 
z
" clip-path="url(#p199cbd29bd)" style="fill: #cbe4f9; stroke: #000000; stroke-linejoin: miter"/>
   </g>
   <g id="patch_29">
    <path d="M 317.831571 287.163602 
L 352.352119 275.656753 
L 317.831571 264.149904 
z
" clip-path="url(#p199cbd29bd)" style="fill: #cbe4f9; stroke: #000000; stroke-linejoin: miter"/>
   </g>
   <g id="patch_30">
    <path d="M 294.817872 183.601958 
L 317.831571 264.149904 
L 386.872667 241.136205 
z
" clip-path="url(#p199cbd29bd)" style="fill: #cbe4f9; stroke: #000000; stroke-linejoin: miter"/>
   </g>
   <g id="patch_31">
    <path d="M 455.913763 356.204698 
L 501.94116 356.204698 
L 455.913763 241.136205 
z
" clip-path="url(#p199cbd29bd)" style="fill: #cbe4f9; stroke: #000000; stroke-linejoin: miter"/>
   </g>
   <g id="patch_32">
    <path d="M 501.94116 356.204698 
L 455.913763 356.204698 
L 444.406914 384.971821 
z
" clip-path="url(#p199cbd29bd)" style="fill: #cbe4f9; stroke: #000000; stroke-linejoin: miter"/>
   </g>
   <g id="patch_33">
    <path d="M 87.694585 356.204698 
L 41.667187 356.204698 
L 99.201434 384.971821 
z
" clip-path="url(#p199cbd29bd)" style="fill: #cbe4f9; stroke: #000000; stroke-linejoin: miter"/>
   </g>
   <g id="patch_34">
    <path d="M 455.913763 241.136205 
L 386.872667 241.136205 
L 363.858968 310.177301 
z
" clip-path="url(#p199cbd29bd)" style="fill: #cbe4f9; stroke: #000000; stroke-linejoin: miter"/>
   </g>
   <g id="patch_35">
    <path d="M 363.858968 310.177301 
L 455.913763 356.204698 
L 455.913763 241.136205 
z
" clip-path="url(#p199cbd29bd)" style="fill: #cbe4f9; stroke: #000000; stroke-linejoin: miter"/>
   </g>
   <g id="patch_36">
    <path d="M 386.872667 241.136205 
L 455.913763 241.136205 
L 409.886366 172.095109 
z
" clip-path="url(#p199cbd29bd)" style="fill: #cbe4f9; stroke: #000000; stroke-linejoin: miter"/>
   </g>
   <g id="patch_37">
    <path d="M 294.817872 114.560863 
L 271.804174 10.999219 
L 248.790475 114.560863 
z
" clip-path="url(#p199cbd29bd)" style="fill: #cbe4f9; stroke: #000000; stroke-linejoin: miter"/>
   </g>
   <g id="patch_38">
    <path d="M 248.790475 114.560863 
L 294.817872 183.601958 
L 294.817872 114.560863 
z
" clip-path="url(#p199cbd29bd)" style="fill: #cbe4f9; stroke: #000000; stroke-linejoin: miter"/>
   </g>
   <g id="patch_39">
    <path d="M 294.817872 183.601958 
L 409.886366 172.095109 
L 294.817872 114.560863 
z
" clip-path="url(#p199cbd29bd)" style="fill: #cbe4f9; stroke: #000000; stroke-linejoin: miter"/>
   </g>
   <g id="patch_40">
    <path d="M 294.817872 114.560863 
L 363.858968 114.560863 
L 386.872667 68.533465 
z
" clip-path="url(#p199cbd29bd)" style="fill: #cbe4f9; stroke: #000000; stroke-linejoin: miter"/>
   </g>
   <g id="patch_41">
    <path d="M 329.33842 442.506068 
L 271.804174 448.259493 
L 271.804174 471.273191 
z
" clip-path="url(#p199cbd29bd)" style="fill: #cbe4f9; stroke: #000000; stroke-linejoin: miter"/>
   </g>
   <g id="patch_42">
    <path d="M 432.900064 126.067712 
L 409.886366 172.095109 
L 501.94116 126.067712 
z
" clip-path="url(#p199cbd29bd)" style="fill: #cbe4f9; stroke: #000000; stroke-linejoin: miter"/>
   </g>
   <g id="patch_43">
    <path d="M 386.872667 68.533465 
L 363.858968 114.560863 
L 432.900064 126.067712 
z
" clip-path="url(#p199cbd29bd)" style="fill: #cbe4f9; stroke: #000000; stroke-linejoin: miter"/>
   </g>
   <g id="patch_44">
    <path d="M 386.872667 68.533465 
L 271.804174 10.999219 
L 294.817872 114.560863 
z
" clip-path="url(#p199cbd29bd)" style="fill: #cbe4f9; stroke: #000000; stroke-linejoin: miter"/>
   </g>
   <g id="patch_45">
    <path d="M 409.886366 172.095109 
L 455.913763 241.136205 
L 501.94116 126.067712 
z
" clip-path="url(#p199cbd29bd)" style="fill: #cbe4f9; stroke: #000000; stroke-linejoin: miter"/>
   </g>
   <g id="patch_46">
    <path d="M 432.900064 126.067712 
L 501.94116 126.067712 
L 386.872667 68.533465 
z
" clip-path="url(#p199cbd29bd)" style="fill: #cbe4f9; stroke: #000000; stroke-linejoin: miter"/>
   </g>
   <g id="patch_47">
    <path d="M 294.817872 183.601958 
L 386.872667 241.136205 
L 409.886366 172.095109 
z
" clip-path="url(#p199cbd29bd)" style="fill: #cbe4f9; stroke: #000000; stroke-linejoin: miter"/>
   </g>
   <g id="patch_48">
    <path d="M 179.749379 402.232095 
L 156.735681 413.738945 
L 214.269927 442.506068 
z
" clip-path="url(#p199cbd29bd)" style="fill: #cbe4f9; stroke: #000000; stroke-linejoin: miter"/>
   </g>
   <g id="patch_49">
    <path d="M 271.804174 448.259493 
L 329.33842 442.506068 
L 363.858968 402.232095 
z
" clip-path="url(#p199cbd29bd)" style="fill: #cbe4f9; stroke: #000000; stroke-linejoin: miter"/>
   </g>
   <g id="patch_50">
    <path d="M 248.790475 183.601958 
L 271.804174 264.149904 
L 294.817872 183.601958 
z
" clip-path="url(#p199cbd29bd)" style="fill: #cbe4f9; stroke: #000000; stroke-linejoin: miter"/>
   </g>
   <g id="patch_51">
    <path d="M 156.735681 413.738945 
L 133.721982 379.218397 
L 99.201434 384.971821 
z
" clip-path="url(#p199cbd29bd)" style="fill: #cbe4f9; stroke: #000000; stroke-linejoin: miter"/>
   </g>
   <g id="patch_52">
    <path d="M 409.886366 379.218397 
L 386.872667 413.738945 
L 444.406914 384.971821 
z
" clip-path="url(#p199cbd29bd)" style="fill: #cbe4f9; stroke: #000000; stroke-linejoin: miter"/>
   </g>
   <g id="patch_53">
    <path d="M 317.831571 264.149904 
L 271.804174 264.149904 
L 317.831571 287.163602 
z
" clip-path="url(#p199cbd29bd)" style="fill: #cbe4f9; stroke: #000000; stroke-linejoin: miter"/>
   </g>
   <g id="patch_54">
    <path d="M 363.858968 310.177301 
L 386.872667 241.136205 
L 352.352119 275.656753 
z
" clip-path="url(#p199cbd29bd)" style="fill: #cbe4f9; stroke: #000000; stroke-linejoin: miter"/>
   </g>
   <g id="patch_55">
    <path d="M 386.872667 241.136205 
L 317.831571 264.149904 
L 352.352119 275.656753 
z
" clip-path="url(#p199cbd29bd)" style="fill: #cbe4f9; stroke: #000000; stroke-linejoin: miter"/>
   </g>
   <g id="patch_56">
    <path d="M 191.256229 275.656753 
L 225.776777 287.163602 
L 225.776777 264.149904 
z
" clip-path="url(#p199cbd29bd)" style="fill: #cbe4f9; stroke: #000000; stroke-linejoin: miter"/>
   </g>
   <g id="patch_57">
    <path d="M 225.776777 264.149904 
L 156.735681 241.136205 
L 191.256229 275.656753 
z
" clip-path="url(#p199cbd29bd)" style="fill: #cbe4f9; stroke: #000000; stroke-linejoin: miter"/>
   </g>
   <g id="patch_58">
    <path d="M 156.735681 241.136205 
L 179.749379 310.177301 
L 191.256229 275.656753 
z
" clip-path="url(#p199cbd29bd)" style="fill: #cbe4f9; stroke: #000000; stroke-linejoin: miter"/>
   </g>
   <g id="matplotlib.axis_1">
    <g id="xtick_1">
     <g id="line2d_1">
      <defs>
       <path id="mfdd318d27f" d="M 0 0 
L 0 3.5 
" style="stroke: #000000; stroke-width: 0.8"/>
      </defs>
      <g>
       <use xlink:href="#mfdd318d27f" x="41.667187" y="471.273191" style="stroke: #000000; stroke-width: 0.8"/>
      </g>
     </g>
     <g id="text_1">
      <!-- −100 -->
      <g transform="translate(27.933594 485.871629)scale(0.1 -0.1)">
       <defs>
        <path id="DejaVuSans-2212" d="M 678 2272 
L 4684 2272 
L 4684 1741 
L 678 1741 
L 678 2272 
z
" transform="scale(0.015625)"/>
        <path id="DejaVuSans-31" d="M 794 531 
L 1825 531 
L 1825 4091 
L 703 3866 
L 703 4441 
L 1819 4666 
L 2450 4666 
L 2450 531 
L 3481 531 
L 3481 0 
L 794 0 
L 794 531 
z
" transform="scale(0.015625)"/>
        <path id="DejaVuSans-30" d="M 2034 4250 
Q 1547 4250 1301 3770 
Q 1056 3291 1056 2328 
Q 1056 1369 1301 889 
Q 1547 409 2034 409 
Q 2525 409 2770 889 
Q 3016 1369 3016 2328 
Q 3016 3291 2770 3770 
Q 2525 4250 2034 4250 
z
M 2034 4750 
Q 2819 4750 3233 4129 
Q 3647 3509 3647 2328 
Q 3647 1150 3233 529 
Q 2819 -91 2034 -91 
Q 1250 -91 836 529 
Q 422 1150 422 2328 
Q 422 3509 836 4129 
Q 1250 4750 2034 4750 
z
" transform="scale(0.015625)"/>
       </defs>
       <use xlink:href="#DejaVuSans-2212"/>
       <use xlink:href="#DejaVuSans-31" x="83.789062"/>
       <use xlink:href="#DejaVuSans-30" x="147.412109"/>
       <use xlink:href="#DejaVuSans-30" x="211.035156"/>
      </g>
     </g>
    </g>
    <g id="xtick_2">
     <g id="line2d_2">
      <g>
       <use xlink:href="#mfdd318d27f" x="99.201434" y="471.273191" style="stroke: #000000; stroke-width: 0.8"/>
      </g>
     </g>
     <g id="text_2">
      <!-- −75 -->
      <g transform="translate(88.64909 485.871629)scale(0.1 -0.1)">
       <defs>
        <path id="DejaVuSans-37" d="M 525 4666 
L 3525 4666 
L 3525 4397 
L 1831 0 
L 1172 0 
L 2766 4134 
L 525 4134 
L 525 4666 
z
" transform="scale(0.015625)"/>
        <path id="DejaVuSans-35" d="M 691 4666 
L 3169 4666 
L 3169 4134 
L 1269 4134 
L 1269 2991 
Q 1406 3038 1543 3061 
Q 1681 3084 1819 3084 
Q 2600 3084 3056 2656 
Q 3513 2228 3513 1497 
Q 3513 744 3044 326 
Q 2575 -91 1722 -91 
Q 1428 -91 1123 -41 
Q 819 9 494 109 
L 494 744 
Q 775 591 1075 516 
Q 1375 441 1709 441 
Q 2250 441 2565 725 
Q 2881 1009 2881 1497 
Q 2881 1984 2565 2268 
Q 2250 2553 1709 2553 
Q 1456 2553 1204 2497 
Q 953 2441 691 2322 
L 691 4666 
z
" transform="scale(0.015625)"/>
       </defs>
       <use xlink:href="#DejaVuSans-2212"/>
       <use xlink:href="#DejaVuSans-37" x="83.789062"/>
       <use xlink:href="#DejaVuSans-35" x="147.412109"/>
      </g>
     </g>
    </g>
    <g id="xtick_3">
     <g id="line2d_3">
      <g>
       <use xlink:href="#mfdd318d27f" x="156.735681" y="471.273191" style="stroke: #000000; stroke-width: 0.8"/>
      </g>
     </g>
     <g id="text_3">
      <!-- −50 -->
      <g transform="translate(146.183337 485.871629)scale(0.1 -0.1)">
       <use xlink:href="#DejaVuSans-2212"/>
       <use xlink:href="#DejaVuSans-35" x="83.789062"/>
       <use xlink:href="#DejaVuSans-30" x="147.412109"/>
      </g>
     </g>
    </g>
    <g id="xtick_4">
     <g id="line2d_4">
      <g>
       <use xlink:href="#mfdd318d27f" x="214.269927" y="471.273191" style="stroke: #000000; stroke-width: 0.8"/>
      </g>
     </g>
     <g id="text_4">
      <!-- −25 -->
      <g transform="translate(203.717583 485.871629)scale(0.1 -0.1)">
       <defs>
        <path id="DejaVuSans-32" d="M 1228 531 
L 3431 531 
L 3431 0 
L 469 0 
L 469 531 
Q 828 903 1448 1529 
Q 2069 2156 2228 2338 
Q 2531 2678 2651 2914 
Q 2772 3150 2772 3378 
Q 2772 3750 2511 3984 
Q 2250 4219 1831 4219 
Q 1534 4219 1204 4116 
Q 875 4013 500 3803 
L 500 4441 
Q 881 4594 1212 4672 
Q 1544 4750 1819 4750 
Q 2544 4750 2975 4387 
Q 3406 4025 3406 3419 
Q 3406 3131 3298 2873 
Q 3191 2616 2906 2266 
Q 2828 2175 2409 1742 
Q 1991 1309 1228 531 
z
" transform="scale(0.015625)"/>
       </defs>
       <use xlink:href="#DejaVuSans-2212"/>
       <use xlink:href="#DejaVuSans-32" x="83.789062"/>
       <use xlink:href="#DejaVuSans-35" x="147.412109"/>
      </g>
     </g>
    </g>
    <g id="xtick_5">
     <g id="line2d_5">
      <g>
       <use xlink:href="#mfdd318d27f" x="271.804174" y="471.273191" style="stroke: #000000; stroke-width: 0.8"/>
      </g>
     </g>
     <g id="text_5">
      <!-- 0 -->
      <g transform="translate(268.622924 485.871629)scale(0.1 -0.1)">
       <use xlink:href="#DejaVuSans-30"/>
      </g>
     </g>
    </g>
    <g id="xtick_6">
     <g id="line2d_6">
      <g>
       <use xlink:href="#mfdd318d27f" x="329.33842" y="471.273191" style="stroke: #000000; stroke-width: 0.8"/>
      </g>
     </g>
     <g id="text_6">
      <!-- 25 -->
      <g transform="translate(322.97592 485.871629)scale(0.1 -0.1)">
       <use xlink:href="#DejaVuSans-32"/>
       <use xlink:href="#DejaVuSans-35" x="63.623047"/>
      </g>
     </g>
    </g>
    <g id="xtick_7">
     <g id="line2d_7">
      <g>
       <use xlink:href="#mfdd318d27f" x="386.872667" y="471.273191" style="stroke: #000000; stroke-width: 0.8"/>
      </g>
     </g>
     <g id="text_7">
      <!-- 50 -->
      <g transform="translate(380.510167 485.871629)scale(0.1 -0.1)">
       <use xlink:href="#DejaVuSans-35"/>
       <use xlink:href="#DejaVuSans-30" x="63.623047"/>
      </g>
     </g>
    </g>
    <g id="xtick_8">
     <g id="line2d_8">
      <g>
       <use xlink:href="#mfdd318d27f" x="444.406914" y="471.273191" style="stroke: #000000; stroke-width: 0.8"/>
      </g>
     </g>
     <g id="text_8">
      <!-- 75 -->
      <g transform="translate(438.044414 485.871629)scale(0.1 -0.1)">
       <use xlink:href="#DejaVuSans-37"/>
       <use xlink:href="#DejaVuSans-35" x="63.623047"/>
      </g>
     </g>
    </g>
    <g id="xtick_9">
     <g id="line2d_9">
      <g>
       <use xlink:href="#mfdd318d27f" x="501.94116" y="471.273191" style="stroke: #000000; stroke-width: 0.8"/>
      </g>
     </g>
     <g id="text_9">
      <!-- 100 -->
      <g transform="translate(492.39741 485.871629)scale(0.1 -0.1)">
       <use xlink:href="#DejaVuSans-31"/>
       <use xlink:href="#DejaVuSans-30" x="63.623047"/>
       <use xlink:href="#DejaVuSans-30" x="127.246094"/>
      </g>
     </g>
    </g>
   </g>
   <g id="matplotlib.axis_2">
    <g id="ytick_1">
     <g id="line2d_10">
      <defs>
       <path id="m672f385053" d="M 0 0 
L -3.5 0 
" style="stroke: #000000; stroke-width: 0.8"/>
      </defs>
      <g>
       <use xlink:href="#m672f385053" x="41.667187" y="471.273191" style="stroke: #000000; stroke-width: 0.8"/>
      </g>
     </g>
     <g id="text_10">
      <!-- −100 -->
      <g transform="translate(7.2 475.07241)scale(0.1 -0.1)">
       <use xlink:href="#DejaVuSans-2212"/>
       <use xlink:href="#DejaVuSans-31" x="83.789062"/>
       <use xlink:href="#DejaVuSans-30" x="147.412109"/>
       <use xlink:href="#DejaVuSans-30" x="211.035156"/>
      </g>
     </g>
    </g>
    <g id="ytick_2">
     <g id="line2d_11">
      <g>
       <use xlink:href="#m672f385053" x="41.667187" y="413.738945" style="stroke: #000000; stroke-width: 0.8"/>
      </g>
     </g>
     <g id="text_11">
      <!-- −75 -->
      <g transform="translate(13.5625 417.538164)scale(0.1 -0.1)">
       <use xlink:href="#DejaVuSans-2212"/>
       <use xlink:href="#DejaVuSans-37" x="83.789062"/>
       <use xlink:href="#DejaVuSans-35" x="147.412109"/>
      </g>
     </g>
    </g>
    <g id="ytick_3">
     <g id="line2d_12">
      <g>
       <use xlink:href="#m672f385053" x="41.667187" y="356.204698" style="stroke: #000000; stroke-width: 0.8"/>
      </g>
     </g>
     <g id="text_12">
      <!-- −50 -->
      <g transform="translate(13.5625 360.003917)scale(0.1 -0.1)">
       <use xlink:href="#DejaVuSans-2212"/>
       <use xlink:href="#DejaVuSans-35" x="83.789062"/>
       <use xlink:href="#DejaVuSans-30" x="147.412109"/>
      </g>
     </g>
    </g>
    <g id="ytick_4">
     <g id="line2d_13">
      <g>
       <use xlink:href="#m672f385053" x="41.667187" y="298.670452" style="stroke: #000000; stroke-width: 0.8"/>
      </g>
     </g>
     <g id="text_13">
      <!-- −25 -->
      <g transform="translate(13.5625 302.46967)scale(0.1 -0.1)">
       <use xlink:href="#DejaVuSans-2212"/>
       <use xlink:href="#DejaVuSans-32" x="83.789062"/>
       <use xlink:href="#DejaVuSans-35" x="147.412109"/>
      </g>
     </g>
    </g>
    <g id="ytick_5">
     <g id="line2d_14">
      <g>
       <use xlink:href="#m672f385053" x="41.667187" y="241.136205" style="stroke: #000000; stroke-width: 0.8"/>
      </g>
     </g>
     <g id="text_14">
      <!-- 0 -->
      <g transform="translate(28.304687 244.935424)scale(0.1 -0.1)">
       <use xlink:href="#DejaVuSans-30"/>
      </g>
     </g>
    </g>
    <g id="ytick_6">
     <g id="line2d_15">
      <g>
       <use xlink:href="#m672f385053" x="41.667187" y="183.601958" style="stroke: #000000; stroke-width: 0.8"/>
      </g>
     </g>
     <g id="text_15">
      <!-- 25 -->
      <g transform="translate(21.942187 187.401177)scale(0.1 -0.1)">
       <use xlink:href="#DejaVuSans-32"/>
       <use xlink:href="#DejaVuSans-35" x="63.623047"/>
      </g>
     </g>
    </g>
    <g id="ytick_7">
     <g id="line2d_16">
      <g>
       <use xlink:href="#m672f385053" x="41.667187" y="126.067712" style="stroke: #000000; stroke-width: 0.8"/>
      </g>
     </g>
     <g id="text_16">
      <!-- 50 -->
      <g transform="translate(21.942187 129.866931)scale(0.1 -0.1)">
       <use xlink:href="#DejaVuSans-35"/>
       <use xlink:href="#DejaVuSans-30" x="63.623047"/>
      </g>
     </g>
    </g>
    <g id="ytick_8">
     <g id="line2d_17">
      <g>
       <use xlink:href="#m672f385053" x="41.667187" y="68.533465" style="stroke: #000000; stroke-width: 0.8"/>
      </g>
     </g>
     <g id="text_17">
      <!-- 75 -->
      <g transform="translate(21.942187 72.332684)scale(0.1 -0.1)">
       <use xlink:href="#DejaVuSans-37"/>
       <use xlink:href="#DejaVuSans-35" x="63.623047"/>
      </g>
     </g>
    </g>
    <g id="ytick_9">
     <g id="line2d_18">
      <g>
       <use xlink:href="#m672f385053" x="41.667187" y="10.999219" style="stroke: #000000; stroke-width: 0.8"/>
      </g>
     </g>
     <g id="text_18">
      <!-- 100 -->
      <g transform="translate(15.579687 14.798437)scale(0.1 -0.1)">
       <use xlink:href="#DejaVuSans-31"/>
       <use xlink:href="#DejaVuSans-30" x="63.623047"/>
       <use xlink:href="#DejaVuSans-30" x="127.246094"/>
      </g>
     </g>
    </g>
   </g>
   <g id="patch_59">
    <path d="M 41.667187 471.273191 
L 41.667187 10.999219 
" style="fill: none; stroke: #000000; stroke-width: 0.8; stroke-linejoin: miter; stroke-linecap: square"/>
   </g>
   <g id="patch_60">
    <path d="M 501.94116 471.273191 
L 501.94116 10.999219 
" style="fill: none; stroke: #000000; stroke-width: 0.8; stroke-linejoin: miter; stroke-linecap: square"/>
   </g>
   <g id="patch_61">
    <path d="M 41.667187 471.273191 
L 501.94116 471.273191 
" style="fill: none; stroke: #000000; stroke-width: 0.8; stroke-linejoin: miter; stroke-linecap: square"/>
   </g>
   <g id="patch_62">
    <path d="M 41.667187 10.999219 
L 501.94116 10.999219 
" style="fill: none; stroke: #000000; stroke-width: 0.8; stroke-linejoin: miter; stroke-linecap: square"/>
   </g>
  </g>
 </g>
 <defs>
  <clipPath id="p199cbd29bd">
   <rect x="41.667187" y="10.999219" width="460.273973" height="460.273973"/>
  </clipPath>
 </defs>
</svg>
