<?xml version="1.0" encoding="utf-8" standalone="no"?>
<!DOCTYPE svg PUBLIC "-//W3C//DTD SVG 1.1//EN"
  "http://www.w3.org/Graphics/SVG/1.1/DTD/svg11.dtd">
<svg xmlns:xlink="http://www.w3.org/1999/xlink" width="512.493193pt" height="491.352098pt" viewBox="0 0 512.493193 491.352098" xmlns="http://www.w3.org/2000/svg" version="1.1">
 <metadata>
  <rdf:RDF xmlns:dc="http://purl.org/dc/elements/1.1/" xmlns:cc="http://creativecommons.org/ns#" xmlns:rdf="http://www.w3.org/1999/02/22-rdf-syntax-ns#">
   <cc:Work>
    <dc:type rdf:resource="http://purl.org/dc/dcmitype/StillImage"/>
    <dc:date>2023-10-10T17:00:25.034394</dc:date>
    <dc:format>image/svg+xml</dc:format>
    <dc:creator>
     <cc:Agent>
      <dc:title>Matplotlib v3.6.3, https://matplotlib.org/</dc:title>
     </cc:Agent>
    </dc:creator>
   </cc:Work>
  </rdf:RDF>
 </metadata>
 <defs>
  <style type="text/css">*{stroke-linejoin: round; stroke-linecap: butt}</style>
 </defs>
 <g id="figure_1">
  <g id="patch_1">
   <path d="M 0 491.352098 
L 512.493193 491.352098 
L 512.493193 0 
L 0 0 
z
" style="fill: #ffffff"/>
  </g>
  <g id="axes_1">
   <g id="patch_2">
    <path d="M 44.845313 467.473973 
L 505.119285 467.473973 
L 505.119285 7.2 
L 44.845313 7.2 
z
" style="fill: #ffffff"/>
   </g>
   <g id="patch_3">
    <path d="M 110.167766 312.166211 
L 114.569955 310.257999 
M 110.167766 312.166211 
L -559.217178 272.06838 
M 110.167766 312.166211 
L 109.287535 465.880976 
M 109.287535 465.880976 
L -559.217178 1580.979573 
M 109.287535 465.880976 
L 144.474167 420.860668 
M 171.282121 378.025052 
L 165.786088 338.957089 
M 171.282121 378.025052 
L 144.474167 420.860668 
M 171.282121 378.025052 
L 214.353112 367.544641 
M 165.786088 338.957089 
L 173.907123 322.474393 
M 165.786088 338.957089 
L 114.569955 310.257999 
M 235.49753 333.540182 
L 173.907123 322.474393 
M 235.49753 333.540182 
L 236.482329 335.833906 
M 235.49753 333.540182 
L 225.143673 300.872368 
M 144.474167 420.860668 
L 254.925335 408.847821 
M 214.353112 367.544641 
L 255.708361 403.247443 
M 214.353112 367.544641 
L 233.112738 346.002403 
M 216.75255 292.028795 
L 216.214896 287.300673 
M 216.75255 292.028795 
L 174.02756 322.162219 
M 216.75255 292.028795 
L 224.952254 300.363447 
M 173.907123 322.474393 
L 174.02756 322.162219 
M 132.184015 270.358705 
L -23.843152 139.727415 
M 132.184015 270.358705 
L 133.222345 272.21407 
M 132.184015 270.358705 
L 109.398397 171.246437 
M 130.488542 274.927759 
L 133.222345 272.21407 
M 130.488542 274.927759 
L -559.217178 137.248458 
M 130.488542 274.927759 
L 114.569955 310.257999 
M -23.843152 139.727415 
L 109.398397 171.246437 
M -23.843152 139.727415 
L -476.675361 7.545136 
M 154.788918 268.465991 
L 133.222345 272.21407 
M 154.788918 268.465991 
L 174.02756 322.162219 
M 154.788918 268.465991 
L 172.355245 252.991803 
M 209.364544 273.907866 
L 210.555966 272.911098 
M 209.364544 273.907866 
L 189.027788 252.640184 
M 209.364544 273.907866 
L 216.214896 287.300673 
M 189.027788 252.640184 
L 210.025071 222.041808 
M 189.027788 252.640184 
L 172.355245 252.991803 
M 255.708361 403.247443 
L 254.925335 408.847821 
M 255.708361 403.247443 
L 272.573312 389.001471 
M 225.143673 300.872368 
L 224.952254 300.363447 
M 225.143673 300.872368 
L 260.473056 310.23771 
M 216.214896 287.300673 
L 238.440215 275.195052 
M 236.482329 335.833906 
L 233.112738 346.002403 
M 236.482329 335.833906 
L 247.156438 333.271024 
M 224.952254 300.363447 
L 272.530994 290.899076 
M 260.473056 310.23771 
L 247.156438 333.271024 
M 260.473056 310.23771 
L 275.033624 295.831249 
M 247.156438 333.271024 
L 300.188587 332.541052 
M 275.033624 295.831249 
L 272.530994 290.899076 
M 275.033624 295.831249 
L 299.247802 322.785698 
M 272.388429 285.042418 
L 269.945016 281.850387 
M 272.388429 285.042418 
L 272.931598 286.260502 
M 272.388429 285.042418 
L 277.803195 271.68199 
M 282.81003 375.865928 
L 233.112738 346.002403 
M 282.81003 375.865928 
L 272.573312 389.001471 
M 282.81003 375.865928 
L 292.413873 370.397875 
M 272.530994 290.899076 
L 272.931598 286.260502 
M 244.55647 247.279094 
L 245.59594 242.862784 
M 244.55647 247.279094 
L 210.555966 272.911098 
M 244.55647 247.279094 
L 249.33213 262.891993 
M 210.555966 272.911098 
L 236.689689 236.303946 
M 238.440215 275.195052 
L 249.33213 262.891993 
M 238.440215 275.195052 
L 269.945016 281.850387 
M 249.33213 262.891993 
L 263.447621 266.923121 
M 268.31405 254.455308 
L 265.335021 250.314121 
M 268.31405 254.455308 
L 268.340438 254.730452 
M 268.31405 254.455308 
L 276.758555 248.484257 
M 263.447621 266.923121 
L 268.340438 254.730452 
M 263.447621 266.923121 
L 269.945016 281.850387 
M 265.335021 250.314121 
L 267.69849 243.119968 
M 265.335021 250.314121 
L 245.59594 242.862784 
M 277.215259 242.740773 
L 279.552066 241.208214 
M 277.215259 242.740773 
L 275.619273 241.136449 
M 277.215259 242.740773 
L 276.976248 243.571861 
M 276.976248 243.571861 
L 267.69849 243.119968 
M 276.976248 243.571861 
L 276.758555 248.484257 
M 245.59594 242.862784 
L 244.805929 239.599895 
M 236.689689 236.303946 
L 244.805929 239.599895 
M 236.689689 236.303946 
L 210.025071 222.041808 
M 300.188587 332.541052 
L 310.369859 349.419636 
M 300.188587 332.541052 
L 299.247802 322.785698 
M 254.925335 408.847821 
L 1174.16099 7623.628926 
M 267.69849 243.119968 
L 267.738042 242.832366 
M 131.285585 176.178887 
L 172.355245 252.991803 
M 131.285585 176.178887 
L 210.073185 221.617683 
M 131.285585 176.178887 
L 128.69868 172.710028 
M 210.025071 222.041808 
L 210.073185 221.617683 
M 210.073185 221.617683 
L 220.645741 198.371522 
M 128.69868 172.710028 
L 109.398397 171.246437 
M 128.69868 172.710028 
L 140.640706 166.991447 
M 229.270117 190.382123 
L 227.503495 146.488592 
M 229.270117 190.382123 
L 220.645741 198.371522 
M 229.270117 190.382123 
L 241.619568 195.162113 
M 220.645741 198.371522 
L 140.640706 166.991447 
M 253.924354 224.923196 
L 241.619568 195.162113 
M 253.924354 224.923196 
L 253.851301 226.089943 
M 253.924354 224.923196 
L 257.88079 222.584519 
M 241.619568 195.162113 
L 262.082471 193.780993 
M 140.640706 166.991447 
L 201.888425 120.277268 
M 198.480664 108.845999 
L 201.888425 120.277268 
M 198.480664 108.845999 
L 176.25498 -43.071165 
M 198.480664 108.845999 
L -476.675361 7.545136 
M 201.888425 120.277268 
L 204.569564 121.481633 
M 176.25498 -43.071165 
L 40.024273 -426.406169 
M 176.25498 -43.071165 
L 222.361966 13.280597 
M -476.675361 7.545136 
L -559.217178 -15.48928 
M 258.302547 96.85868 
L 204.569564 121.481633 
M 258.302547 96.85868 
L 285.183033 95.246282 
M 258.302547 96.85868 
L 222.361966 13.280597 
M 204.569564 121.481633 
L 227.503495 146.488592 
M 248.842377 147.029061 
L 288.340288 125.181099 
M 248.842377 147.029061 
L 227.503495 146.488592 
M 248.842377 147.029061 
L 271.477411 165.667826 
M 285.183033 95.246282 
L 265.643336 54.691784 
M 285.183033 95.246282 
L 301.749825 102.174483 
M 222.361966 13.280597 
L 265.643336 54.691784 
M 262.082471 193.780993 
L 268.659772 208.831567 
M 262.082471 193.780993 
L 274.308875 186.966964 
M 267.280271 239.213254 
L 249.44631 234.105677 
M 267.280271 239.213254 
L 267.738042 242.832366 
M 267.280271 239.213254 
L 269.793405 234.936426 
M 267.738042 242.832366 
L 274.039317 240.591557 
M 273.383086 239.450394 
L 269.793405 234.936426 
M 273.383086 239.450394 
L 274.039317 240.591557 
M 273.383086 239.450394 
L 274.507041 238.003185 
M 269.793405 234.936426 
L 270.213885 233.573633 
M 275.632277 238.643266 
L 275.619273 241.136449 
M 275.632277 238.643266 
L 276.004347 237.832201 
M 275.632277 238.643266 
L 274.507041 238.003185 
M 274.039317 240.591557 
L 275.619273 241.136449 
M 276.004347 237.832201 
L 276.477053 237.066397 
M 276.004347 237.832201 
L 273.77662 237.091796 
M 274.507041 238.003185 
L 273.77662 237.091796 
M 273.77662 237.091796 
L 270.213885 233.573633 
M 257.88079 222.584519 
L 274.494373 218.41905 
M 257.88079 222.584519 
L 268.659772 208.831567 
M 270.310772 230.787026 
L 253.851301 226.089943 
M 270.310772 230.787026 
L 270.238535 233.445551 
M 270.310772 230.787026 
L 277.742224 225.563007 
M 274.489759 215.099425 
L 268.659772 208.831567 
M 274.489759 215.099425 
L 274.494373 218.41905 
M 274.489759 215.099425 
L 283.88344 209.374768 
M 253.851301 226.089943 
L 249.44631 234.105677 
M 274.494373 218.41905 
L 277.742224 225.563007 
M 276.477053 237.066397 
L 270.238535 233.445551 
M 276.477053 237.066397 
L 277.802992 236.636926 
M 271.477411 165.667826 
L 274.308875 186.966964 
M 271.477411 165.667826 
L 272.776688 165.10762 
M 274.308875 186.966964 
L 281.930974 188.890776 
M 277.742224 225.563007 
L 282.348193 227.30165 
M 270.238535 233.445551 
L 270.213885 233.573633 
M 277.802992 236.636926 
L 282.348193 227.30165 
M 277.802992 236.636926 
L 279.552066 241.208214 
M 249.44631 234.105677 
L 244.805929 239.599895 
M 288.340288 125.181099 
L 297.853342 119.761538 
M 288.340288 125.181099 
L 272.776688 165.10762 
M 268.340438 254.730452 
L 279.004379 258.804011 
M 283.630274 264.925807 
L 277.803195 271.68199 
M 283.630274 264.925807 
L 291.739005 264.307392 
M 283.630274 264.925807 
L 282.761092 261.223455 
M 277.803195 271.68199 
L 279.004379 258.804011 
M 291.739005 264.307392 
L 290.036533 260.244724 
M 291.739005 264.307392 
L 298.586958 272.368191 
M 282.761092 261.223455 
L 290.036533 260.244724 
M 282.761092 261.223455 
L 279.267494 258.750646 
M 292.413873 370.397875 
L 310.369859 349.419636 
M 292.413873 370.397875 
L 327.311292 448.475313 
M 327.311292 448.475313 
L 272.573312 389.001471 
M 327.311292 448.475313 
L 333.175237 458.591816 
M 305.31055 272.231601 
L 311.718757 262.573008 
M 305.31055 272.231601 
L 298.586958 272.368191 
M 305.31055 272.231601 
L 315.083049 296.609966 
M 272.931598 286.260502 
L 298.586958 272.368191 
M 279.004379 258.804011 
L 279.267494 258.750646 
M 282.079529 249.429357 
L 286.554117 252.202418 
M 282.079529 249.429357 
L 282.833287 244.245615 
M 282.079529 249.429357 
L 276.758555 248.484257 
M 286.554117 252.202418 
L 279.267494 258.750646 
M 286.554117 252.202418 
L 289.434312 252.201547 
M 282.833287 244.245615 
L 295.748475 243.438548 
M 282.833287 244.245615 
L 281.26471 240.921731 
M 279.552066 241.208214 
L 281.26471 240.921731 
M 295.545648 247.177588 
L 311.718757 262.573008 
M 295.545648 247.177588 
L 295.748475 243.438548 
M 295.545648 247.177588 
L 289.434312 252.201547 
M 290.036533 260.244724 
L 289.434312 252.201547 
M 311.718757 262.573008 
L 313.21076 261.806273 
M 295.748475 243.438548 
L 296.987938 235.151495 
M 310.369859 349.419636 
L 328.294314 352.836983 
M 337.350774 401.486908 
L 333.175237 458.591816 
M 337.350774 401.486908 
L 384.055088 382.081489 
M 337.350774 401.486908 
L 328.294314 352.836983 
M 333.175237 458.591816 
L 383.047374 712.825392 
M 384.055088 382.081489 
L 383.047374 712.825392 
M 384.055088 382.081489 
L 385.820005 372.809561 
M 328.294314 352.836983 
L 356.569927 345.112931 
M 381.83382 365.315419 
L 385.820005 372.809561 
M 381.83382 365.315419 
L 431.144271 325.200768 
M 381.83382 365.315419 
L 356.569927 345.112931 
M 385.820005 372.809561 
L 664.99178 418.084156 
M 664.99178 418.084156 
L 1256.702808 608.582019 
M 664.99178 418.084156 
L 436.526709 322.423347 
M 431.144271 325.200768 
L 436.526709 322.423347 
M 431.144271 325.200768 
L 362.902101 328.47093 
M 383.047374 712.825392 
L 1174.16099 7623.628926 
M 356.569927 345.112931 
L 362.902101 328.47093 
M 324.16141 259.164379 
L 329.81242 254.976094 
M 324.16141 259.164379 
L 313.21076 261.806273 
M 324.16141 259.164379 
L 332.892564 290.639637 
M 313.21076 261.806273 
L 309.184475 236.989348 
M 315.083049 296.609966 
L 299.247802 322.785698 
M 315.083049 296.609966 
L 332.892564 290.639637 
M 332.892564 290.639637 
L 369.006455 292.416033 
M 406.616726 281.53001 
L 436.526709 322.423347 
M 406.616726 281.53001 
L 1256.702808 178.76594 
M 406.616726 281.53001 
L 389.427699 265.776405 
M 329.81242 254.976094 
L 336.106802 253.900001 
M 329.81242 254.976094 
L 318.617301 235.965806 
M 388.781398 266.160502 
L 389.381589 265.767225 
M 388.781398 266.160502 
L 336.106802 253.900001 
M 388.781398 266.160502 
L 369.006455 292.416033 
M 369.006455 292.416033 
L 362.902101 328.47093 
M 389.427699 265.776405 
L 583.804848 164.086529 
M 389.427699 265.776405 
L 389.381589 265.767225 
M 1174.16099 7623.628926 
L 1219.701017 8006.96393 
M 309.184475 236.989348 
L 318.617301 235.965806 
M 309.184475 236.989348 
L 306.675959 236.192015 
M 293.245448 229.054737 
L 282.348193 227.30165 
M 293.245448 229.054737 
L 293.821869 230.549174 
M 293.245448 229.054737 
L 295.894058 221.749173 
M 281.26471 240.921731 
L 293.821869 230.549174 
M 293.821869 230.549174 
L 296.987938 235.151495 
M 283.88344 209.374768 
L 294.29886 215.947758 
M 283.88344 209.374768 
L 281.930974 188.890776 
M 304.035593 219.357686 
L 295.894058 221.749173 
M 304.035593 219.357686 
L 312.350414 220.761346 
M 304.035593 219.357686 
L 315.14782 198.950059 
M 295.894058 221.749173 
L 294.29886 215.947758 
M 312.350414 220.761346 
L 313.087793 221.822106 
M 312.350414 220.761346 
L 324.565663 201.519 
M 315.14782 198.950059 
L 318.764381 196.59187 
M 315.14782 198.950059 
L 298.617344 204.938292 
M 296.987938 235.151495 
L 306.675959 236.192015 
M 294.29886 215.947758 
L 298.617344 204.938292 
M 265.643336 54.691784 
L 332.933727 48.13791 
M 301.749825 102.174483 
L 297.853342 119.761538 
M 301.749825 102.174483 
L 313.890663 94.778385 
M 311.651052 173.86567 
L 312.079274 174.105798 
M 311.651052 173.86567 
L 308.661512 167.918683 
M 311.651052 173.86567 
L 282.704591 188.793643 
M 297.853342 119.761538 
L 297.927197 120.010373 
M 282.704591 188.793643 
L 281.930974 188.890776 
M 282.704591 188.793643 
L 298.617344 204.938292 
M 272.776688 165.10762 
L 300.202895 154.088686 
M 300.202895 154.088686 
L 297.927197 120.010373 
M 300.202895 154.088686 
L 308.661512 167.918683 
M 332.933727 48.13791 
L 328.443172 73.528749 
M 332.933727 48.13791 
L 491.44045 -426.406169 
M 318.764381 196.59187 
L 312.079274 174.105798 
M 318.764381 196.59187 
L 324.565663 201.519 
M 322.684048 228.680771 
L 318.617301 235.965806 
M 322.684048 228.680771 
L 335.667082 221.223377 
M 322.684048 228.680771 
L 313.087793 221.822106 
M 306.675959 236.192015 
L 313.087793 221.822106 
M 335.667082 221.223377 
L 336.106802 253.900001 
M 335.667082 221.223377 
L 343.116252 210.642483 
M 324.565663 201.519 
L 343.116252 210.642483 
M 375.151206 205.616784 
L 343.116252 210.642483 
M 375.151206 205.616784 
L 389.381589 265.767225 
M 375.151206 205.616784 
L 376.781335 201.546404 
M 376.781335 201.546404 
L 392.311743 179.917467 
M 376.781335 201.546404 
L 329.128242 168.876826 
M 312.079274 174.105798 
L 329.128242 168.876826 
M 328.301 143.781465 
L 308.661512 167.918683 
M 328.301 143.781465 
L 342.825679 150.582925 
M 328.301 143.781465 
L 297.927197 120.010373 
M 342.825679 150.582925 
L 329.128242 168.876826 
M 342.825679 150.582925 
L 364.026684 140.459231 
M 313.890663 94.778385 
L 328.443172 73.528749 
M 313.890663 94.778385 
L 364.026684 140.459231 
M 373.804657 142.006653 
L 392.311743 179.917467 
M 373.804657 142.006653 
L 392.600201 106.156757 
M 373.804657 142.006653 
L 364.026684 140.459231 
M 392.311743 179.917467 
L 583.804848 164.086529 
M 328.443172 73.528749 
L 392.600201 106.156757 
M 392.600201 106.156757 
L 1256.702808 -418.685727 
M 583.804848 164.086529 
L 1256.702808 -4.384294 
" clip-path="url(#p0c9be8098d)" style="fill: #1f77b4; stroke: #427ce5; stroke-linejoin: miter"/>
   </g>
   <g id="matplotlib.axis_1">
    <g id="xtick_1">
     <g id="line2d_1">
      <defs>
       <path id="m42d63a4983" d="M 0 0 
L 0 3.5 
" style="stroke: #000000; stroke-width: 0.8"/>
      </defs>
      <g>
       <use xlink:href="#m42d63a4983" x="55.804217" y="467.473973" style="stroke: #000000; stroke-width: 0.8"/>
      </g>
     </g>
     <g id="text_1">
      <!-- −1.00 -->
      <g transform="translate(40.48156 482.07241) scale(0.1 -0.1)">
       <defs>
        <path id="DejaVuSans-2212" d="M 678 2272 
L 4684 2272 
L 4684 1741 
L 678 1741 
L 678 2272 
z
" transform="scale(0.015625)"/>
        <path id="DejaVuSans-31" d="M 794 531 
L 1825 531 
L 1825 4091 
L 703 3866 
L 703 4441 
L 1819 4666 
L 2450 4666 
L 2450 531 
L 3481 531 
L 3481 0 
L 794 0 
L 794 531 
z
" transform="scale(0.015625)"/>
        <path id="DejaVuSans-2e" d="M 684 794 
L 1344 794 
L 1344 0 
L 684 0 
L 684 794 
z
" transform="scale(0.015625)"/>
        <path id="DejaVuSans-30" d="M 2034 4250 
Q 1547 4250 1301 3770 
Q 1056 3291 1056 2328 
Q 1056 1369 1301 889 
Q 1547 409 2034 409 
Q 2525 409 2770 889 
Q 3016 1369 3016 2328 
Q 3016 3291 2770 3770 
Q 2525 4250 2034 4250 
z
M 2034 4750 
Q 2819 4750 3233 4129 
Q 3647 3509 3647 2328 
Q 3647 1150 3233 529 
Q 2819 -91 2034 -91 
Q 1250 -91 836 529 
Q 422 1150 422 2328 
Q 422 3509 836 4129 
Q 1250 4750 2034 4750 
z
" transform="scale(0.015625)"/>
       </defs>
       <use xlink:href="#DejaVuSans-2212"/>
       <use xlink:href="#DejaVuSans-31" x="83.789062"/>
       <use xlink:href="#DejaVuSans-2e" x="147.412109"/>
       <use xlink:href="#DejaVuSans-30" x="179.199219"/>
       <use xlink:href="#DejaVuSans-30" x="242.822266"/>
      </g>
     </g>
    </g>
    <g id="xtick_2">
     <g id="line2d_2">
      <g>
       <use xlink:href="#m42d63a4983" x="110.598737" y="467.473973" style="stroke: #000000; stroke-width: 0.8"/>
      </g>
     </g>
     <g id="text_2">
      <!-- −0.75 -->
      <g transform="translate(95.276081 482.07241) scale(0.1 -0.1)">
       <defs>
        <path id="DejaVuSans-37" d="M 525 4666 
L 3525 4666 
L 3525 4397 
L 1831 0 
L 1172 0 
L 2766 4134 
L 525 4134 
L 525 4666 
z
" transform="scale(0.015625)"/>
        <path id="DejaVuSans-35" d="M 691 4666 
L 3169 4666 
L 3169 4134 
L 1269 4134 
L 1269 2991 
Q 1406 3038 1543 3061 
Q 1681 3084 1819 3084 
Q 2600 3084 3056 2656 
Q 3513 2228 3513 1497 
Q 3513 744 3044 326 
Q 2575 -91 1722 -91 
Q 1428 -91 1123 -41 
Q 819 9 494 109 
L 494 744 
Q 775 591 1075 516 
Q 1375 441 1709 441 
Q 2250 441 2565 725 
Q 2881 1009 2881 1497 
Q 2881 1984 2565 2268 
Q 2250 2553 1709 2553 
Q 1456 2553 1204 2497 
Q 953 2441 691 2322 
L 691 4666 
z
" transform="scale(0.015625)"/>
       </defs>
       <use xlink:href="#DejaVuSans-2212"/>
       <use xlink:href="#DejaVuSans-30" x="83.789062"/>
       <use xlink:href="#DejaVuSans-2e" x="147.412109"/>
       <use xlink:href="#DejaVuSans-37" x="179.199219"/>
       <use xlink:href="#DejaVuSans-35" x="242.822266"/>
      </g>
     </g>
    </g>
    <g id="xtick_3">
     <g id="line2d_3">
      <g>
       <use xlink:href="#m42d63a4983" x="165.393258" y="467.473973" style="stroke: #000000; stroke-width: 0.8"/>
      </g>
     </g>
     <g id="text_3">
      <!-- −0.50 -->
      <g transform="translate(150.070601 482.07241) scale(0.1 -0.1)">
       <use xlink:href="#DejaVuSans-2212"/>
       <use xlink:href="#DejaVuSans-30" x="83.789062"/>
       <use xlink:href="#DejaVuSans-2e" x="147.412109"/>
       <use xlink:href="#DejaVuSans-35" x="179.199219"/>
       <use xlink:href="#DejaVuSans-30" x="242.822266"/>
      </g>
     </g>
    </g>
    <g id="xtick_4">
     <g id="line2d_4">
      <g>
       <use xlink:href="#m42d63a4983" x="220.187778" y="467.473973" style="stroke: #000000; stroke-width: 0.8"/>
      </g>
     </g>
     <g id="text_4">
      <!-- −0.25 -->
      <g transform="translate(204.865122 482.07241) scale(0.1 -0.1)">
       <defs>
        <path id="DejaVuSans-32" d="M 1228 531 
L 3431 531 
L 3431 0 
L 469 0 
L 469 531 
Q 828 903 1448 1529 
Q 2069 2156 2228 2338 
Q 2531 2678 2651 2914 
Q 2772 3150 2772 3378 
Q 2772 3750 2511 3984 
Q 2250 4219 1831 4219 
Q 1534 4219 1204 4116 
Q 875 4013 500 3803 
L 500 4441 
Q 881 4594 1212 4672 
Q 1544 4750 1819 4750 
Q 2544 4750 2975 4387 
Q 3406 4025 3406 3419 
Q 3406 3131 3298 2873 
Q 3191 2616 2906 2266 
Q 2828 2175 2409 1742 
Q 1991 1309 1228 531 
z
" transform="scale(0.015625)"/>
       </defs>
       <use xlink:href="#DejaVuSans-2212"/>
       <use xlink:href="#DejaVuSans-30" x="83.789062"/>
       <use xlink:href="#DejaVuSans-2e" x="147.412109"/>
       <use xlink:href="#DejaVuSans-32" x="179.199219"/>
       <use xlink:href="#DejaVuSans-35" x="242.822266"/>
      </g>
     </g>
    </g>
    <g id="xtick_5">
     <g id="line2d_5">
      <g>
       <use xlink:href="#m42d63a4983" x="274.982299" y="467.473973" style="stroke: #000000; stroke-width: 0.8"/>
      </g>
     </g>
     <g id="text_5">
      <!-- 0.00 -->
      <g transform="translate(263.849486 482.07241) scale(0.1 -0.1)">
       <use xlink:href="#DejaVuSans-30"/>
       <use xlink:href="#DejaVuSans-2e" x="63.623047"/>
       <use xlink:href="#DejaVuSans-30" x="95.410156"/>
       <use xlink:href="#DejaVuSans-30" x="159.033203"/>
      </g>
     </g>
    </g>
    <g id="xtick_6">
     <g id="line2d_6">
      <g>
       <use xlink:href="#m42d63a4983" x="329.776819" y="467.473973" style="stroke: #000000; stroke-width: 0.8"/>
      </g>
     </g>
     <g id="text_6">
      <!-- 0.25 -->
      <g transform="translate(318.644007 482.07241) scale(0.1 -0.1)">
       <use xlink:href="#DejaVuSans-30"/>
       <use xlink:href="#DejaVuSans-2e" x="63.623047"/>
       <use xlink:href="#DejaVuSans-32" x="95.410156"/>
       <use xlink:href="#DejaVuSans-35" x="159.033203"/>
      </g>
     </g>
    </g>
    <g id="xtick_7">
     <g id="line2d_7">
      <g>
       <use xlink:href="#m42d63a4983" x="384.57134" y="467.473973" style="stroke: #000000; stroke-width: 0.8"/>
      </g>
     </g>
     <g id="text_7">
      <!-- 0.50 -->
      <g transform="translate(373.438527 482.07241) scale(0.1 -0.1)">
       <use xlink:href="#DejaVuSans-30"/>
       <use xlink:href="#DejaVuSans-2e" x="63.623047"/>
       <use xlink:href="#DejaVuSans-35" x="95.410156"/>
       <use xlink:href="#DejaVuSans-30" x="159.033203"/>
      </g>
     </g>
    </g>
    <g id="xtick_8">
     <g id="line2d_8">
      <g>
       <use xlink:href="#m42d63a4983" x="439.36586" y="467.473973" style="stroke: #000000; stroke-width: 0.8"/>
      </g>
     </g>
     <g id="text_8">
      <!-- 0.75 -->
      <g transform="translate(428.233048 482.07241) scale(0.1 -0.1)">
       <use xlink:href="#DejaVuSans-30"/>
       <use xlink:href="#DejaVuSans-2e" x="63.623047"/>
       <use xlink:href="#DejaVuSans-37" x="95.410156"/>
       <use xlink:href="#DejaVuSans-35" x="159.033203"/>
      </g>
     </g>
    </g>
    <g id="xtick_9">
     <g id="line2d_9">
      <g>
       <use xlink:href="#m42d63a4983" x="494.160381" y="467.473973" style="stroke: #000000; stroke-width: 0.8"/>
      </g>
     </g>
     <g id="text_9">
      <!-- 1.00 -->
      <g transform="translate(483.027568 482.07241) scale(0.1 -0.1)">
       <use xlink:href="#DejaVuSans-31"/>
       <use xlink:href="#DejaVuSans-2e" x="63.623047"/>
       <use xlink:href="#DejaVuSans-30" x="95.410156"/>
       <use xlink:href="#DejaVuSans-30" x="159.033203"/>
      </g>
     </g>
    </g>
   </g>
   <g id="matplotlib.axis_2">
    <g id="ytick_1">
     <g id="line2d_10">
      <defs>
       <path id="m4003889921" d="M 0 0 
L -3.5 0 
" style="stroke: #000000; stroke-width: 0.8"/>
      </defs>
      <g>
       <use xlink:href="#m4003889921" x="44.845313" y="456.515068" style="stroke: #000000; stroke-width: 0.8"/>
      </g>
     </g>
     <g id="text_10">
      <!-- −1.00 -->
      <g transform="translate(7.2 460.314287) scale(0.1 -0.1)">
       <use xlink:href="#DejaVuSans-2212"/>
       <use xlink:href="#DejaVuSans-31" x="83.789062"/>
       <use xlink:href="#DejaVuSans-2e" x="147.412109"/>
       <use xlink:href="#DejaVuSans-30" x="179.199219"/>
       <use xlink:href="#DejaVuSans-30" x="242.822266"/>
      </g>
     </g>
    </g>
    <g id="ytick_2">
     <g id="line2d_11">
      <g>
       <use xlink:href="#m4003889921" x="44.845313" y="401.720548" style="stroke: #000000; stroke-width: 0.8"/>
      </g>
     </g>
     <g id="text_11">
      <!-- −0.75 -->
      <g transform="translate(7.2 405.519767) scale(0.1 -0.1)">
       <use xlink:href="#DejaVuSans-2212"/>
       <use xlink:href="#DejaVuSans-30" x="83.789062"/>
       <use xlink:href="#DejaVuSans-2e" x="147.412109"/>
       <use xlink:href="#DejaVuSans-37" x="179.199219"/>
       <use xlink:href="#DejaVuSans-35" x="242.822266"/>
      </g>
     </g>
    </g>
    <g id="ytick_3">
     <g id="line2d_12">
      <g>
       <use xlink:href="#m4003889921" x="44.845313" y="346.926027" style="stroke: #000000; stroke-width: 0.8"/>
      </g>
     </g>
     <g id="text_12">
      <!-- −0.50 -->
      <g transform="translate(7.2 350.725246) scale(0.1 -0.1)">
       <use xlink:href="#DejaVuSans-2212"/>
       <use xlink:href="#DejaVuSans-30" x="83.789062"/>
       <use xlink:href="#DejaVuSans-2e" x="147.412109"/>
       <use xlink:href="#DejaVuSans-35" x="179.199219"/>
       <use xlink:href="#DejaVuSans-30" x="242.822266"/>
      </g>
     </g>
    </g>
    <g id="ytick_4">
     <g id="line2d_13">
      <g>
       <use xlink:href="#m4003889921" x="44.845313" y="292.131507" style="stroke: #000000; stroke-width: 0.8"/>
      </g>
     </g>
     <g id="text_13">
      <!-- −0.25 -->
      <g transform="translate(7.2 295.930726) scale(0.1 -0.1)">
       <use xlink:href="#DejaVuSans-2212"/>
       <use xlink:href="#DejaVuSans-30" x="83.789062"/>
       <use xlink:href="#DejaVuSans-2e" x="147.412109"/>
       <use xlink:href="#DejaVuSans-32" x="179.199219"/>
       <use xlink:href="#DejaVuSans-35" x="242.822266"/>
      </g>
     </g>
    </g>
    <g id="ytick_5">
     <g id="line2d_14">
      <g>
       <use xlink:href="#m4003889921" x="44.845313" y="237.336986" style="stroke: #000000; stroke-width: 0.8"/>
      </g>
     </g>
     <g id="text_14">
      <!-- 0.00 -->
      <g transform="translate(15.579688 241.136205) scale(0.1 -0.1)">
       <use xlink:href="#DejaVuSans-30"/>
       <use xlink:href="#DejaVuSans-2e" x="63.623047"/>
       <use xlink:href="#DejaVuSans-30" x="95.410156"/>
       <use xlink:href="#DejaVuSans-30" x="159.033203"/>
      </g>
     </g>
    </g>
    <g id="ytick_6">
     <g id="line2d_15">
      <g>
       <use xlink:href="#m4003889921" x="44.845313" y="182.542466" style="stroke: #000000; stroke-width: 0.8"/>
      </g>
     </g>
     <g id="text_15">
      <!-- 0.25 -->
      <g transform="translate(15.579688 186.341685) scale(0.1 -0.1)">
       <use xlink:href="#DejaVuSans-30"/>
       <use xlink:href="#DejaVuSans-2e" x="63.623047"/>
       <use xlink:href="#DejaVuSans-32" x="95.410156"/>
       <use xlink:href="#DejaVuSans-35" x="159.033203"/>
      </g>
     </g>
    </g>
    <g id="ytick_7">
     <g id="line2d_16">
      <g>
       <use xlink:href="#m4003889921" x="44.845313" y="127.747945" style="stroke: #000000; stroke-width: 0.8"/>
      </g>
     </g>
     <g id="text_16">
      <!-- 0.50 -->
      <g transform="translate(15.579688 131.547164) scale(0.1 -0.1)">
       <use xlink:href="#DejaVuSans-30"/>
       <use xlink:href="#DejaVuSans-2e" x="63.623047"/>
       <use xlink:href="#DejaVuSans-35" x="95.410156"/>
       <use xlink:href="#DejaVuSans-30" x="159.033203"/>
      </g>
     </g>
    </g>
    <g id="ytick_8">
     <g id="line2d_17">
      <g>
       <use xlink:href="#m4003889921" x="44.845313" y="72.953425" style="stroke: #000000; stroke-width: 0.8"/>
      </g>
     </g>
     <g id="text_17">
      <!-- 0.75 -->
      <g transform="translate(15.579688 76.752643) scale(0.1 -0.1)">
       <use xlink:href="#DejaVuSans-30"/>
       <use xlink:href="#DejaVuSans-2e" x="63.623047"/>
       <use xlink:href="#DejaVuSans-37" x="95.410156"/>
       <use xlink:href="#DejaVuSans-35" x="159.033203"/>
      </g>
     </g>
    </g>
    <g id="ytick_9">
     <g id="line2d_18">
      <g>
       <use xlink:href="#m4003889921" x="44.845313" y="18.158904" style="stroke: #000000; stroke-width: 0.8"/>
      </g>
     </g>
     <g id="text_18">
      <!-- 1.00 -->
      <g transform="translate(15.579688 21.958123) scale(0.1 -0.1)">
       <use xlink:href="#DejaVuSans-31"/>
       <use xlink:href="#DejaVuSans-2e" x="63.623047"/>
       <use xlink:href="#DejaVuSans-30" x="95.410156"/>
       <use xlink:href="#DejaVuSans-30" x="159.033203"/>
      </g>
     </g>
    </g>
   </g>
   <g id="line2d_19">
    <path d="M 285.430386 59.985096 
" style="fill: none; stroke: #1f77b4; stroke-width: 1.5; stroke-linecap: square"/>
    <defs>
     <path id="m68f812e5e2" d="M 0 3 
C 0.795609 3 1.55874 2.683901 2.12132 2.12132 
C 2.683901 1.55874 3 0.795609 3 0 
C 3 -0.795609 2.683901 -1.55874 2.12132 -2.12132 
C 1.55874 -2.683901 0.795609 -3 0 -3 
C -0.795609 -3 -1.55874 -2.683901 -2.12132 -2.12132 
C -2.683901 -1.55874 -3 -0.795609 -3 0 
C -3 0.795609 -2.683901 1.55874 -2.12132 2.12132 
C -1.55874 2.683901 -0.795609 3 0 3 
z
" style="stroke: #ffd700"/>
    </defs>
    <g>
     <use xlink:href="#m68f812e5e2" x="285.430386" y="59.985096" style="fill: #ffd700; stroke: #ffd700"/>
    </g>
   </g>
   <g id="line2d_20">
    <path d="M 265.930573 216.863847 
" style="fill: none; stroke: #ff7f0e; stroke-width: 1.5; stroke-linecap: square"/>
    <g>
     <use xlink:href="#m68f812e5e2" x="265.930573" y="216.863847" style="fill: #ffd700; stroke: #ffd700"/>
    </g>
   </g>
   <g id="line2d_21">
    <path d="M 443.995778 269.236384 
" style="fill: none; stroke: #2ca02c; stroke-width: 1.5; stroke-linecap: square"/>
    <g>
     <use xlink:href="#m68f812e5e2" x="443.995778" y="269.236384" style="fill: #ffd700; stroke: #ffd700"/>
    </g>
   </g>
   <g id="line2d_22">
    <path d="M 274.35564 238.525085 
" style="fill: none; stroke: #d62728; stroke-width: 1.5; stroke-linecap: square"/>
    <g>
     <use xlink:href="#m68f812e5e2" x="274.35564" y="238.525085" style="fill: #ffd700; stroke: #ffd700"/>
    </g>
   </g>
   <g id="line2d_23">
    <path d="M 277.646058 151.627178 
" style="fill: none; stroke: #9467bd; stroke-width: 1.5; stroke-linecap: square"/>
    <g>
     <use xlink:href="#m68f812e5e2" x="277.646058" y="151.627178" style="fill: #ffd700; stroke: #ffd700"/>
    </g>
   </g>
   <g id="line2d_24">
    <path d="M 316.463285 395.41874 
" style="fill: none; stroke: #8c564b; stroke-width: 1.5; stroke-linecap: square"/>
    <g>
     <use xlink:href="#m68f812e5e2" x="316.463285" y="395.41874" style="fill: #ffd700; stroke: #ffd700"/>
    </g>
   </g>
   <g id="line2d_25">
    <path d="M 275.742739 263.024 
" style="fill: none; stroke: #e377c2; stroke-width: 1.5; stroke-linecap: square"/>
    <g>
     <use xlink:href="#m68f812e5e2" x="275.742739" y="263.024" style="fill: #ffd700; stroke: #ffd700"/>
    </g>
   </g>
   <g id="line2d_26">
    <path d="M 262.770441 241.004888 
" style="fill: none; stroke: #7f7f7f; stroke-width: 1.5; stroke-linecap: square"/>
    <g>
     <use xlink:href="#m68f812e5e2" x="262.770441" y="241.004888" style="fill: #ffd700; stroke: #ffd700"/>
    </g>
   </g>
   <g id="line2d_27">
    <path d="M 295.015702 405.004932 
" style="fill: none; stroke: #bcbd22; stroke-width: 1.5; stroke-linecap: square"/>
    <g>
     <use xlink:href="#m68f812e5e2" x="295.015702" y="405.004932" style="fill: #ffd700; stroke: #ffd700"/>
    </g>
   </g>
   <g id="line2d_28">
    <path d="M 114.442025 243.832964 
" style="fill: none; stroke: #17becf; stroke-width: 1.5; stroke-linecap: square"/>
    <g>
     <use xlink:href="#m68f812e5e2" x="114.442025" y="243.832964" style="fill: #ffd700; stroke: #ffd700"/>
    </g>
   </g>
   <g id="line2d_29">
    <path d="M 410.943066 137.218849 
" style="fill: none; stroke: #1f77b4; stroke-width: 1.5; stroke-linecap: square"/>
    <g>
     <use xlink:href="#m68f812e5e2" x="410.943066" y="137.218849" style="fill: #ffd700; stroke: #ffd700"/>
    </g>
   </g>
   <g id="line2d_30">
    <path d="M 273.014542 242.413699 
" style="fill: none; stroke: #ff7f0e; stroke-width: 1.5; stroke-linecap: square"/>
    <g>
     <use xlink:href="#m68f812e5e2" x="273.014542" y="242.413699" style="fill: #ffd700; stroke: #ffd700"/>
    </g>
   </g>
   <g id="line2d_31">
    <path d="M 409.110737 398.67463 
" style="fill: none; stroke: #2ca02c; stroke-width: 1.5; stroke-linecap: square"/>
    <g>
     <use xlink:href="#m68f812e5e2" x="409.110737" y="398.67463" style="fill: #ffd700; stroke: #ffd700"/>
    </g>
   </g>
   <g id="line2d_32">
    <path d="M 146.429093 108.612822 
" style="fill: none; stroke: #d62728; stroke-width: 1.5; stroke-linecap: square"/>
    <g>
     <use xlink:href="#m68f812e5e2" x="146.429093" y="108.612822" style="fill: #ffd700; stroke: #ffd700"/>
    </g>
   </g>
   <g id="line2d_33">
    <path d="M 284.512491 245.213567 
" style="fill: none; stroke: #9467bd; stroke-width: 1.5; stroke-linecap: square"/>
    <g>
     <use xlink:href="#m68f812e5e2" x="284.512491" y="245.213567" style="fill: #ffd700; stroke: #ffd700"/>
    </g>
   </g>
   <g id="line2d_34">
    <path d="M 223.349641 403.839342 
" style="fill: none; stroke: #8c564b; stroke-width: 1.5; stroke-linecap: square"/>
    <g>
     <use xlink:href="#m68f812e5e2" x="223.349641" y="403.839342" style="fill: #ffd700; stroke: #ffd700"/>
    </g>
   </g>
   <g id="line2d_35">
    <path d="M 206.71008 325.374685 
" style="fill: none; stroke: #e377c2; stroke-width: 1.5; stroke-linecap: square"/>
    <g>
     <use xlink:href="#m68f812e5e2" x="206.71008" y="325.374685" style="fill: #ffd700; stroke: #ffd700"/>
    </g>
   </g>
   <g id="line2d_36">
    <path d="M 276.910077 238.538409 
" style="fill: none; stroke: #7f7f7f; stroke-width: 1.5; stroke-linecap: square"/>
    <g>
     <use xlink:href="#m68f812e5e2" x="276.910077" y="238.538409" style="fill: #ffd700; stroke: #ffd700"/>
    </g>
   </g>
   <g id="line2d_37">
    <path d="M 321.947121 276.036603 
" style="fill: none; stroke: #bcbd22; stroke-width: 1.5; stroke-linecap: square"/>
    <g>
     <use xlink:href="#m68f812e5e2" x="321.947121" y="276.036603" style="fill: #ffd700; stroke: #ffd700"/>
    </g>
   </g>
   <g id="line2d_38">
    <path d="M 148.652655 93.793096 
" style="fill: none; stroke: #17becf; stroke-width: 1.5; stroke-linecap: square"/>
    <g>
     <use xlink:href="#m68f812e5e2" x="148.652655" y="93.793096" style="fill: #ffd700; stroke: #ffd700"/>
    </g>
   </g>
   <g id="line2d_39">
    <path d="M 347.185915 168.343452 
" style="fill: none; stroke: #1f77b4; stroke-width: 1.5; stroke-linecap: square"/>
    <g>
     <use xlink:href="#m68f812e5e2" x="347.185915" y="168.343452" style="fill: #ffd700; stroke: #ffd700"/>
    </g>
   </g>
   <g id="line2d_40">
    <path d="M 280.947954 244.695255 
" style="fill: none; stroke: #ff7f0e; stroke-width: 1.5; stroke-linecap: square"/>
    <g>
     <use xlink:href="#m68f812e5e2" x="280.947954" y="244.695255" style="fill: #ffd700; stroke: #ffd700"/>
    </g>
   </g>
   <g id="line2d_41">
    <path d="M 417.70208 218.976767 
" style="fill: none; stroke: #2ca02c; stroke-width: 1.5; stroke-linecap: square"/>
    <g>
     <use xlink:href="#m68f812e5e2" x="417.70208" y="218.976767" style="fill: #ffd700; stroke: #ffd700"/>
    </g>
   </g>
   <g id="line2d_42">
    <path d="M 275.964819 235.620042 
" style="fill: none; stroke: #d62728; stroke-width: 1.5; stroke-linecap: square"/>
    <g>
     <use xlink:href="#m68f812e5e2" x="275.964819" y="235.620042" style="fill: #ffd700; stroke: #ffd700"/>
    </g>
   </g>
   <g id="line2d_43">
    <path d="M 356.618902 108.737534 
" style="fill: none; stroke: #9467bd; stroke-width: 1.5; stroke-linecap: square"/>
    <g>
     <use xlink:href="#m68f812e5e2" x="356.618902" y="108.737534" style="fill: #ffd700; stroke: #ffd700"/>
    </g>
   </g>
   <g id="line2d_44">
    <path d="M 279.38688 253.484208 
" style="fill: none; stroke: #8c564b; stroke-width: 1.5; stroke-linecap: square"/>
    <g>
     <use xlink:href="#m68f812e5e2" x="279.38688" y="253.484208" style="fill: #ffd700; stroke: #ffd700"/>
    </g>
   </g>
   <g id="line2d_45">
    <path d="M 260.25454 120.185863 
" style="fill: none; stroke: #e377c2; stroke-width: 1.5; stroke-linecap: square"/>
    <g>
     <use xlink:href="#m68f812e5e2" x="260.25454" y="120.185863" style="fill: #ffd700; stroke: #ffd700"/>
    </g>
   </g>
   <g id="line2d_46">
    <path d="M 310.876874 214.481534 
" style="fill: none; stroke: #7f7f7f; stroke-width: 1.5; stroke-linecap: square"/>
    <g>
     <use xlink:href="#m68f812e5e2" x="310.876874" y="214.481534" style="fill: #ffd700; stroke: #ffd700"/>
    </g>
   </g>
   <g id="line2d_47">
    <path d="M 274.03886 238.279062 
" style="fill: none; stroke: #bcbd22; stroke-width: 1.5; stroke-linecap: square"/>
    <g>
     <use xlink:href="#m68f812e5e2" x="274.03886" y="238.279062" style="fill: #ffd700; stroke: #ffd700"/>
    </g>
   </g>
   <g id="line2d_48">
    <path d="M 290.26506 205.41326 
" style="fill: none; stroke: #17becf; stroke-width: 1.5; stroke-linecap: square"/>
    <g>
     <use xlink:href="#m68f812e5e2" x="290.26506" y="205.41326" style="fill: #ffd700; stroke: #ffd700"/>
    </g>
   </g>
   <g id="line2d_49">
    <path d="M 263.981444 350.497753 
" style="fill: none; stroke: #1f77b4; stroke-width: 1.5; stroke-linecap: square"/>
    <g>
     <use xlink:href="#m68f812e5e2" x="263.981444" y="350.497753" style="fill: #ffd700; stroke: #ffd700"/>
    </g>
   </g>
   <g id="line2d_50">
    <path d="M 295.908808 286.474521 
" style="fill: none; stroke: #ff7f0e; stroke-width: 1.5; stroke-linecap: square"/>
    <g>
     <use xlink:href="#m68f812e5e2" x="295.908808" y="286.474521" style="fill: #ffd700; stroke: #ffd700"/>
    </g>
   </g>
   <g id="line2d_51">
    <path d="M 272.094167 239.825556 
" style="fill: none; stroke: #2ca02c; stroke-width: 1.5; stroke-linecap: square"/>
    <g>
     <use xlink:href="#m68f812e5e2" x="272.094167" y="239.825556" style="fill: #ffd700; stroke: #ffd700"/>
    </g>
   </g>
   <g id="line2d_52">
    <path d="M 306.726518 246.418586 
" style="fill: none; stroke: #d62728; stroke-width: 1.5; stroke-linecap: square"/>
    <g>
     <use xlink:href="#m68f812e5e2" x="306.726518" y="246.418586" style="fill: #ffd700; stroke: #ffd700"/>
    </g>
   </g>
   <g id="line2d_53">
    <path d="M 238.686408 261.287233 
" style="fill: none; stroke: #9467bd; stroke-width: 1.5; stroke-linecap: square"/>
    <g>
     <use xlink:href="#m68f812e5e2" x="238.686408" y="261.287233" style="fill: #ffd700; stroke: #ffd700"/>
    </g>
   </g>
   <g id="line2d_54">
    <path d="M 281.429312 263.554411 
" style="fill: none; stroke: #8c564b; stroke-width: 1.5; stroke-linecap: square"/>
    <g>
     <use xlink:href="#m68f812e5e2" x="281.429312" y="263.554411" style="fill: #ffd700; stroke: #ffd700"/>
    </g>
   </g>
   <g id="line2d_55">
    <path d="M 189.750956 199.081205 
" style="fill: none; stroke: #e377c2; stroke-width: 1.5; stroke-linecap: square"/>
    <g>
     <use xlink:href="#m68f812e5e2" x="189.750956" y="199.081205" style="fill: #ffd700; stroke: #ffd700"/>
    </g>
   </g>
   <g id="line2d_56">
    <path d="M 279.737126 237.456719 
" style="fill: none; stroke: #7f7f7f; stroke-width: 1.5; stroke-linecap: square"/>
    <g>
     <use xlink:href="#m68f812e5e2" x="279.737126" y="237.456719" style="fill: #ffd700; stroke: #ffd700"/>
    </g>
   </g>
   <g id="line2d_57">
    <path d="M 373.492107 75.559452 
" style="fill: none; stroke: #bcbd22; stroke-width: 1.5; stroke-linecap: square"/>
    <g>
     <use xlink:href="#m68f812e5e2" x="373.492107" y="75.559452" style="fill: #ffd700; stroke: #ffd700"/>
    </g>
   </g>
   <g id="line2d_58">
    <path d="M 397.620984 319.836712 
" style="fill: none; stroke: #17becf; stroke-width: 1.5; stroke-linecap: square"/>
    <g>
     <use xlink:href="#m68f812e5e2" x="397.620984" y="319.836712" style="fill: #ffd700; stroke: #ffd700"/>
    </g>
   </g>
   <g id="line2d_59">
    <path d="M 98.393148 280.395397 
" style="fill: none; stroke: #1f77b4; stroke-width: 1.5; stroke-linecap: square"/>
    <g>
     <use xlink:href="#m68f812e5e2" x="98.393148" y="280.395397" style="fill: #ffd700; stroke: #ffd700"/>
    </g>
   </g>
   <g id="line2d_60">
    <path d="M 263.500918 315.587726 
" style="fill: none; stroke: #ff7f0e; stroke-width: 1.5; stroke-linecap: square"/>
    <g>
     <use xlink:href="#m68f812e5e2" x="263.500918" y="315.587726" style="fill: #ffd700; stroke: #ffd700"/>
    </g>
   </g>
   <g id="line2d_61">
    <path d="M 285.310058 266.901479 
" style="fill: none; stroke: #2ca02c; stroke-width: 1.5; stroke-linecap: square"/>
    <g>
     <use xlink:href="#m68f812e5e2" x="285.310058" y="266.901479" style="fill: #ffd700; stroke: #ffd700"/>
    </g>
   </g>
   <g id="line2d_62">
    <path d="M 284.378923 243.076142 
" style="fill: none; stroke: #d62728; stroke-width: 1.5; stroke-linecap: square"/>
    <g>
     <use xlink:href="#m68f812e5e2" x="284.378923" y="243.076142" style="fill: #ffd700; stroke: #ffd700"/>
    </g>
   </g>
   <g id="line2d_63">
    <path d="M 283.053817 216.840044 
" style="fill: none; stroke: #9467bd; stroke-width: 1.5; stroke-linecap: square"/>
    <g>
     <use xlink:href="#m68f812e5e2" x="283.053817" y="216.840044" style="fill: #ffd700; stroke: #ffd700"/>
    </g>
   </g>
   <g id="line2d_64">
    <path d="M 445.848491 284.562411 
" style="fill: none; stroke: #8c564b; stroke-width: 1.5; stroke-linecap: square"/>
    <g>
     <use xlink:href="#m68f812e5e2" x="445.848491" y="284.562411" style="fill: #ffd700; stroke: #ffd700"/>
    </g>
   </g>
   <g id="line2d_65">
    <path d="M 125.30471 342.479562 
" style="fill: none; stroke: #e377c2; stroke-width: 1.5; stroke-linecap: square"/>
    <g>
     <use xlink:href="#m68f812e5e2" x="125.30471" y="342.479562" style="fill: #ffd700; stroke: #ffd700"/>
    </g>
   </g>
   <g id="line2d_66">
    <path d="M 331.754463 136.026959 
" style="fill: none; stroke: #7f7f7f; stroke-width: 1.5; stroke-linecap: square"/>
    <g>
     <use xlink:href="#m68f812e5e2" x="331.754463" y="136.026959" style="fill: #ffd700; stroke: #ffd700"/>
    </g>
   </g>
   <g id="line2d_67">
    <path d="M 299.213093 196.593753 
" style="fill: none; stroke: #bcbd22; stroke-width: 1.5; stroke-linecap: square"/>
    <g>
     <use xlink:href="#m68f812e5e2" x="299.213093" y="196.593753" style="fill: #ffd700; stroke: #ffd700"/>
    </g>
   </g>
   <g id="line2d_68">
    <path d="M 321.603669 148.99726 
" style="fill: none; stroke: #17becf; stroke-width: 1.5; stroke-linecap: square"/>
    <g>
     <use xlink:href="#m68f812e5e2" x="321.603669" y="148.99726" style="fill: #ffd700; stroke: #ffd700"/>
    </g>
   </g>
   <g id="line2d_69">
    <path d="M 343.097367 236.62674 
" style="fill: none; stroke: #1f77b4; stroke-width: 1.5; stroke-linecap: square"/>
    <g>
     <use xlink:href="#m68f812e5e2" x="343.097367" y="236.62674" style="fill: #ffd700; stroke: #ffd700"/>
    </g>
   </g>
   <g id="line2d_70">
    <path d="M 257.452063 73.465425 
" style="fill: none; stroke: #ff7f0e; stroke-width: 1.5; stroke-linecap: square"/>
    <g>
     <use xlink:href="#m68f812e5e2" x="257.452063" y="73.465425" style="fill: #ffd700; stroke: #ffd700"/>
    </g>
   </g>
   <g id="line2d_71">
    <path d="M 180.388984 215.314192 
" style="fill: none; stroke: #2ca02c; stroke-width: 1.5; stroke-linecap: square"/>
    <g>
     <use xlink:href="#m68f812e5e2" x="180.388984" y="215.314192" style="fill: #ffd700; stroke: #ffd700"/>
    </g>
   </g>
   <g id="line2d_72">
    <path d="M 229.473696 249.066696 
" style="fill: none; stroke: #d62728; stroke-width: 1.5; stroke-linecap: square"/>
    <g>
     <use xlink:href="#m68f812e5e2" x="229.473696" y="249.066696" style="fill: #ffd700; stroke: #ffd700"/>
    </g>
   </g>
   <g id="line2d_73">
    <path d="M 252.215614 273.264658 
" style="fill: none; stroke: #9467bd; stroke-width: 1.5; stroke-linecap: square"/>
    <g>
     <use xlink:href="#m68f812e5e2" x="252.215614" y="273.264658" style="fill: #ffd700; stroke: #ffd700"/>
    </g>
   </g>
   <g id="line2d_74">
    <path d="M 257.258485 255.606422 
" style="fill: none; stroke: #8c564b; stroke-width: 1.5; stroke-linecap: square"/>
    <g>
     <use xlink:href="#m68f812e5e2" x="257.258485" y="255.606422" style="fill: #ffd700; stroke: #ffd700"/>
    </g>
   </g>
   <g id="line2d_75">
    <path d="M 264.402617 235.305874 
" style="fill: none; stroke: #e377c2; stroke-width: 1.5; stroke-linecap: square"/>
    <g>
     <use xlink:href="#m68f812e5e2" x="264.402617" y="235.305874" style="fill: #ffd700; stroke: #ffd700"/>
    </g>
   </g>
   <g id="line2d_76">
    <path d="M 250.257915 282.531945 
" style="fill: none; stroke: #7f7f7f; stroke-width: 1.5; stroke-linecap: square"/>
    <g>
     <use xlink:href="#m68f812e5e2" x="250.257915" y="282.531945" style="fill: #ffd700; stroke: #ffd700"/>
    </g>
   </g>
   <g id="line2d_77">
    <path d="M 295.338112 258.382268 
" style="fill: none; stroke: #bcbd22; stroke-width: 1.5; stroke-linecap: square"/>
    <g>
     <use xlink:href="#m68f812e5e2" x="295.338112" y="258.382268" style="fill: #ffd700; stroke: #ffd700"/>
    </g>
   </g>
   <g id="line2d_78">
    <path d="M 136.5606 238.747969 
" style="fill: none; stroke: #17becf; stroke-width: 1.5; stroke-linecap: square"/>
    <g>
     <use xlink:href="#m68f812e5e2" x="136.5606" y="238.747969" style="fill: #ffd700; stroke: #ffd700"/>
    </g>
   </g>
   <g id="line2d_79">
    <path d="M 225.164655 420.527342 
" style="fill: none; stroke: #1f77b4; stroke-width: 1.5; stroke-linecap: square"/>
    <g>
     <use xlink:href="#m68f812e5e2" x="225.164655" y="420.527342" style="fill: #ffd700; stroke: #ffd700"/>
    </g>
   </g>
   <g id="line2d_80">
    <path d="M 267.677334 223.830641 
" style="fill: none; stroke: #ff7f0e; stroke-width: 1.5; stroke-linecap: square"/>
    <g>
     <use xlink:href="#m68f812e5e2" x="267.677334" y="223.830641" style="fill: #ffd700; stroke: #ffd700"/>
    </g>
   </g>
   <g id="line2d_81">
    <path d="M 254.325817 310.283178 
" style="fill: none; stroke: #2ca02c; stroke-width: 1.5; stroke-linecap: square"/>
    <g>
     <use xlink:href="#m68f812e5e2" x="254.325817" y="310.283178" style="fill: #ffd700; stroke: #ffd700"/>
    </g>
   </g>
   <g id="line2d_82">
    <path d="M 318.660326 219.422553 
" style="fill: none; stroke: #d62728; stroke-width: 1.5; stroke-linecap: square"/>
    <g>
     <use xlink:href="#m68f812e5e2" x="318.660326" y="219.422553" style="fill: #ffd700; stroke: #ffd700"/>
    </g>
   </g>
   <g id="line2d_83">
    <path d="M 284.037093 45.679781 
" style="fill: none; stroke: #9467bd; stroke-width: 1.5; stroke-linecap: square"/>
    <g>
     <use xlink:href="#m68f812e5e2" x="284.037093" y="45.679781" style="fill: #ffd700; stroke: #ffd700"/>
    </g>
   </g>
   <g id="line2d_84">
    <path d="M 274.967093 237.339068 
" style="fill: none; stroke: #8c564b; stroke-width: 1.5; stroke-linecap: square"/>
    <g>
     <use xlink:href="#m68f812e5e2" x="274.967093" y="237.339068" style="fill: #ffd700; stroke: #ffd700"/>
    </g>
   </g>
   <g id="line2d_85">
    <path d="M 181.970354 290.297205 
" style="fill: none; stroke: #e377c2; stroke-width: 1.5; stroke-linecap: square"/>
    <g>
     <use xlink:href="#m68f812e5e2" x="181.970354" y="290.297205" style="fill: #ffd700; stroke: #ffd700"/>
    </g>
   </g>
   <g id="line2d_86">
    <path d="M 398.287504 333.745753 
" style="fill: none; stroke: #7f7f7f; stroke-width: 1.5; stroke-linecap: square"/>
    <g>
     <use xlink:href="#m68f812e5e2" x="398.287504" y="333.745753" style="fill: #ffd700; stroke: #ffd700"/>
    </g>
   </g>
   <g id="line2d_87">
    <path d="M 335.141203 185.912329 
" style="fill: none; stroke: #bcbd22; stroke-width: 1.5; stroke-linecap: square"/>
    <g>
     <use xlink:href="#m68f812e5e2" x="335.141203" y="185.912329" style="fill: #ffd700; stroke: #ffd700"/>
    </g>
   </g>
   <g id="line2d_88">
    <path d="M 285.92174 170.820822 
" style="fill: none; stroke: #17becf; stroke-width: 1.5; stroke-linecap: square"/>
    <g>
     <use xlink:href="#m68f812e5e2" x="285.92174" y="170.820822" style="fill: #ffd700; stroke: #ffd700"/>
    </g>
   </g>
   <g id="line2d_89">
    <path d="M 276.868337 206.690192 
" style="fill: none; stroke: #1f77b4; stroke-width: 1.5; stroke-linecap: square"/>
    <g>
     <use xlink:href="#m68f812e5e2" x="276.868337" y="206.690192" style="fill: #ffd700; stroke: #ffd700"/>
    </g>
   </g>
   <g id="line2d_90">
    <path d="M 251.572107 371.148712 
" style="fill: none; stroke: #ff7f0e; stroke-width: 1.5; stroke-linecap: square"/>
    <g>
     <use xlink:href="#m68f812e5e2" x="251.572107" y="371.148712" style="fill: #ffd700; stroke: #ffd700"/>
    </g>
   </g>
   <g id="line2d_91">
    <path d="M 226.962792 247.27417 
" style="fill: none; stroke: #2ca02c; stroke-width: 1.5; stroke-linecap: square"/>
    <g>
     <use xlink:href="#m68f812e5e2" x="226.962792" y="247.27417" style="fill: #ffd700; stroke: #ffd700"/>
    </g>
   </g>
   <g id="line2d_92">
    <path d="M 198.471833 176.846904 
" style="fill: none; stroke: #d62728; stroke-width: 1.5; stroke-linecap: square"/>
    <g>
     <use xlink:href="#m68f812e5e2" x="198.471833" y="176.846904" style="fill: #ffd700; stroke: #ffd700"/>
    </g>
   </g>
   <g id="line2d_93">
    <path d="M 358.898792 398.521644 
" style="fill: none; stroke: #9467bd; stroke-width: 1.5; stroke-linecap: square"/>
    <g>
     <use xlink:href="#m68f812e5e2" x="358.898792" y="398.521644" style="fill: #ffd700; stroke: #ffd700"/>
    </g>
   </g>
   <g id="line2d_94">
    <path d="M 261.512293 213.400986 
" style="fill: none; stroke: #8c564b; stroke-width: 1.5; stroke-linecap: square"/>
    <g>
     <use xlink:href="#m68f812e5e2" x="261.512293" y="213.400986" style="fill: #ffd700; stroke: #ffd700"/>
    </g>
   </g>
   <g id="line2d_95">
    <path d="M 94.684655 342.304219 
" style="fill: none; stroke: #e377c2; stroke-width: 1.5; stroke-linecap: square"/>
    <g>
     <use xlink:href="#m68f812e5e2" x="94.684655" y="342.304219" style="fill: #ffd700; stroke: #ffd700"/>
    </g>
   </g>
   <g id="line2d_96">
    <path d="M 284.991022 262.718247 
" style="fill: none; stroke: #7f7f7f; stroke-width: 1.5; stroke-linecap: square"/>
    <g>
     <use xlink:href="#m68f812e5e2" x="284.991022" y="262.718247" style="fill: #ffd700; stroke: #ffd700"/>
    </g>
   </g>
   <g id="line2d_97">
    <path d="M 328.65397 236.8211 
" style="fill: none; stroke: #bcbd22; stroke-width: 1.5; stroke-linecap: square"/>
    <g>
     <use xlink:href="#m68f812e5e2" x="328.65397" y="236.8211" style="fill: #ffd700; stroke: #ffd700"/>
    </g>
   </g>
   <g id="line2d_98">
    <path d="M 334.751066 272.484822 
" style="fill: none; stroke: #17becf; stroke-width: 1.5; stroke-linecap: square"/>
    <g>
     <use xlink:href="#m68f812e5e2" x="334.751066" y="272.484822" style="fill: #ffd700; stroke: #ffd700"/>
    </g>
   </g>
   <g id="line2d_99">
    <path d="M 416.09134 355.630904 
" style="fill: none; stroke: #1f77b4; stroke-width: 1.5; stroke-linecap: square"/>
    <g>
     <use xlink:href="#m68f812e5e2" x="416.09134" y="355.630904" style="fill: #ffd700; stroke: #ffd700"/>
    </g>
   </g>
   <g id="line2d_100">
    <path d="M 274.878267 237.60633 
" style="fill: none; stroke: #ff7f0e; stroke-width: 1.5; stroke-linecap: square"/>
    <g>
     <use xlink:href="#m68f812e5e2" x="274.878267" y="237.60633" style="fill: #ffd700; stroke: #ffd700"/>
    </g>
   </g>
   <g id="line2d_101">
    <path d="M 205.668107 331.174137 
" style="fill: none; stroke: #2ca02c; stroke-width: 1.5; stroke-linecap: square"/>
    <g>
     <use xlink:href="#m68f812e5e2" x="205.668107" y="331.174137" style="fill: #ffd700; stroke: #ffd700"/>
    </g>
   </g>
   <g id="line2d_102">
    <path d="M 314.497477 245.15783 
" style="fill: none; stroke: #d62728; stroke-width: 1.5; stroke-linecap: square"/>
    <g>
     <use xlink:href="#m68f812e5e2" x="314.497477" y="245.15783" style="fill: #ffd700; stroke: #ffd700"/>
    </g>
   </g>
   <g id="line2d_103">
    <path d="M 304.41923 210.96526 
" style="fill: none; stroke: #9467bd; stroke-width: 1.5; stroke-linecap: square"/>
    <g>
     <use xlink:href="#m68f812e5e2" x="304.41923" y="210.96526" style="fill: #ffd700; stroke: #ffd700"/>
    </g>
   </g>
   <g id="line2d_104">
    <path d="M 147.656052 302.591562 
" style="fill: none; stroke: #8c564b; stroke-width: 1.5; stroke-linecap: square"/>
    <g>
     <use xlink:href="#m68f812e5e2" x="147.656052" y="302.591562" style="fill: #ffd700; stroke: #ffd700"/>
    </g>
   </g>
   <g id="line2d_105">
    <path d="M 258.881017 174.415562 
" style="fill: none; stroke: #e377c2; stroke-width: 1.5; stroke-linecap: square"/>
    <g>
     <use xlink:href="#m68f812e5e2" x="258.881017" y="174.415562" style="fill: #ffd700; stroke: #ffd700"/>
    </g>
   </g>
   <g id="line2d_106">
    <path d="M 278.315165 151.888 
" style="fill: none; stroke: #7f7f7f; stroke-width: 1.5; stroke-linecap: square"/>
    <g>
     <use xlink:href="#m68f812e5e2" x="278.315165" y="151.888" style="fill: #ffd700; stroke: #ffd700"/>
    </g>
   </g>
   <g id="line2d_107">
    <path d="M 255.155559 307.153096 
" style="fill: none; stroke: #bcbd22; stroke-width: 1.5; stroke-linecap: square"/>
    <g>
     <use xlink:href="#m68f812e5e2" x="255.155559" y="307.153096" style="fill: #ffd700; stroke: #ffd700"/>
    </g>
   </g>
   <g id="line2d_108">
    <path d="M 240.415066 222.123682 
" style="fill: none; stroke: #17becf; stroke-width: 1.5; stroke-linecap: square"/>
    <g>
     <use xlink:href="#m68f812e5e2" x="240.415066" y="222.123682" style="fill: #ffd700; stroke: #ffd700"/>
    </g>
   </g>
   <g id="line2d_109">
    <path d="M 272.92074 244.339529 
" style="fill: none; stroke: #1f77b4; stroke-width: 1.5; stroke-linecap: square"/>
    <g>
     <use xlink:href="#m68f812e5e2" x="272.92074" y="244.339529" style="fill: #ffd700; stroke: #ffd700"/>
    </g>
   </g>
   <g id="line2d_110">
    <path d="M 102.952271 257.556427 
" style="fill: none; stroke: #ff7f0e; stroke-width: 1.5; stroke-linecap: square"/>
    <g>
     <use xlink:href="#m68f812e5e2" x="102.952271" y="257.556427" style="fill: #ffd700; stroke: #ffd700"/>
    </g>
   </g>
   <g id="line2d_111">
    <path d="M 284.516721 259.192504 
" style="fill: none; stroke: #2ca02c; stroke-width: 1.5; stroke-linecap: square"/>
    <g>
     <use xlink:href="#m68f812e5e2" x="284.516721" y="259.192504" style="fill: #ffd700; stroke: #ffd700"/>
    </g>
   </g>
   <g id="line2d_112">
    <path d="M 354.655504 388.309041 
" style="fill: none; stroke: #d62728; stroke-width: 1.5; stroke-linecap: square"/>
    <g>
     <use xlink:href="#m68f812e5e2" x="354.655504" y="388.309041" style="fill: #ffd700; stroke: #ffd700"/>
    </g>
   </g>
   <g id="line2d_113">
    <path d="M 324.555997 151.399452 
" style="fill: none; stroke: #9467bd; stroke-width: 1.5; stroke-linecap: square"/>
    <g>
     <use xlink:href="#m68f812e5e2" x="324.555997" y="151.399452" style="fill: #ffd700; stroke: #ffd700"/>
    </g>
   </g>
   <g id="line2d_114">
    <path d="M 332.960381 308.889205 
" style="fill: none; stroke: #8c564b; stroke-width: 1.5; stroke-linecap: square"/>
    <g>
     <use xlink:href="#m68f812e5e2" x="332.960381" y="308.889205" style="fill: #ffd700; stroke: #ffd700"/>
    </g>
   </g>
   <g id="line2d_115">
    <path d="M 308.897039 226.209425 
" style="fill: none; stroke: #e377c2; stroke-width: 1.5; stroke-linecap: square"/>
    <g>
     <use xlink:href="#m68f812e5e2" x="308.897039" y="226.209425" style="fill: #ffd700; stroke: #ffd700"/>
    </g>
   </g>
   <g id="line2d_116">
    <path d="M 241.908107 80.149699 
" style="fill: none; stroke: #7f7f7f; stroke-width: 1.5; stroke-linecap: square"/>
    <g>
     <use xlink:href="#m68f812e5e2" x="241.908107" y="80.149699" style="fill: #ffd700; stroke: #ffd700"/>
    </g>
   </g>
   <g id="line2d_117">
    <path d="M 286.663855 412.691726 
" style="fill: none; stroke: #bcbd22; stroke-width: 1.5; stroke-linecap: square"/>
    <g>
     <use xlink:href="#m68f812e5e2" x="286.663855" y="412.691726" style="fill: #ffd700; stroke: #ffd700"/>
    </g>
   </g>
   <g id="line2d_118">
    <path d="M 312.621751 227.871386 
" style="fill: none; stroke: #17becf; stroke-width: 1.5; stroke-linecap: square"/>
    <g>
     <use xlink:href="#m68f812e5e2" x="312.621751" y="227.871386" style="fill: #ffd700; stroke: #ffd700"/>
    </g>
   </g>
   <g id="patch_4">
    <path d="M 44.845313 467.473973 
L 44.845313 7.2 
" style="fill: none; stroke: #000000; stroke-width: 0.8; stroke-linejoin: miter; stroke-linecap: square"/>
   </g>
   <g id="patch_5">
    <path d="M 505.119285 467.473973 
L 505.119285 7.2 
" style="fill: none; stroke: #000000; stroke-width: 0.8; stroke-linejoin: miter; stroke-linecap: square"/>
   </g>
   <g id="patch_6">
    <path d="M 44.845312 467.473973 
L 505.119285 467.473973 
" style="fill: none; stroke: #000000; stroke-width: 0.8; stroke-linejoin: miter; stroke-linecap: square"/>
   </g>
   <g id="patch_7">
    <path d="M 44.845312 7.2 
L 505.119285 7.2 
" style="fill: none; stroke: #000000; stroke-width: 0.8; stroke-linejoin: miter; stroke-linecap: square"/>
   </g>
  </g>
 </g>
 <defs>
  <clipPath id="p0c9be8098d">
   <rect x="44.845313" y="7.2" width="460.273973" height="460.273973"/>
  </clipPath>
 </defs>
</svg>
