<?xml version="1.0" encoding="utf-8" standalone="no"?>
<!DOCTYPE svg PUBLIC "-//W3C//DTD SVG 1.1//EN"
  "http://www.w3.org/Graphics/SVG/1.1/DTD/svg11.dtd">
<svg xmlns:xlink="http://www.w3.org/1999/xlink" width="505.52866pt" height="495.151316pt" viewBox="0 0 505.52866 495.151316" xmlns="http://www.w3.org/2000/svg" version="1.1">
 <metadata>
  <rdf:RDF xmlns:dc="http://purl.org/dc/elements/1.1/" xmlns:cc="http://creativecommons.org/ns#" xmlns:rdf="http://www.w3.org/1999/02/22-rdf-syntax-ns#">
   <cc:Work>
    <dc:type rdf:resource="http://purl.org/dc/dcmitype/StillImage"/>
    <dc:date>2022-06-24T16:07:55.713031</dc:date>
    <dc:format>image/svg+xml</dc:format>
    <dc:creator>
     <cc:Agent>
      <dc:title>Matplotlib v3.5.2, https://matplotlib.org/</dc:title>
     </cc:Agent>
    </dc:creator>
   </cc:Work>
  </rdf:RDF>
 </metadata>
 <defs>
  <style type="text/css">*{stroke-linejoin: round; stroke-linecap: butt}</style>
 </defs>
 <g id="figure_1">
  <g id="patch_1">
   <path d="M 0 495.151316 
L 505.52866 495.151316 
L 505.52866 0 
L 0 0 
z
" style="fill: #ffffff"/>
  </g>
  <g id="axes_1">
   <g id="patch_2">
    <path d="M 30.103125 471.273191 
L 490.377098 471.273191 
L 490.377098 10.999219 
L 30.103125 10.999219 
z
" style="fill: #ffffff"/>
   </g>
   <g id="patch_3">
    <path d="M 30.103125 471.273191 
L 327.645674 308.541768 
L 30.103125 241.136205 
z
" clip-path="url(#p3cc0e01735)" style="fill: #cbe4f9; stroke: #000000; stroke-linejoin: miter"/>
   </g>
   <g id="patch_4">
    <path d="M 327.645674 308.541768 
L 30.103125 10.999219 
L 30.103125 241.136205 
z
" clip-path="url(#p3cc0e01735)" style="fill: #cbe4f9; stroke: #000000; stroke-linejoin: miter"/>
   </g>
   <g id="patch_5">
    <path d="M 30.103125 471.273191 
L 490.377098 471.273191 
L 327.645674 308.541768 
z
" clip-path="url(#p3cc0e01735)" style="fill: #cbe4f9; stroke: #000000; stroke-linejoin: miter"/>
   </g>
   <g id="matplotlib.axis_1">
    <g id="xtick_1">
     <g id="line2d_1">
      <defs>
       <path id="m351924969e" d="M 0 0 
L 0 3.5 
" style="stroke: #000000; stroke-width: 0.8"/>
      </defs>
      <g>
       <use xlink:href="#m351924969e" x="30.103125" y="471.273191" style="stroke: #000000; stroke-width: 0.8"/>
      </g>
     </g>
     <g id="text_1">
      <!-- 0.0 -->
      <g transform="translate(22.151563 485.871629)scale(0.1 -0.1)">
       <defs>
        <path id="DejaVuSans-30" d="M 2034 4250 
Q 1547 4250 1301 3770 
Q 1056 3291 1056 2328 
Q 1056 1369 1301 889 
Q 1547 409 2034 409 
Q 2525 409 2770 889 
Q 3016 1369 3016 2328 
Q 3016 3291 2770 3770 
Q 2525 4250 2034 4250 
z
M 2034 4750 
Q 2819 4750 3233 4129 
Q 3647 3509 3647 2328 
Q 3647 1150 3233 529 
Q 2819 -91 2034 -91 
Q 1250 -91 836 529 
Q 422 1150 422 2328 
Q 422 3509 836 4129 
Q 1250 4750 2034 4750 
z
" transform="scale(0.015625)"/>
        <path id="DejaVuSans-2e" d="M 684 794 
L 1344 794 
L 1344 0 
L 684 0 
L 684 794 
z
" transform="scale(0.015625)"/>
       </defs>
       <use xlink:href="#DejaVuSans-30"/>
       <use xlink:href="#DejaVuSans-2e" x="63.623047"/>
       <use xlink:href="#DejaVuSans-30" x="95.410156"/>
      </g>
     </g>
    </g>
    <g id="xtick_2">
     <g id="line2d_2">
      <g>
       <use xlink:href="#m351924969e" x="122.15792" y="471.273191" style="stroke: #000000; stroke-width: 0.8"/>
      </g>
     </g>
     <g id="text_2">
      <!-- 0.2 -->
      <g transform="translate(114.206357 485.871629)scale(0.1 -0.1)">
       <defs>
        <path id="DejaVuSans-32" d="M 1228 531 
L 3431 531 
L 3431 0 
L 469 0 
L 469 531 
Q 828 903 1448 1529 
Q 2069 2156 2228 2338 
Q 2531 2678 2651 2914 
Q 2772 3150 2772 3378 
Q 2772 3750 2511 3984 
Q 2250 4219 1831 4219 
Q 1534 4219 1204 4116 
Q 875 4013 500 3803 
L 500 4441 
Q 881 4594 1212 4672 
Q 1544 4750 1819 4750 
Q 2544 4750 2975 4387 
Q 3406 4025 3406 3419 
Q 3406 3131 3298 2873 
Q 3191 2616 2906 2266 
Q 2828 2175 2409 1742 
Q 1991 1309 1228 531 
z
" transform="scale(0.015625)"/>
       </defs>
       <use xlink:href="#DejaVuSans-30"/>
       <use xlink:href="#DejaVuSans-2e" x="63.623047"/>
       <use xlink:href="#DejaVuSans-32" x="95.410156"/>
      </g>
     </g>
    </g>
    <g id="xtick_3">
     <g id="line2d_3">
      <g>
       <use xlink:href="#m351924969e" x="214.212714" y="471.273191" style="stroke: #000000; stroke-width: 0.8"/>
      </g>
     </g>
     <g id="text_3">
      <!-- 0.4 -->
      <g transform="translate(206.261152 485.871629)scale(0.1 -0.1)">
       <defs>
        <path id="DejaVuSans-34" d="M 2419 4116 
L 825 1625 
L 2419 1625 
L 2419 4116 
z
M 2253 4666 
L 3047 4666 
L 3047 1625 
L 3713 1625 
L 3713 1100 
L 3047 1100 
L 3047 0 
L 2419 0 
L 2419 1100 
L 313 1100 
L 313 1709 
L 2253 4666 
z
" transform="scale(0.015625)"/>
       </defs>
       <use xlink:href="#DejaVuSans-30"/>
       <use xlink:href="#DejaVuSans-2e" x="63.623047"/>
       <use xlink:href="#DejaVuSans-34" x="95.410156"/>
      </g>
     </g>
    </g>
    <g id="xtick_4">
     <g id="line2d_4">
      <g>
       <use xlink:href="#m351924969e" x="306.267509" y="471.273191" style="stroke: #000000; stroke-width: 0.8"/>
      </g>
     </g>
     <g id="text_4">
      <!-- 0.6 -->
      <g transform="translate(298.315946 485.871629)scale(0.1 -0.1)">
       <defs>
        <path id="DejaVuSans-36" d="M 2113 2584 
Q 1688 2584 1439 2293 
Q 1191 2003 1191 1497 
Q 1191 994 1439 701 
Q 1688 409 2113 409 
Q 2538 409 2786 701 
Q 3034 994 3034 1497 
Q 3034 2003 2786 2293 
Q 2538 2584 2113 2584 
z
M 3366 4563 
L 3366 3988 
Q 3128 4100 2886 4159 
Q 2644 4219 2406 4219 
Q 1781 4219 1451 3797 
Q 1122 3375 1075 2522 
Q 1259 2794 1537 2939 
Q 1816 3084 2150 3084 
Q 2853 3084 3261 2657 
Q 3669 2231 3669 1497 
Q 3669 778 3244 343 
Q 2819 -91 2113 -91 
Q 1303 -91 875 529 
Q 447 1150 447 2328 
Q 447 3434 972 4092 
Q 1497 4750 2381 4750 
Q 2619 4750 2861 4703 
Q 3103 4656 3366 4563 
z
" transform="scale(0.015625)"/>
       </defs>
       <use xlink:href="#DejaVuSans-30"/>
       <use xlink:href="#DejaVuSans-2e" x="63.623047"/>
       <use xlink:href="#DejaVuSans-36" x="95.410156"/>
      </g>
     </g>
    </g>
    <g id="xtick_5">
     <g id="line2d_5">
      <g>
       <use xlink:href="#m351924969e" x="398.322303" y="471.273191" style="stroke: #000000; stroke-width: 0.8"/>
      </g>
     </g>
     <g id="text_5">
      <!-- 0.8 -->
      <g transform="translate(390.370741 485.871629)scale(0.1 -0.1)">
       <defs>
        <path id="DejaVuSans-38" d="M 2034 2216 
Q 1584 2216 1326 1975 
Q 1069 1734 1069 1313 
Q 1069 891 1326 650 
Q 1584 409 2034 409 
Q 2484 409 2743 651 
Q 3003 894 3003 1313 
Q 3003 1734 2745 1975 
Q 2488 2216 2034 2216 
z
M 1403 2484 
Q 997 2584 770 2862 
Q 544 3141 544 3541 
Q 544 4100 942 4425 
Q 1341 4750 2034 4750 
Q 2731 4750 3128 4425 
Q 3525 4100 3525 3541 
Q 3525 3141 3298 2862 
Q 3072 2584 2669 2484 
Q 3125 2378 3379 2068 
Q 3634 1759 3634 1313 
Q 3634 634 3220 271 
Q 2806 -91 2034 -91 
Q 1263 -91 848 271 
Q 434 634 434 1313 
Q 434 1759 690 2068 
Q 947 2378 1403 2484 
z
M 1172 3481 
Q 1172 3119 1398 2916 
Q 1625 2713 2034 2713 
Q 2441 2713 2670 2916 
Q 2900 3119 2900 3481 
Q 2900 3844 2670 4047 
Q 2441 4250 2034 4250 
Q 1625 4250 1398 4047 
Q 1172 3844 1172 3481 
z
" transform="scale(0.015625)"/>
       </defs>
       <use xlink:href="#DejaVuSans-30"/>
       <use xlink:href="#DejaVuSans-2e" x="63.623047"/>
       <use xlink:href="#DejaVuSans-38" x="95.410156"/>
      </g>
     </g>
    </g>
    <g id="xtick_6">
     <g id="line2d_6">
      <g>
       <use xlink:href="#m351924969e" x="490.377098" y="471.273191" style="stroke: #000000; stroke-width: 0.8"/>
      </g>
     </g>
     <g id="text_6">
      <!-- 1.0 -->
      <g transform="translate(482.425535 485.871629)scale(0.1 -0.1)">
       <defs>
        <path id="DejaVuSans-31" d="M 794 531 
L 1825 531 
L 1825 4091 
L 703 3866 
L 703 4441 
L 1819 4666 
L 2450 4666 
L 2450 531 
L 3481 531 
L 3481 0 
L 794 0 
L 794 531 
z
" transform="scale(0.015625)"/>
       </defs>
       <use xlink:href="#DejaVuSans-31"/>
       <use xlink:href="#DejaVuSans-2e" x="63.623047"/>
       <use xlink:href="#DejaVuSans-30" x="95.410156"/>
      </g>
     </g>
    </g>
   </g>
   <g id="matplotlib.axis_2">
    <g id="ytick_1">
     <g id="line2d_7">
      <defs>
       <path id="m83671b3dfa" d="M 0 0 
L -3.5 0 
" style="stroke: #000000; stroke-width: 0.8"/>
      </defs>
      <g>
       <use xlink:href="#m83671b3dfa" x="30.103125" y="471.273191" style="stroke: #000000; stroke-width: 0.8"/>
      </g>
     </g>
     <g id="text_7">
      <!-- 0.0 -->
      <g transform="translate(7.2 475.07241)scale(0.1 -0.1)">
       <use xlink:href="#DejaVuSans-30"/>
       <use xlink:href="#DejaVuSans-2e" x="63.623047"/>
       <use xlink:href="#DejaVuSans-30" x="95.410156"/>
      </g>
     </g>
    </g>
    <g id="ytick_2">
     <g id="line2d_8">
      <g>
       <use xlink:href="#m83671b3dfa" x="30.103125" y="379.218397" style="stroke: #000000; stroke-width: 0.8"/>
      </g>
     </g>
     <g id="text_8">
      <!-- 0.2 -->
      <g transform="translate(7.2 383.017616)scale(0.1 -0.1)">
       <use xlink:href="#DejaVuSans-30"/>
       <use xlink:href="#DejaVuSans-2e" x="63.623047"/>
       <use xlink:href="#DejaVuSans-32" x="95.410156"/>
      </g>
     </g>
    </g>
    <g id="ytick_3">
     <g id="line2d_9">
      <g>
       <use xlink:href="#m83671b3dfa" x="30.103125" y="287.163602" style="stroke: #000000; stroke-width: 0.8"/>
      </g>
     </g>
     <g id="text_9">
      <!-- 0.4 -->
      <g transform="translate(7.2 290.962821)scale(0.1 -0.1)">
       <use xlink:href="#DejaVuSans-30"/>
       <use xlink:href="#DejaVuSans-2e" x="63.623047"/>
       <use xlink:href="#DejaVuSans-34" x="95.410156"/>
      </g>
     </g>
    </g>
    <g id="ytick_4">
     <g id="line2d_10">
      <g>
       <use xlink:href="#m83671b3dfa" x="30.103125" y="195.108808" style="stroke: #000000; stroke-width: 0.8"/>
      </g>
     </g>
     <g id="text_10">
      <!-- 0.6 -->
      <g transform="translate(7.2 198.908027)scale(0.1 -0.1)">
       <use xlink:href="#DejaVuSans-30"/>
       <use xlink:href="#DejaVuSans-2e" x="63.623047"/>
       <use xlink:href="#DejaVuSans-36" x="95.410156"/>
      </g>
     </g>
    </g>
    <g id="ytick_5">
     <g id="line2d_11">
      <g>
       <use xlink:href="#m83671b3dfa" x="30.103125" y="103.054013" style="stroke: #000000; stroke-width: 0.8"/>
      </g>
     </g>
     <g id="text_11">
      <!-- 0.8 -->
      <g transform="translate(7.2 106.853232)scale(0.1 -0.1)">
       <use xlink:href="#DejaVuSans-30"/>
       <use xlink:href="#DejaVuSans-2e" x="63.623047"/>
       <use xlink:href="#DejaVuSans-38" x="95.410156"/>
      </g>
     </g>
    </g>
    <g id="ytick_6">
     <g id="line2d_12">
      <g>
       <use xlink:href="#m83671b3dfa" x="30.103125" y="10.999219" style="stroke: #000000; stroke-width: 0.8"/>
      </g>
     </g>
     <g id="text_12">
      <!-- 1.0 -->
      <g transform="translate(7.2 14.798437)scale(0.1 -0.1)">
       <use xlink:href="#DejaVuSans-31"/>
       <use xlink:href="#DejaVuSans-2e" x="63.623047"/>
       <use xlink:href="#DejaVuSans-30" x="95.410156"/>
      </g>
     </g>
    </g>
   </g>
   <g id="patch_6">
    <path d="M 30.103125 471.273191 
L 30.103125 10.999219 
" style="fill: none; stroke: #000000; stroke-width: 0.8; stroke-linejoin: miter; stroke-linecap: square"/>
   </g>
   <g id="patch_7">
    <path d="M 490.377098 471.273191 
L 490.377098 10.999219 
" style="fill: none; stroke: #000000; stroke-width: 0.8; stroke-linejoin: miter; stroke-linecap: square"/>
   </g>
   <g id="patch_8">
    <path d="M 30.103125 471.273191 
L 490.377098 471.273191 
" style="fill: none; stroke: #000000; stroke-width: 0.8; stroke-linejoin: miter; stroke-linecap: square"/>
   </g>
   <g id="patch_9">
    <path d="M 30.103125 10.999219 
L 490.377098 10.999219 
" style="fill: none; stroke: #000000; stroke-width: 0.8; stroke-linejoin: miter; stroke-linecap: square"/>
   </g>
   <g id="text_13">
    <!-- 0 -->
    <g style="fill: #0000ff" transform="translate(126.102725 343.07643)scale(0.1 -0.1)">
     <use xlink:href="#DejaVuSans-30"/>
    </g>
   </g>
   <g id="text_14">
    <!-- 1 -->
    <g style="fill: #0000ff" transform="translate(126.102725 189.651772)scale(0.1 -0.1)">
     <use xlink:href="#DejaVuSans-31"/>
    </g>
   </g>
   <g id="text_15">
    <!-- 2 -->
    <g style="fill: #0000ff" transform="translate(279.527382 419.788758)scale(0.1 -0.1)">
     <use xlink:href="#DejaVuSans-32"/>
    </g>
   </g>
   <g id="text_16">
    <g id="patch_10">
     <path d="M 30.103125 479.112254 
C 32.182069 479.112254 34.176144 478.286281 35.646179 476.816246 
C 37.116214 475.34621 37.942188 473.352135 37.942188 471.273191 
C 37.942188 469.194248 37.116214 467.200172 35.646179 465.730137 
C 34.176144 464.260102 32.182069 463.434129 30.103125 463.434129 
C 28.024181 463.434129 26.030106 464.260102 24.560071 465.730137 
C 23.090036 467.200172 22.264063 469.194248 22.264063 471.273191 
C 22.264063 473.352135 23.090036 475.34621 24.560071 476.816246 
C 26.030106 478.286281 28.024181 479.112254 30.103125 479.112254 
z
" style="fill: #ffffff; opacity: 0.8; stroke: #000000; stroke-linejoin: miter"/>
    </g>
    <!-- 0 -->
    <g style="fill: #ff0000" transform="translate(26.921875 474.032566)scale(0.1 -0.1)">
     <use xlink:href="#DejaVuSans-30"/>
    </g>
   </g>
   <g id="text_17">
    <g id="patch_11">
     <path d="M 490.377098 479.112254 
C 492.456041 479.112254 494.450117 478.286281 495.920152 476.816246 
C 497.390187 475.34621 498.21616 473.352135 498.21616 471.273191 
C 498.21616 469.194248 497.390187 467.200172 495.920152 465.730137 
C 494.450117 464.260102 492.456041 463.434129 490.377098 463.434129 
C 488.298154 463.434129 486.304079 464.260102 484.834043 465.730137 
C 483.364008 467.200172 482.538035 469.194248 482.538035 471.273191 
C 482.538035 473.352135 483.364008 475.34621 484.834043 476.816246 
C 486.304079 478.286281 488.298154 479.112254 490.377098 479.112254 
z
" style="fill: #ffffff; opacity: 0.8; stroke: #000000; stroke-linejoin: miter"/>
    </g>
    <!-- 1 -->
    <g style="fill: #ff0000" transform="translate(487.195848 474.032566)scale(0.1 -0.1)">
     <use xlink:href="#DejaVuSans-31"/>
    </g>
   </g>
   <g id="text_18">
    <g id="patch_12">
     <path d="M 30.103125 18.838281 
C 32.182069 18.838281 34.176144 18.012308 35.646179 16.542273 
C 37.116214 15.072238 37.942188 13.078162 37.942188 10.999219 
C 37.942188 8.920275 37.116214 6.9262 35.646179 5.456164 
C 34.176144 3.986129 32.182069 3.160156 30.103125 3.160156 
C 28.024181 3.160156 26.030106 3.986129 24.560071 5.456164 
C 23.090036 6.9262 22.264063 8.920275 22.264063 10.999219 
C 22.264063 13.078162 23.090036 15.072238 24.560071 16.542273 
C 26.030106 18.012308 28.024181 18.838281 30.103125 18.838281 
z
" style="fill: #ffffff; opacity: 0.8; stroke: #000000; stroke-linejoin: miter"/>
    </g>
    <!-- 2 -->
    <g style="fill: #ff0000" transform="translate(26.921875 13.758594)scale(0.1 -0.1)">
     <use xlink:href="#DejaVuSans-32"/>
    </g>
   </g>
   <g id="text_19">
    <g id="patch_13">
     <path d="M 327.645674 316.38083 
C 329.724618 316.38083 331.718693 315.554857 333.188728 314.084822 
C 334.658763 312.614787 335.484736 310.620711 335.484736 308.541768 
C 335.484736 306.462824 334.658763 304.468749 333.188728 302.998713 
C 331.718693 301.528678 329.724618 300.702705 327.645674 300.702705 
C 325.56673 300.702705 323.572655 301.528678 322.10262 302.998713 
C 320.632585 304.468749 319.806611 306.462824 319.806611 308.541768 
C 319.806611 310.620711 320.632585 312.614787 322.10262 314.084822 
C 323.572655 315.554857 325.56673 316.38083 327.645674 316.38083 
z
" style="fill: #ffffff; opacity: 0.8; stroke: #000000; stroke-linejoin: miter"/>
    </g>
    <!-- 3 -->
    <g style="fill: #ff0000" transform="translate(324.464424 311.301143)scale(0.1 -0.1)">
     <defs>
      <path id="DejaVuSans-33" d="M 2597 2516 
Q 3050 2419 3304 2112 
Q 3559 1806 3559 1356 
Q 3559 666 3084 287 
Q 2609 -91 1734 -91 
Q 1441 -91 1130 -33 
Q 819 25 488 141 
L 488 750 
Q 750 597 1062 519 
Q 1375 441 1716 441 
Q 2309 441 2620 675 
Q 2931 909 2931 1356 
Q 2931 1769 2642 2001 
Q 2353 2234 1838 2234 
L 1294 2234 
L 1294 2753 
L 1863 2753 
Q 2328 2753 2575 2939 
Q 2822 3125 2822 3475 
Q 2822 3834 2567 4026 
Q 2313 4219 1838 4219 
Q 1578 4219 1281 4162 
Q 984 4106 628 3988 
L 628 4550 
Q 988 4650 1302 4700 
Q 1616 4750 1894 4750 
Q 2613 4750 3031 4423 
Q 3450 4097 3450 3541 
Q 3450 3153 3228 2886 
Q 3006 2619 2597 2516 
z
" transform="scale(0.015625)"/>
     </defs>
     <use xlink:href="#DejaVuSans-33"/>
    </g>
   </g>
   <g id="text_20">
    <g id="patch_14">
     <path d="M 30.103125 248.975268 
C 32.182069 248.975268 34.176144 248.149294 35.646179 246.679259 
C 37.116214 245.209224 37.942188 243.215149 37.942188 241.136205 
C 37.942188 239.057261 37.116214 237.063186 35.646179 235.593151 
C 34.176144 234.123116 32.182069 233.297143 30.103125 233.297143 
C 28.024181 233.297143 26.030106 234.123116 24.560071 235.593151 
C 23.090036 237.063186 22.264063 239.057261 22.264063 241.136205 
C 22.264063 243.215149 23.090036 245.209224 24.560071 246.679259 
C 26.030106 248.149294 28.024181 248.975268 30.103125 248.975268 
z
" style="fill: #ffffff; opacity: 0.8; stroke: #000000; stroke-linejoin: miter"/>
    </g>
    <!-- 4 -->
    <g style="fill: #ff0000" transform="translate(26.921875 243.89558)scale(0.1 -0.1)">
     <use xlink:href="#DejaVuSans-34"/>
    </g>
   </g>
   <g id="text_21">
    <g id="patch_15">
     <path d="M 178.874399 397.746542 
C 180.953343 397.746542 182.947419 396.920569 184.417454 395.450534 
C 185.887489 393.980499 186.713462 391.986423 186.713462 389.90748 
C 186.713462 387.828536 185.887489 385.83446 184.417454 384.364425 
C 182.947419 382.89439 180.953343 382.068417 178.874399 382.068417 
C 176.795456 382.068417 174.80138 382.89439 173.331345 384.364425 
C 171.86131 385.83446 171.035337 387.828536 171.035337 389.90748 
C 171.035337 391.986423 171.86131 393.980499 173.331345 395.450534 
C 174.80138 396.920569 176.795456 397.746542 178.874399 397.746542 
z
" style="fill: #ffffff; opacity: 0.8; stroke: #000000; stroke-linejoin: miter"/>
    </g>
    <!-- 5 -->
    <g style="fill: #ff0000" transform="translate(175.693149 392.666855)scale(0.1 -0.1)">
     <defs>
      <path id="DejaVuSans-35" d="M 691 4666 
L 3169 4666 
L 3169 4134 
L 1269 4134 
L 1269 2991 
Q 1406 3038 1543 3061 
Q 1681 3084 1819 3084 
Q 2600 3084 3056 2656 
Q 3513 2228 3513 1497 
Q 3513 744 3044 326 
Q 2575 -91 1722 -91 
Q 1428 -91 1123 -41 
Q 819 9 494 109 
L 494 744 
Q 775 591 1075 516 
Q 1375 441 1709 441 
Q 2250 441 2565 725 
Q 2881 1009 2881 1497 
Q 2881 1984 2565 2268 
Q 2250 2553 1709 2553 
Q 1456 2553 1204 2497 
Q 953 2441 691 2322 
L 691 4666 
z
" transform="scale(0.015625)"/>
     </defs>
     <use xlink:href="#DejaVuSans-35"/>
    </g>
   </g>
   <g id="text_22">
    <g id="patch_16">
     <path d="M 178.874399 282.678049 
C 180.953343 282.678049 182.947419 281.852076 184.417454 280.382041 
C 185.887489 278.912005 186.713462 276.91793 186.713462 274.838986 
C 186.713462 272.760043 185.887489 270.765967 184.417454 269.295932 
C 182.947419 267.825897 180.953343 266.999924 178.874399 266.999924 
C 176.795456 266.999924 174.80138 267.825897 173.331345 269.295932 
C 171.86131 270.765967 171.035337 272.760043 171.035337 274.838986 
C 171.035337 276.91793 171.86131 278.912005 173.331345 280.382041 
C 174.80138 281.852076 176.795456 282.678049 178.874399 282.678049 
z
" style="fill: #ffffff; opacity: 0.8; stroke: #000000; stroke-linejoin: miter"/>
    </g>
    <!-- 6 -->
    <g style="fill: #ff0000" transform="translate(175.693149 277.598361)scale(0.1 -0.1)">
     <use xlink:href="#DejaVuSans-36"/>
    </g>
   </g>
   <g id="text_23">
    <g id="patch_17">
     <path d="M 30.103125 364.043761 
C 32.182069 364.043761 34.176144 363.217788 35.646179 361.747752 
C 37.116214 360.277717 37.942188 358.283642 37.942188 356.204698 
C 37.942188 354.125755 37.116214 352.131679 35.646179 350.661644 
C 34.176144 349.191609 32.182069 348.365636 30.103125 348.365636 
C 28.024181 348.365636 26.030106 349.191609 24.560071 350.661644 
C 23.090036 352.131679 22.264063 354.125755 22.264063 356.204698 
C 22.264063 358.283642 23.090036 360.277717 24.560071 361.747752 
C 26.030106 363.217788 28.024181 364.043761 30.103125 364.043761 
z
" style="fill: #ffffff; opacity: 0.8; stroke: #000000; stroke-linejoin: miter"/>
    </g>
    <!-- 7 -->
    <g style="fill: #ff0000" transform="translate(26.921875 358.964073)scale(0.1 -0.1)">
     <defs>
      <path id="DejaVuSans-37" d="M 525 4666 
L 3525 4666 
L 3525 4397 
L 1831 0 
L 1172 0 
L 2766 4134 
L 525 4134 
L 525 4666 
z
" transform="scale(0.015625)"/>
     </defs>
     <use xlink:href="#DejaVuSans-37"/>
    </g>
   </g>
   <g id="text_24">
    <g id="patch_18">
     <path d="M 178.874399 167.609556 
C 180.953343 167.609556 182.947419 166.783583 184.417454 165.313547 
C 185.887489 163.843512 186.713462 161.849437 186.713462 159.770493 
C 186.713462 157.69155 185.887489 155.697474 184.417454 154.227439 
C 182.947419 152.757404 180.953343 151.931431 178.874399 151.931431 
C 176.795456 151.931431 174.80138 152.757404 173.331345 154.227439 
C 171.86131 155.697474 171.035337 157.69155 171.035337 159.770493 
C 171.035337 161.849437 171.86131 163.843512 173.331345 165.313547 
C 174.80138 166.783583 176.795456 167.609556 178.874399 167.609556 
z
" style="fill: #ffffff; opacity: 0.8; stroke: #000000; stroke-linejoin: miter"/>
    </g>
    <!-- 8 -->
    <g style="fill: #ff0000" transform="translate(175.693149 162.529868)scale(0.1 -0.1)">
     <use xlink:href="#DejaVuSans-38"/>
    </g>
   </g>
   <g id="text_25">
    <g id="patch_19">
     <path d="M 30.103125 133.906774 
C 32.182069 133.906774 34.176144 133.080801 35.646179 131.610766 
C 37.116214 130.140731 37.942188 128.146656 37.942188 126.067712 
C 37.942188 123.988768 37.116214 121.994693 35.646179 120.524658 
C 34.176144 119.054622 32.182069 118.228649 30.103125 118.228649 
C 28.024181 118.228649 26.030106 119.054622 24.560071 120.524658 
C 23.090036 121.994693 22.264063 123.988768 22.264063 126.067712 
C 22.264063 128.146656 23.090036 130.140731 24.560071 131.610766 
C 26.030106 133.080801 28.024181 133.906774 30.103125 133.906774 
z
" style="fill: #ffffff; opacity: 0.8; stroke: #000000; stroke-linejoin: miter"/>
    </g>
    <!-- 9 -->
    <g style="fill: #ff0000" transform="translate(26.921875 128.827087)scale(0.1 -0.1)">
     <defs>
      <path id="DejaVuSans-39" d="M 703 97 
L 703 672 
Q 941 559 1184 500 
Q 1428 441 1663 441 
Q 2288 441 2617 861 
Q 2947 1281 2994 2138 
Q 2813 1869 2534 1725 
Q 2256 1581 1919 1581 
Q 1219 1581 811 2004 
Q 403 2428 403 3163 
Q 403 3881 828 4315 
Q 1253 4750 1959 4750 
Q 2769 4750 3195 4129 
Q 3622 3509 3622 2328 
Q 3622 1225 3098 567 
Q 2575 -91 1691 -91 
Q 1453 -91 1209 -44 
Q 966 3 703 97 
z
M 1959 2075 
Q 2384 2075 2632 2365 
Q 2881 2656 2881 3163 
Q 2881 3666 2632 3958 
Q 2384 4250 1959 4250 
Q 1534 4250 1286 3958 
Q 1038 3666 1038 3163 
Q 1038 2656 1286 2365 
Q 1534 2075 1959 2075 
z
" transform="scale(0.015625)"/>
     </defs>
     <use xlink:href="#DejaVuSans-39"/>
    </g>
   </g>
   <g id="text_26">
    <g id="patch_20">
     <path d="M 260.240111 480.635691 
C 262.723075 480.635691 265.104678 479.649199 266.860399 477.893479 
C 268.616119 476.137758 269.602611 473.756155 269.602611 471.273191 
C 269.602611 468.790227 268.616119 466.408625 266.860399 464.652904 
C 265.104678 462.897183 262.723075 461.910691 260.240111 461.910691 
C 257.757147 461.910691 255.375545 462.897183 253.619824 464.652904 
C 251.864103 466.408625 250.877611 468.790227 250.877611 471.273191 
C 250.877611 473.756155 251.864103 476.137758 253.619824 477.893479 
C 255.375545 479.649199 257.757147 480.635691 260.240111 480.635691 
z
" style="fill: #ffffff; opacity: 0.8; stroke: #000000; stroke-linejoin: miter"/>
    </g>
    <!-- 10 -->
    <g style="fill: #ff0000" transform="translate(253.877611 474.032566)scale(0.1 -0.1)">
     <use xlink:href="#DejaVuSans-31"/>
     <use xlink:href="#DejaVuSans-30" x="63.623047"/>
    </g>
   </g>
   <g id="text_27">
    <g id="patch_21">
     <path d="M 409.011386 399.26998 
C 411.49435 399.26998 413.875952 398.283487 415.631673 396.527767 
C 417.387394 394.772046 418.373886 392.390444 418.373886 389.90748 
C 418.373886 387.424516 417.387394 385.042913 415.631673 383.287192 
C 413.875952 381.531472 411.49435 380.54498 409.011386 380.54498 
C 406.528422 380.54498 404.146819 381.531472 402.391099 383.287192 
C 400.635378 385.042913 399.648886 387.424516 399.648886 389.90748 
C 399.648886 392.390444 400.635378 394.772046 402.391099 396.527767 
C 404.146819 398.283487 406.528422 399.26998 409.011386 399.26998 
z
" style="fill: #ffffff; opacity: 0.8; stroke: #000000; stroke-linejoin: miter"/>
    </g>
    <!-- 11 -->
    <g style="fill: #ff0000" transform="translate(402.648886 392.666855)scale(0.1 -0.1)">
     <use xlink:href="#DejaVuSans-31"/>
     <use xlink:href="#DejaVuSans-31" x="63.623047"/>
    </g>
   </g>
   <g id="text_28">
    <!-- [0] -->
    <g transform="translate(72.610737 408.554498)scale(0.1 -0.1)">
     <defs>
      <path id="DejaVuSans-5b" d="M 550 4863 
L 1875 4863 
L 1875 4416 
L 1125 4416 
L 1125 -397 
L 1875 -397 
L 1875 -844 
L 550 -844 
L 550 4863 
z
" transform="scale(0.015625)"/>
      <path id="DejaVuSans-5d" d="M 1947 4863 
L 1947 -844 
L 622 -844 
L 622 -397 
L 1369 -397 
L 1369 4416 
L 622 4416 
L 622 4863 
L 1947 4863 
z
" transform="scale(0.015625)"/>
     </defs>
     <use xlink:href="#DejaVuSans-5b"/>
     <use xlink:href="#DejaVuSans-30" x="39.013672"/>
     <use xlink:href="#DejaVuSans-5d" x="102.636719"/>
    </g>
   </g>
   <g id="text_29">
    <!-- [0] -->
    <g transform="translate(221.382012 250.476457)scale(0.1 -0.1)">
     <use xlink:href="#DejaVuSans-5b"/>
     <use xlink:href="#DejaVuSans-30" x="39.013672"/>
     <use xlink:href="#DejaVuSans-5d" x="102.636719"/>
    </g>
   </g>
   <g id="text_30">
    <!-- [0] -->
    <g transform="translate(149.323066 446.910662)scale(0.1 -0.1)">
     <use xlink:href="#DejaVuSans-5b"/>
     <use xlink:href="#DejaVuSans-30" x="39.013672"/>
     <use xlink:href="#DejaVuSans-5d" x="102.636719"/>
    </g>
   </g>
  </g>
 </g>
 <defs>
  <clipPath id="p3cc0e01735">
   <rect x="30.103125" y="10.999219" width="460.273973" height="460.273973"/>
  </clipPath>
 </defs>
</svg>
